{
	"asset":{
		"generator":"Khronos glTF Blender I/O v4.2.70",
		"version":"2.0"
	},
	"scene":0,
	"scenes":[
		{
			"name":"Scene",
			"nodes":[
				3,
				4,
				5
			]
		}
	],
	"nodes":[
		{
			"name":"SK_Checkpoint.ao",
			"rotation":[
				-0.70710688829422,
				0,
				0,
				0.7071066498756409
			],
			"scale":[
				100,
				99.99999237060547,
				99.99999237060547
			]
		},
		{
			"children":[
				0
			],
			"name":"RootNode"
		},
		{
			"children":[
				1
			],
			"name":"checkpoint.fbx",
			"rotation":[
				0.70710688829422,
				0,
				0,
				0.7071066498756409
			],
			"scale":[
				0.009999999776482582,
				0.010000000707805157,
				0.010000000707805157
			]
		},
		{
			"children":[
				2
			],
			"name":"Sketchfab_model",
			"rotation":[
				-0.70710688829422,
				0,
				0,
				0.7071066498756409
			]
		},
		{
			"mesh":0,
			"name":"Object_15",
			"translation":[
				0,
				-1.0211797952651978,
				0
			]
		},
		{
			"name":"Object_14",
			"rotation":[
				-0.70710688829422,
				0,
				0,
				0.7071066498756409
			],
			"scale":[
				100,
				100.00001525878906,
				100.00001525878906
			]
		}
	],
	"materials":[
		{
			"doubleSided":true,
			"name":"MI_JF_Checkpoint_01",
			"normalTexture":{
				"index":0
			},
			"pbrMetallicRoughness":{
				"baseColorTexture":{
					"index":1
				},
				"metallicFactor":0,
				"roughnessFactor":0.8211145401000977
			}
		}
	],
	"meshes":[
		{
			"name":"SK_Checkpoint.mo_MI_JF_Checkpoint_01_0",
			"primitives":[
				{
					"attributes":{
						"POSITION":0,
						"NORMAL":1,
						"TEXCOORD_0":2,
						"TEXCOORD_1":3
					},
					"indices":4,
					"material":0
				}
			]
		}
	],
	"textures":[
		{
			"sampler":0,
			"source":0
		},
		{
			"sampler":0,
			"source":1
		}
	],
	"images":[
		{
			"mimeType":"image/png",
			"name":"MI_JF_Checkpoint_01_normal",
			"uri":"textures/MI_JF_Checkpoint_01_normal.png"
		},
		{
			"mimeType":"image/png",
			"name":"MI_JF_Checkpoint_01_baseColor",
			"uri":"textures/MI_JF_Checkpoint_01_baseColor.png"
		}
	],
	"accessors":[
		{
			"bufferView":0,
			"componentType":5126,
			"count":978,
			"max":[
				1.2361482381820679,
				7.286962985992432,
				0.8281558156013489
			],
			"min":[
				-1.1324719190597534,
				1.3502999544143677,
				-0.8461102247238159
			],
			"type":"VEC3"
		},
		{
			"bufferView":1,
			"componentType":5126,
			"count":978,
			"type":"VEC3"
		},
		{
			"bufferView":2,
			"componentType":5126,
			"count":978,
			"type":"VEC2"
		},
		{
			"bufferView":3,
			"componentType":5126,
			"count":978,
			"type":"VEC2"
		},
		{
			"bufferView":4,
			"componentType":5123,
			"count":4140,
			"type":"SCALAR"
		}
	],
	"bufferViews":[
		{
			"buffer":0,
			"byteLength":11736,
			"byteOffset":0,
			"target":34962
		},
		{
			"buffer":0,
			"byteLength":11736,
			"byteOffset":11736,
			"target":34962
		},
		{
			"buffer":0,
			"byteLength":7824,
			"byteOffset":23472,
			"target":34962
		},
		{
			"buffer":0,
			"byteLength":7824,
			"byteOffset":31296,
			"target":34962
		},
		{
			"buffer":0,
			"byteLength":8280,
			"byteOffset":39120,
			"target":34963
		}
	],
	"samplers":[
		{
			"magFilter":9729,
			"minFilter":9987
		}
	],
	"buffers":[
		{
			"byteLength":47400,
			"uri":"scene.bin"
		}
	]
}
