{
	"asset":{
		"generator":"Khronos glTF Blender I/O v4.2.70",
		"version":"2.0"
	},
	"scene":0,
	"scenes":[
		{
			"name":"Scene",
			"nodes":[
				4
			]
		}
	],
	"nodes":[
		{
			"mesh":0,
			"name":"pCylinder10_phong7_0"
		},
		{
			"children":[
				0
			],
			"name":"pCylinder10",
			"translation":[
				0,
				0,
				27.708982467651367
			]
		},
		{
			"children":[
				1
			],
			"name":"RootNode"
		},
		{
			"children":[
				2
			],
			"name":"666baa7faa7543fab99a534072e01cb0.fbx",
			"rotation":[
				0.70710688829422,
				0,
				0,
				0.7071066498756409
			],
			"scale":[
				0.009999999776482582,
				0.010000000707805157,
				0.010000000707805157
			]
		},
		{
			"children":[
				3
			],
			"name":"Sketchfab_model",
			"rotation":[
				-0.70710688829422,
				0,
				0,
				0.7071066498756409
			]
		}
	],
	"materials":[
		{
			"doubleSided":true,
			"name":"phong7",
			"normalTexture":{
				"index":0
			},
			"pbrMetallicRoughness":{
				"baseColorTexture":{
					"index":1
				},
				"metallicRoughnessTexture":{
					"index":2
				}
			}
		}
	],
	"meshes":[
		{
			"name":"pCylinder10_phong7_0",
			"primitives":[
				{
					"attributes":{
						"POSITION":0,
						"NORMAL":1,
						"TEXCOORD_0":2,
						"TEXCOORD_1":3
					},
					"indices":4,
					"material":0
				}
			]
		}
	],
	"textures":[
		{
			"sampler":0,
			"source":0
		},
		{
			"sampler":0,
			"source":1
		},
		{
			"sampler":0,
			"source":2
		}
	],
	"images":[
		{
			"mimeType":"image/png",
			"name":"phong7_normal",
			"uri":"textures/phong7_normal.png"
		},
		{
			"mimeType":"image/png",
			"name":"phong7_baseColor",
			"uri":"textures/phong7_baseColor.png"
		},
		{
			"mimeType":"image/png",
			"name":"phong7_metallicRoughness",
			"uri":"textures/phong7_metallicRoughness.png"
		}
	],
	"accessors":[
		{
			"bufferView":0,
			"componentType":5126,
			"count":1146,
			"max":[
				68.66419219970703,
				131.6716766357422,
				140.71768188476562
			],
			"min":[
				-68.6453857421875,
				0.3571945130825043,
				-196.27235412597656
			],
			"type":"VEC3"
		},
		{
			"bufferView":1,
			"componentType":5126,
			"count":1146,
			"type":"VEC3"
		},
		{
			"bufferView":2,
			"componentType":5126,
			"count":1146,
			"type":"VEC2"
		},
		{
			"bufferView":3,
			"componentType":5126,
			"count":1146,
			"type":"VEC2"
		},
		{
			"bufferView":4,
			"componentType":5123,
			"count":2199,
			"type":"SCALAR"
		}
	],
	"bufferViews":[
		{
			"buffer":0,
			"byteLength":13752,
			"byteOffset":0,
			"target":34962
		},
		{
			"buffer":0,
			"byteLength":13752,
			"byteOffset":13752,
			"target":34962
		},
		{
			"buffer":0,
			"byteLength":9168,
			"byteOffset":27504,
			"target":34962
		},
		{
			"buffer":0,
			"byteLength":9168,
			"byteOffset":36672,
			"target":34962
		},
		{
			"buffer":0,
			"byteLength":4398,
			"byteOffset":45840,
			"target":34963
		}
	],
	"samplers":[
		{
			"magFilter":9729,
			"minFilter":9987
		}
	],
	"buffers":[
		{
			"byteLength":50240,
			"uri":"scene.bin"
		}
	]
}
