{
  "accessors": [
    {
      "bufferView": 2,
      "componentType": 5126,
      "count": 4814,
      "max": [
        -1.4769099950790405,
        9.2575101852417,
        42.949798583984375
      ],
      "min": [
        -20.6968994140625,
        -10.795000076293945,
        26.588499069213867
      ],
      "type": "VEC3"
    },
    {
      "bufferView": 2,
      "byteOffset": 57768,
      "componentType": 5126,
      "count": 4814,
      "max": [
        0.9996901750564575,
        1.0,
        0.9999690055847168
      ],
      "min": [
        -0.9996901750564575,
        -1.0,
        -0.9999690055847168
      ],
      "type": "VEC3"
    },
    {
      "bufferView": 1,
      "componentType": 5126,
      "count": 4814,
      "max": [
        0.9624019861221313,
        0.9878619909286499
      ],
      "min": [
        0.026840200647711754,
        0.016113299876451492
      ],
      "type": "VEC2"
    },
    {
      "bufferView": 0,
      "componentType": 5125,
      "count": 21696,
      "type": "SCALAR"
    },
    {
      "bufferView": 2,
      "byteOffset": 115536,
      "componentType": 5126,
      "count": 1841,
      "max": [
        1.9452400207519531,
        14.839400291442871,
        28.293100357055664
      ],
      "min": [
        -25.61210060119629,
        -13.550700187683105,
        0.8474900126457214
      ],
      "type": "VEC3"
    },
    {
      "bufferView": 2,
      "byteOffset": 137628,
      "componentType": 5126,
      "count": 1841,
      "max": [
        0.9980218410491943,
        0.9988549947738647,
        1.0
      ],
      "min": [
        -0.9973753690719604,
        -0.9980218410491943,
        -1.0
      ],
      "type": "VEC3"
    },
    {
      "bufferView": 1,
      "byteOffset": 38512,
      "componentType": 5126,
      "count": 1841,
      "max": [
        0.9897459745407104,
        0.9803159832954407
      ],
      "min": [
        0.010086099617183208,
        0.010253899730741978
      ],
      "type": "VEC2"
    },
    {
      "bufferView": 0,
      "byteOffset": 86784,
      "componentType": 5125,
      "count": 7218,
      "type": "SCALAR"
    }
  ],
  "asset": {
    "extras": {
      "author": "Sajin Mickey Firey fan 1342 from Cheryl hill (https://sketchfab.com/cherylhill28)",
      "license": "CC-BY-4.0 (http://creativecommons.org/licenses/by/4.0/)",
      "source": "https://sketchfab.com/3d-models/bfbbr-spongebob-pineapple-house-4e2d36c5f95645448b44af409432ae82",
      "title": "Bfbbr-SpongeBob Pineapple House"
    },
    "generator": "Sketchfab-16.16.0",
    "version": "2.0"
  },
  "bufferViews": [
    {
      "buffer": 0,
      "byteLength": 115656,
      "name": "floatBufferViews",
      "target": 34963
    },
    {
      "buffer": 0,
      "byteLength": 53240,
      "byteOffset": 115656,
      "byteStride": 8,
      "name": "floatBufferViews",
      "target": 34962
    },
    {
      "buffer": 0,
      "byteLength": 159720,
      "byteOffset": 168896,
      "byteStride": 12,
      "name": "floatBufferViews",
      "target": 34962
    }
  ],
  "buffers": [
    {
      "byteLength": 328616,
      "uri": "scene.bin"
    }
  ],
  "extensionsUsed": [
    "KHR_materials_unlit"
  ],
  "images": [
    {
      "uri": "textures/Smbbspongebobhouseleaves021Mtl_baseColor.png"
    },
    {
      "uri": "textures/Smbbspongebobhousevalve1Mtl_baseColor.png"
    }
  ],
  "materials": [
    {
      "doubleSided": true,
      "extensions": {
        "KHR_materials_unlit": {}
      },
      "name": "Smbbspongebobhouseleaves021Mtl",
      "pbrMetallicRoughness": {
        "baseColorTexture": {
          "index": 0
        },
        "metallicFactor": 0.0
      }
    },
    {
      "doubleSided": true,
      "extensions": {
        "KHR_materials_unlit": {}
      },
      "name": "Smbbspongebobhousevalve1Mtl",
      "pbrMetallicRoughness": {
        "baseColorTexture": {
          "index": 1
        },
        "metallicFactor": 0.0
      }
    }
  ],
  "meshes": [
    {
      "name": "Object_0",
      "primitives": [
        {
          "attributes": {
            "NORMAL": 1,
            "POSITION": 0,
            "TEXCOORD_0": 2
          },
          "indices": 3,
          "material": 0,
          "mode": 4
        }
      ]
    },
    {
      "name": "Object_1",
      "primitives": [
        {
          "attributes": {
            "NORMAL": 5,
            "POSITION": 4,
            "TEXCOORD_0": 6
          },
          "indices": 7,
          "material": 1,
          "mode": 4
        }
      ]
    }
  ],
  "nodes": [
    {
      "children": [
        1
      ],
      "matrix": [
        -1.0,
        6.290011496532519e-32,
        -2.832769343193999e-16,
        0.0,
        -2.832769343193999e-16,
        -2.220446049250313e-16,
        1.0,
        0.0,
        0.0,
        1.0,
        2.220446049250313e-16,
        0.0,
        0.0,
        0.0,
        0.0,
        1.0
      ],
      "name": "Sketchfab_model"
    },
    {
      "children": [
        2,
        3
      ],
      "name": "pineapple house Bfbbr.obj.cleaner.materialmerger.gles"
    },
    {
      "mesh": 0,
      "name": "Object_2"
    },
    {
      "mesh": 1,
      "name": "Object_3"
    }
  ],
  "samplers": [
    {
      "magFilter": 9729,
      "minFilter": 9987,
      "wrapS": 10497,
      "wrapT": 10497
    }
  ],
  "scene": 0,
  "scenes": [
    {
      "name": "Sketchfab_Scene",
      "nodes": [
        0
      ]
    }
  ],
  "textures": [
    {
      "sampler": 0,
      "source": 0
    },
    {
      "sampler": 0,
      "source": 1
    }
  ]
}
