{
  "accessors": [
    {
      "bufferView": 2,
      "componentType": 5126,
      "count": 3290,
      "max": [
        1.4684170484542847,
        2.1798689365386963,
        2.927037000656128
      ],
      "min": [
        -1.468418002128601,
        -1.8546990156173706,
        0.009002000093460083
      ],
      "type": "VEC3"
    },
    {
      "bufferView": 2,
      "byteOffset": 39480,
      "componentType": 5126,
      "count": 3290,
      "max": [
        0.9999021291732788,
        0.999984860420227,
        0.9999020099639893
      ],
      "min": [
        -0.9999021291732788,
        -0.9999998807907104,
        -0.9999688863754272
      ],
      "type": "VEC3"
    },
    {
      "bufferView": 3,
      "componentType": 5126,
      "count": 3290,
      "max": [
        1.0,
        0.9854909777641296,
        0.9950856566429138,
        1.0
      ],
      "min": [
        -1.0,
        -0.985469400882721,
        -0.9950856566429138,
        1.0
      ],
      "type": "VEC4"
    },
    {
      "bufferView": 1,
      "componentType": 5126,
      "count": 3290,
      "max": [
        0.9975110292434692,
        0.9390569925308228
      ],
      "min": [
        0.0024900001008063555,
        0.09239000082015991
      ],
      "type": "VEC2"
    },
    {
      "bufferView": 0,
      "componentType": 5125,
      "count": 18624,
      "type": "SCALAR"
    }
  ],
  "asset": {
    "extras": {
      "author": "Alexander Cidbal (https://sketchfab.com/alexander.cidbal)",
      "license": "CC-BY-4.0 (http://creativecommons.org/licenses/by/4.0/)",
      "source": "https://sketchfab.com/3d-models/gatito-de-peluche-3ebc41cba4e143bfbea5f331a751ef30",
      "title": "Gatito de Peluche"
    },
    "generator": "Sketchfab-12.66.0",
    "version": "2.0"
  },
  "bufferViews": [
    {
      "buffer": 0,
      "byteLength": 74496,
      "name": "floatBufferViews",
      "target": 34963
    },
    {
      "buffer": 0,
      "byteLength": 26320,
      "byteOffset": 74496,
      "byteStride": 8,
      "name": "floatBufferViews",
      "target": 34962
    },
    {
      "buffer": 0,
      "byteLength": 78960,
      "byteOffset": 100816,
      "byteStride": 12,
      "name": "floatBufferViews",
      "target": 34962
    },
    {
      "buffer": 0,
      "byteLength": 52640,
      "byteOffset": 179776,
      "byteStride": 16,
      "name": "floatBufferViews",
      "target": 34962
    }
  ],
  "buffers": [
    {
      "byteLength": 232416,
      "uri": "scene.bin"
    }
  ],
  "images": [
    {
      "uri": "textures/Clay_2.Doh_baseColor.png"
    },
    {
      "uri": "textures/Clay_2.Doh_metallicRoughness.png"
    },
    {
      "uri": "textures/Clay_2.Doh_normal.png"
    }
  ],
  "materials": [
    {
      "doubleSided": true,
      "name": "Clay_2.Doh",
      "normalTexture": {
        "index": 2
      },
      "pbrMetallicRoughness": {
        "baseColorTexture": {
          "index": 0
        },
        "metallicFactor": 0.0,
        "metallicRoughnessTexture": {
          "index": 1
        }
      }
    }
  ],
  "meshes": [
    {
      "name": "Object_0",
      "primitives": [
        {
          "attributes": {
            "NORMAL": 1,
            "POSITION": 0,
            "TANGENT": 2,
            "TEXCOORD_0": 3
          },
          "indices": 4,
          "material": 0,
          "mode": 4
        }
      ]
    }
  ],
  "nodes": [
    {
      "children": [
        1
      ],
      "matrix": [
        1.0,
        0.0,
        0.0,
        0.0,
        0.0,
        2.220446049250313e-16,
        -1.0,
        0.0,
        0.0,
        1.0,
        2.220446049250313e-16,
        0.0,
        0.0,
        0.0,
        0.0,
        1.0
      ],
      "name": "Sketchfab_model"
    },
    {
      "children": [
        2
      ],
      "name": "ec04985a01b84358ac717030fd2be1a7.obj.cleaner.materialmerger.gles"
    },
    {
      "mesh": 0,
      "name": "Object_2"
    }
  ],
  "samplers": [
    {
      "magFilter": 9729,
      "minFilter": 9987,
      "wrapS": 10497,
      "wrapT": 10497
    }
  ],
  "scene": 0,
  "scenes": [
    {
      "name": "Sketchfab_Scene",
      "nodes": [
        0
      ]
    }
  ],
  "textures": [
    {
      "sampler": 0,
      "source": 0
    },
    {
      "sampler": 0,
      "source": 1
    },
    {
      "sampler": 0,
      "source": 2
    }
  ]
}
