{
	"asset":{
		"generator":"Khronos glTF Blender I/O v4.2.70",
		"version":"2.0"
	},
	"scene":0,
	"scenes":[
		{
			"name":"Scene",
			"nodes":[
				3
			]
		}
	],
	"nodes":[
		{
			"mesh":0,
			"name":"Object_2",
			"translation":[
				0,
				1.3893703908252064e-05,
				0
			]
		},
		{
			"mesh":1,
			"name":"Object_3",
			"translation":[
				0,
				1.3893703908252064e-05,
				0
			]
		},
		{
			"children":[
				0,
				1
			],
			"name":"spongebob boatmoblie.obj.cleaner.materialmerger.gles",
			"translation":[
				0,
				1.3893703908252064e-05,
				0
			]
		},
		{
			"children":[
				2
			],
			"name":"Sketchfab_model",
			"rotation":[
				0,
				-0.7071068286895752,
				-0.7071068286895752,
				1.00153539642818e-16
			],
			"translation":[
				-84.4800033569336,
				-10.15999984741211,
				-233.36997985839844
			]
		}
	],
	"materials":[
		{
			"alphaMode":"BLEND",
			"name":"Windshield1Mtl",
			"pbrMetallicRoughness":{
				"baseColorFactor":[
					0.02217765338718891,
					0.4222579300403595,
					0.6831716299057007,
					0.17296510934829712
				],
				"metallicFactor":0,
				"roughnessFactor":0.6000000238418579
			}
		},
		{
			"name":"SeatOutline1Mtl",
			"pbrMetallicRoughness":{
				"baseColorTexture":{
					"index":0
				},
				"metallicFactor":0,
				"roughnessFactor":0.6000000238418579
			}
		}
	],
	"meshes":[
		{
			"name":"Object_0",
			"primitives":[
				{
					"attributes":{
						"POSITION":0,
						"NORMAL":1,
						"TEXCOORD_0":2
					},
					"indices":3,
					"material":0
				}
			]
		},
		{
			"name":"Object_1",
			"primitives":[
				{
					"attributes":{
						"POSITION":4,
						"NORMAL":5,
						"TEXCOORD_0":6
					},
					"indices":7,
					"material":1
				}
			]
		}
	],
	"textures":[
		{
			"sampler":0,
			"source":0
		}
	],
	"images":[
		{
			"mimeType":"image/png",
			"name":"SeatOutline1Mtl_baseColor",
			"uri":"textures/SeatOutline1Mtl_baseColor.png"
		}
	],
	"accessors":[
		{
			"bufferView":0,
			"componentType":5126,
			"count":238,
			"max":[
				-81.76820373535156,
				267.90399169921875,
				18.308799743652344
			],
			"min":[
				-92.57530212402344,
				266.1669921875,
				16.24530029296875
			],
			"type":"VEC3"
		},
		{
			"bufferView":1,
			"componentType":5126,
			"count":238,
			"type":"VEC3"
		},
		{
			"bufferView":2,
			"componentType":5126,
			"count":238,
			"type":"VEC2"
		},
		{
			"bufferView":3,
			"componentType":5123,
			"count":912,
			"type":"SCALAR"
		},
		{
			"bufferView":4,
			"componentType":5126,
			"count":2249,
			"max":[
				-81.48104095458984,
				274.0169982910156,
				17.573108673095703
			],
			"min":[
				-92.86236572265625,
				252.5402374267578,
				9.993634223937988
			],
			"type":"VEC3"
		},
		{
			"bufferView":5,
			"componentType":5126,
			"count":2249,
			"type":"VEC3"
		},
		{
			"bufferView":6,
			"componentType":5126,
			"count":2249,
			"type":"VEC2"
		},
		{
			"bufferView":7,
			"componentType":5123,
			"count":7041,
			"type":"SCALAR"
		}
	],
	"bufferViews":[
		{
			"buffer":0,
			"byteLength":2856,
			"byteOffset":0,
			"target":34962
		},
		{
			"buffer":0,
			"byteLength":2856,
			"byteOffset":2856,
			"target":34962
		},
		{
			"buffer":0,
			"byteLength":1904,
			"byteOffset":5712,
			"target":34962
		},
		{
			"buffer":0,
			"byteLength":1824,
			"byteOffset":7616,
			"target":34963
		},
		{
			"buffer":0,
			"byteLength":26988,
			"byteOffset":9440,
			"target":34962
		},
		{
			"buffer":0,
			"byteLength":26988,
			"byteOffset":36428,
			"target":34962
		},
		{
			"buffer":0,
			"byteLength":17992,
			"byteOffset":63416,
			"target":34962
		},
		{
			"buffer":0,
			"byteLength":14082,
			"byteOffset":81408,
			"target":34963
		}
	],
	"samplers":[
		{
			"magFilter":9729,
			"minFilter":9987
		}
	],
	"buffers":[
		{
			"byteLength":95492,
			"uri":"scene.bin"
		}
	]
}
