{
  "accessors": [
    {
      "bufferView": 2,
      "componentType": 5126,
      "count": 32,
      "max": [
        0.5,
        0.5,
        0.40091729164123535
      ],
      "min": [
        -0.5,
        -0.5,
        -0.40091729164123535
      ],
      "type": "VEC3"
    },
    {
      "bufferView": 2,
      "byteOffset": 384,
      "componentType": 5126,
      "count": 32,
      "max": [
        0.9998085498809814,
        0.9998419880867004,
        1.0
      ],
      "min": [
        -0.9991093277931213,
        -0.99986332654953,
        -1.0
      ],
      "type": "VEC3"
    },
    {
      "bufferView": 1,
      "componentType": 5126,
      "count": 32,
      "max": [
        0.8850143551826477,
        0.9999367594718933
      ],
      "min": [
        0.00022351741790771484,
        6.608664989471436e-05
      ],
      "type": "VEC2"
    },
    {
      "bufferView": 1,
      "byteOffset": 256,
      "componentType": 5126,
      "count": 32,
      "max": [
        0.8850143551826477,
        0.9999367594718933
      ],
      "min": [
        0.00022351741790771484,
        6.608664989471436e-05
      ],
      "type": "VEC2"
    },
    {
      "bufferView": 1,
      "byteOffset": 512,
      "componentType": 5126,
      "count": 32,
      "max": [
        0.8850143551826477,
        0.9999367594718933
      ],
      "min": [
        0.00022351741790771484,
        6.608664989471436e-05
      ],
      "type": "VEC2"
    },
    {
      "bufferView": 0,
      "componentType": 5125,
      "count": 48,
      "type": "SCALAR"
    },
    {
      "bufferView": 2,
      "byteOffset": 768,
      "componentType": 5126,
      "count": 452,
      "max": [
        226.76773071289063,
        130.57752990722656,
        210.0126953125
      ],
      "min": [
        152.53921508789063,
        5.55867862701416,
        200.1219482421875
      ],
      "type": "VEC3"
    },
    {
      "bufferView": 2,
      "byteOffset": 6192,
      "componentType": 5126,
      "count": 452,
      "max": [
        0.9943356513977051,
        0.9996176362037659,
        1.0
      ],
      "min": [
        -0.9975612163543701,
        -0.9945157766342163,
        -0.9781476855278015
      ],
      "type": "VEC3"
    },
    {
      "bufferView": 1,
      "byteOffset": 768,
      "componentType": 5126,
      "count": 452,
      "max": [
        0.8281464576721191,
        0.999885082244873
      ],
      "min": [
        5.2735209465026855e-05,
        0.00011500716209411621
      ],
      "type": "VEC2"
    },
    {
      "bufferView": 1,
      "byteOffset": 4384,
      "componentType": 5126,
      "count": 452,
      "max": [
        0.8281464576721191,
        0.999885082244873
      ],
      "min": [
        5.2735209465026855e-05,
        0.00011500716209411621
      ],
      "type": "VEC2"
    },
    {
      "bufferView": 1,
      "byteOffset": 8000,
      "componentType": 5126,
      "count": 452,
      "max": [
        0.8281464576721191,
        0.999885082244873
      ],
      "min": [
        5.2735209465026855e-05,
        0.00011500716209411621
      ],
      "type": "VEC2"
    },
    {
      "bufferView": 0,
      "byteOffset": 192,
      "componentType": 5125,
      "count": 2340,
      "type": "SCALAR"
    },
    {
      "bufferView": 2,
      "byteOffset": 11616,
      "componentType": 5126,
      "count": 266,
      "max": [
        421.2726745605469,
        184.6510009765625,
        210.0126953125
      ],
      "min": [
        246.87994384765625,
        174.70559692382813,
        200.12196350097656
      ],
      "type": "VEC3"
    },
    {
      "bufferView": 2,
      "byteOffset": 14808,
      "componentType": 5126,
      "count": 266,
      "max": [
        1.0,
        0.9945219159126282,
        1.0
      ],
      "min": [
        -1.0,
        -0.9945219159126282,
        -0.9781476259231567
      ],
      "type": "VEC3"
    },
    {
      "bufferView": 1,
      "byteOffset": 11616,
      "componentType": 5126,
      "count": 266,
      "max": [
        0.9999011158943176,
        0.27982252836227417
      ],
      "min": [
        9.879842400550842e-05,
        0.00010244548320770264
      ],
      "type": "VEC2"
    },
    {
      "bufferView": 1,
      "byteOffset": 13744,
      "componentType": 5126,
      "count": 266,
      "max": [
        0.9999011158943176,
        0.27982252836227417
      ],
      "min": [
        9.879842400550842e-05,
        0.00010244548320770264
      ],
      "type": "VEC2"
    },
    {
      "bufferView": 1,
      "byteOffset": 15872,
      "componentType": 5126,
      "count": 266,
      "max": [
        0.9999011158943176,
        0.27982252836227417
      ],
      "min": [
        9.879842400550842e-05,
        0.00010244548320770264
      ],
      "type": "VEC2"
    },
    {
      "bufferView": 0,
      "byteOffset": 9552,
      "componentType": 5125,
      "count": 1260,
      "type": "SCALAR"
    },
    {
      "bufferView": 2,
      "byteOffset": 18000,
      "componentType": 5126,
      "count": 3051,
      "max": [
        0.5,
        0.49937203526496887,
        0.14562003314495087
      ],
      "min": [
        -0.5,
        -0.5,
        -0.14562003314495087
      ],
      "type": "VEC3"
    },
    {
      "bufferView": 2,
      "byteOffset": 54612,
      "componentType": 5126,
      "count": 3051,
      "max": [
        1.0,
        0.9872899651527405,
        0.999998927116394
      ],
      "min": [
        -1.0,
        -1.0,
        -0.999998927116394
      ],
      "type": "VEC3"
    },
    {
      "bufferView": 1,
      "byteOffset": 18000,
      "componentType": 5126,
      "count": 3051,
      "max": [
        0.9893285632133484,
        0.9999951720237732
      ],
      "min": [
        0.00019277632236480713,
        7.066875696182251e-05
      ],
      "type": "VEC2"
    },
    {
      "bufferView": 1,
      "byteOffset": 42408,
      "componentType": 5126,
      "count": 3051,
      "max": [
        0.9893285632133484,
        0.9999951720237732
      ],
      "min": [
        0.00019277632236480713,
        7.066875696182251e-05
      ],
      "type": "VEC2"
    },
    {
      "bufferView": 1,
      "byteOffset": 66816,
      "componentType": 5126,
      "count": 3051,
      "max": [
        0.9893285632133484,
        0.9999951720237732
      ],
      "min": [
        0.00019277632236480713,
        7.066875696182251e-05
      ],
      "type": "VEC2"
    },
    {
      "bufferView": 0,
      "byteOffset": 14592,
      "componentType": 5125,
      "count": 16746,
      "type": "SCALAR"
    },
    {
      "bufferView": 2,
      "byteOffset": 91224,
      "componentType": 5126,
      "count": 452,
      "max": [
        226.76773071289063,
        130.57752990722656,
        210.0126953125
      ],
      "min": [
        152.53921508789063,
        5.55867862701416,
        200.1219482421875
      ],
      "type": "VEC3"
    },
    {
      "bufferView": 2,
      "byteOffset": 96648,
      "componentType": 5126,
      "count": 452,
      "max": [
        0.9943356513977051,
        0.9996176362037659,
        1.0
      ],
      "min": [
        -0.9975612163543701,
        -0.9945157766342163,
        -0.9781476855278015
      ],
      "type": "VEC3"
    },
    {
      "bufferView": 1,
      "byteOffset": 91224,
      "componentType": 5126,
      "count": 452,
      "max": [
        0.8281464576721191,
        0.999885082244873
      ],
      "min": [
        5.2735209465026855e-05,
        0.00011500716209411621
      ],
      "type": "VEC2"
    },
    {
      "bufferView": 1,
      "byteOffset": 94840,
      "componentType": 5126,
      "count": 452,
      "max": [
        0.8281464576721191,
        0.999885082244873
      ],
      "min": [
        5.2735209465026855e-05,
        0.00011500716209411621
      ],
      "type": "VEC2"
    },
    {
      "bufferView": 1,
      "byteOffset": 98456,
      "componentType": 5126,
      "count": 452,
      "max": [
        0.8281464576721191,
        0.999885082244873
      ],
      "min": [
        5.2735209465026855e-05,
        0.00011500716209411621
      ],
      "type": "VEC2"
    },
    {
      "bufferView": 0,
      "byteOffset": 81576,
      "componentType": 5125,
      "count": 2340,
      "type": "SCALAR"
    },
    {
      "bufferView": 2,
      "byteOffset": 102072,
      "componentType": 5126,
      "count": 266,
      "max": [
        421.2726745605469,
        184.6510009765625,
        210.0126953125
      ],
      "min": [
        246.87994384765625,
        174.70559692382813,
        200.12196350097656
      ],
      "type": "VEC3"
    },
    {
      "bufferView": 2,
      "byteOffset": 105264,
      "componentType": 5126,
      "count": 266,
      "max": [
        1.0,
        0.9945219159126282,
        1.0
      ],
      "min": [
        -1.0,
        -0.9945219159126282,
        -0.9781476259231567
      ],
      "type": "VEC3"
    },
    {
      "bufferView": 1,
      "byteOffset": 102072,
      "componentType": 5126,
      "count": 266,
      "max": [
        0.9999011158943176,
        0.27982252836227417
      ],
      "min": [
        9.879842400550842e-05,
        0.00010244548320770264
      ],
      "type": "VEC2"
    },
    {
      "bufferView": 1,
      "byteOffset": 104200,
      "componentType": 5126,
      "count": 266,
      "max": [
        0.9999011158943176,
        0.27982252836227417
      ],
      "min": [
        9.879842400550842e-05,
        0.00010244548320770264
      ],
      "type": "VEC2"
    },
    {
      "bufferView": 1,
      "byteOffset": 106328,
      "componentType": 5126,
      "count": 266,
      "max": [
        0.9999011158943176,
        0.27982252836227417
      ],
      "min": [
        9.879842400550842e-05,
        0.00010244548320770264
      ],
      "type": "VEC2"
    },
    {
      "bufferView": 0,
      "byteOffset": 90936,
      "componentType": 5125,
      "count": 1260,
      "type": "SCALAR"
    },
    {
      "bufferView": 2,
      "byteOffset": 108456,
      "componentType": 5126,
      "count": 15010,
      "max": [
        0.49824249744415283,
        0.49381667375564575,
        0.23058851063251495
      ],
      "min": [
        -0.4915353059768677,
        -0.482452929019928,
        -0.23058851063251495
      ],
      "type": "VEC3"
    },
    {
      "bufferView": 2,
      "byteOffset": 288576,
      "componentType": 5126,
      "count": 15010,
      "max": [
        0.9999268651008606,
        1.0,
        1.0
      ],
      "min": [
        -0.9997367858886719,
        -1.0,
        -1.0
      ],
      "type": "VEC3"
    },
    {
      "bufferView": 1,
      "byteOffset": 108456,
      "componentType": 5126,
      "count": 15010,
      "max": [
        0.9999793767929077,
        0.752665102481842
      ],
      "min": [
        2.6628986233845353e-05,
        5.130469799041748e-05
      ],
      "type": "VEC2"
    },
    {
      "bufferView": 1,
      "byteOffset": 228536,
      "componentType": 5126,
      "count": 15010,
      "max": [
        0.9999793767929077,
        0.752665102481842
      ],
      "min": [
        2.6628986233845353e-05,
        5.130469799041748e-05
      ],
      "type": "VEC2"
    },
    {
      "bufferView": 1,
      "byteOffset": 348616,
      "componentType": 5126,
      "count": 15010,
      "max": [
        0.9999793767929077,
        0.752665102481842
      ],
      "min": [
        2.6628986233845353e-05,
        5.130469799041748e-05
      ],
      "type": "VEC2"
    },
    {
      "bufferView": 0,
      "byteOffset": 95976,
      "componentType": 5125,
      "count": 86562,
      "type": "SCALAR"
    }
  ],
  "asset": {
    "extras": {
      "author": "normajanethmr (https://sketchfab.com/normajanethmr)",
      "license": "CC-BY-4.0 (http://creativecommons.org/licenses/by/4.0/)",
      "source": "https://sketchfab.com/3d-models/spongebob-draw-7e77932787364f4eb9ef722beeb37af8",
      "title": "Spongebob Draw"
    },
    "generator": "Sketchfab-13.28.0",
    "version": "2.0"
  },
  "bufferViews": [
    {
      "buffer": 0,
      "byteLength": 442224,
      "name": "floatBufferViews",
      "target": 34963
    },
    {
      "buffer": 0,
      "byteLength": 468696,
      "byteOffset": 442224,
      "byteStride": 8,
      "name": "floatBufferViews",
      "target": 34962
    },
    {
      "buffer": 0,
      "byteLength": 468696,
      "byteOffset": 910920,
      "byteStride": 12,
      "name": "floatBufferViews",
      "target": 34962
    }
  ],
  "buffers": [
    {
      "byteLength": 1379616,
      "uri": "scene.bin"
    }
  ],
  "extensionsRequired": [
    "KHR_materials_pbrSpecularGlossiness"
  ],
  "extensionsUsed": [
    "KHR_materials_pbrSpecularGlossiness"
  ],
  "images": [
    {
      "uri": "textures/material_0_diffuse.png"
    },
    {
      "uri": "textures/material_0_specularGlossiness.png"
    },
    {
      "uri": "textures/material_1_diffuse.png"
    },
    {
      "uri": "textures/material_1_specularGlossiness.png"
    },
    {
      "uri": "textures/material_2_diffuse.png"
    },
    {
      "uri": "textures/material_2_specularGlossiness.png"
    },
    {
      "uri": "textures/material_3_diffuse.png"
    },
    {
      "uri": "textures/material_3_specularGlossiness.png"
    },
    {
      "uri": "textures/material_4_diffuse.png"
    },
    {
      "uri": "textures/material_4_specularGlossiness.png"
    }
  ],
  "materials": [
    {
      "doubleSided": true,
      "extensions": {
        "KHR_materials_pbrSpecularGlossiness": {
          "diffuseFactor": [
            1.0,
            1.0,
            1.0,
            1.0
          ],
          "diffuseTexture": {
            "index": 0
          },
          "glossinessFactor": 1.0,
          "specularFactor": [
            1.0,
            1.0,
            1.0
          ],
          "specularGlossinessTexture": {
            "index": 1
          }
        }
      },
      "name": "material_0"
    },
    {
      "doubleSided": true,
      "extensions": {
        "KHR_materials_pbrSpecularGlossiness": {
          "diffuseFactor": [
            1.0,
            1.0,
            1.0,
            1.0
          ],
          "diffuseTexture": {
            "index": 2
          },
          "glossinessFactor": 1.0,
          "specularFactor": [
            1.0,
            1.0,
            1.0
          ],
          "specularGlossinessTexture": {
            "index": 3
          }
        }
      },
      "name": "material_1"
    },
    {
      "doubleSided": true,
      "extensions": {
        "KHR_materials_pbrSpecularGlossiness": {
          "diffuseFactor": [
            1.0,
            1.0,
            1.0,
            1.0
          ],
          "diffuseTexture": {
            "index": 4
          },
          "glossinessFactor": 1.0,
          "specularFactor": [
            1.0,
            1.0,
            1.0
          ],
          "specularGlossinessTexture": {
            "index": 5
          }
        }
      },
      "name": "material_2"
    },
    {
      "doubleSided": true,
      "extensions": {
        "KHR_materials_pbrSpecularGlossiness": {
          "diffuseFactor": [
            1.0,
            1.0,
            1.0,
            1.0
          ],
          "diffuseTexture": {
            "index": 6
          },
          "glossinessFactor": 1.0,
          "specularFactor": [
            1.0,
            1.0,
            1.0
          ],
          "specularGlossinessTexture": {
            "index": 7
          }
        }
      },
      "name": "material_3"
    },
    {
      "doubleSided": true,
      "extensions": {
        "KHR_materials_pbrSpecularGlossiness": {
          "diffuseFactor": [
            1.0,
            1.0,
            1.0,
            1.0
          ],
          "diffuseTexture": {
            "index": 8
          },
          "glossinessFactor": 1.0,
          "specularFactor": [
            1.0,
            1.0,
            1.0
          ],
          "specularGlossinessTexture": {
            "index": 9
          }
        }
      },
      "name": "material_4"
    }
  ],
  "meshes": [
    {
      "name": "Object_0",
      "primitives": [
        {
          "attributes": {
            "NORMAL": 1,
            "POSITION": 0,
            "TEXCOORD_0": 2,
            "TEXCOORD_1": 3,
            "TEXCOORD_2": 4
          },
          "indices": 5,
          "material": 0,
          "mode": 4
        }
      ]
    },
    {
      "name": "Object_1",
      "primitives": [
        {
          "attributes": {
            "NORMAL": 7,
            "POSITION": 6,
            "TEXCOORD_0": 8,
            "TEXCOORD_1": 9,
            "TEXCOORD_2": 10
          },
          "indices": 11,
          "material": 1,
          "mode": 4
        }
      ]
    },
    {
      "name": "Object_2",
      "primitives": [
        {
          "attributes": {
            "NORMAL": 13,
            "POSITION": 12,
            "TEXCOORD_0": 14,
            "TEXCOORD_1": 15,
            "TEXCOORD_2": 16
          },
          "indices": 17,
          "material": 2,
          "mode": 4
        }
      ]
    },
    {
      "name": "Object_3",
      "primitives": [
        {
          "attributes": {
            "NORMAL": 19,
            "POSITION": 18,
            "TEXCOORD_0": 20,
            "TEXCOORD_1": 21,
            "TEXCOORD_2": 22
          },
          "indices": 23,
          "material": 3,
          "mode": 4
        }
      ]
    },
    {
      "name": "Object_4",
      "primitives": [
        {
          "attributes": {
            "NORMAL": 25,
            "POSITION": 24,
            "TEXCOORD_0": 26,
            "TEXCOORD_1": 27,
            "TEXCOORD_2": 28
          },
          "indices": 29,
          "material": 1,
          "mode": 4
        }
      ]
    },
    {
      "name": "Object_5",
      "primitives": [
        {
          "attributes": {
            "NORMAL": 31,
            "POSITION": 30,
            "TEXCOORD_0": 32,
            "TEXCOORD_1": 33,
            "TEXCOORD_2": 34
          },
          "indices": 35,
          "material": 2,
          "mode": 4
        }
      ]
    },
    {
      "name": "Object_6",
      "primitives": [
        {
          "attributes": {
            "NORMAL": 37,
            "POSITION": 36,
            "TEXCOORD_0": 38,
            "TEXCOORD_1": 39,
            "TEXCOORD_2": 40
          },
          "indices": 41,
          "material": 4,
          "mode": 4
        }
      ]
    }
  ],
  "nodes": [
    {
      "children": [
        1
      ],
      "matrix": [
        1.0,
        0.0,
        0.0,
        0.0,
        0.0,
        2.220446049250313e-16,
        -1.0,
        0.0,
        0.0,
        1.0,
        2.220446049250313e-16,
        0.0,
        0.0,
        0.0,
        0.0,
        1.0
      ],
      "name": "Sketchfab_model"
    },
    {
      "children": [
        2
      ],
      "name": "root"
    },
    {
      "children": [
        3
      ],
      "matrix": [
        1.0,
        0.0,
        0.0,
        0.0,
        0.0,
        2.220446049250313e-16,
        1.0,
        0.0,
        0.0,
        -1.0,
        2.220446049250313e-16,
        0.0,
        0.0,
        0.0,
        0.0,
        1.0
      ],
      "name": "GLTF_SceneRootNode"
    },
    {
      "children": [
        4
      ],
      "name": "root_0"
    },
    {
      "children": [
        5,
        7,
        9,
        11,
        13,
        15,
        17
      ],
      "matrix": [
        0.0010000000474974513,
        0.0,
        0.0,
        0.0,
        0.0,
        0.0010000000474974513,
        0.0,
        0.0,
        0.0,
        0.0,
        0.0010000000474974513,
        0.0,
        -0.001898307935334742,
        -0.04355068504810333,
        2.136230534688366e-07,
        1.0
      ],
      "name": "node_id3_1"
    },
    {
      "children": [
        6
      ],
      "matrix": [
        205.87814331054358,
        0.0,
        -3.681388372283042e-05,
        0.0,
        0.0,
        275.9841613769531,
        0.0,
        0.0,
        2.2300602221235753e-05,
        0.0,
        124.71399688720504,
        0.0,
        -24.661834716796875,
        66.46160125732422,
        199.99050903320313,
        1.0
      ],
      "name": "_2"
    },
    {
      "mesh": 0,
      "name": "Object_6"
    },
    {
      "children": [
        8
      ],
      "matrix": [
        0.6870377659797559,
        -0.0,
        -1.2285193572889877e-07,
        0.0,
        0.0,
        0.6870378255844116,
        0.0,
        0.0,
        1.2285193572889877e-07,
        0.0,
        0.6870377659797559,
        0.0,
        -200.47935485839844,
        -142.42031860351563,
        61.89375305175781,
        1.0
      ],
      "name": "_3"
    },
    {
      "mesh": 1,
      "name": "Object_8"
    },
    {
      "children": [
        10
      ],
      "matrix": [
        0.8686923599660091,
        0.49535149833139114,
        6.556510294703914e-07,
        0.0,
        -0.4953516164325262,
        0.8686925670786434,
        7.451473170844825e-14,
        0.0,
        -5.695591050390274e-07,
        -3.2477784263591267e-07,
        0.9999997019765612,
        0.0,
        -359.4568786621094,
        -275.1444396972656,
        -2.864166259765625,
        1.0
      ],
      "name": "_4"
    },
    {
      "mesh": 2,
      "name": "Object_10"
    },
    {
      "children": [
        12
      ],
      "matrix": [
        58.59445489696723,
        25.21908055250133,
        5.5752997969280074e-05,
        0.0,
        -11.843997104838532,
        27.518550992147837,
        3.2325043438249455e-06,
        0.0,
        -2.745087277767722e-05,
        -1.6056935815948394e-05,
        36.113037109360995,
        0.0,
        -202.25863647460938,
        11.100173950195313,
        202.06640625,
        1.0
      ],
      "name": "_5"
    },
    {
      "mesh": 3,
      "name": "Object_12"
    },
    {
      "children": [
        14
      ],
      "matrix": [
        -0.6870377659797559,
        0.0,
        -1.2285193572889877e-07,
        -0.0,
        0.0,
        0.6870378255844116,
        0.0,
        0.0,
        -1.2285193572889877e-07,
        0.0,
        0.6870377659797559,
        0.0,
        154.80648803710938,
        -142.43319702148438,
        61.89375305175781,
        1.0
      ],
      "name": "_6"
    },
    {
      "mesh": 4,
      "name": "Object_14"
    },
    {
      "children": [
        16
      ],
      "matrix": [
        -0.868692463522342,
        0.495351557381966,
        4.2495931914289407e-07,
        -0.0,
        0.4953516754830416,
        0.8686926706348664,
        6.518944727841572e-09,
        0.0,
        3.659297891895159e-07,
        -2.1616721736646984e-07,
        0.9999997615813306,
        0.0,
        303.0436096191406,
        -275.1188049316406,
        0.1750946044921875,
        1.0
      ],
      "name": "_7"
    },
    {
      "mesh": 5,
      "name": "Object_16"
    },
    {
      "children": [
        18
      ],
      "matrix": [
        34.78906392857896,
        45.600248260053775,
        5.758409960300465e-06,
        0.0,
        -35.15853430940862,
        26.82293505837392,
        4.5231694341483967e-07,
        0.0,
        -1.8426549412335813e-06,
        -3.00417852768228e-06,
        34.92205810546857,
        0.0,
        183.0638427734375,
        -7.811809539794922,
        206.0927734375,
        1.0
      ],
      "name": "_8"
    },
    {
      "mesh": 6,
      "name": "Object_18"
    }
  ],
  "samplers": [
    {
      "magFilter": 9729,
      "minFilter": 9987,
      "wrapS": 10497,
      "wrapT": 10497
    }
  ],
  "scene": 0,
  "scenes": [
    {
      "name": "Sketchfab_Scene",
      "nodes": [
        0
      ]
    }
  ],
  "textures": [
    {
      "sampler": 0,
      "source": 0
    },
    {
      "sampler": 0,
      "source": 1
    },
    {
      "sampler": 0,
      "source": 2
    },
    {
      "sampler": 0,
      "source": 3
    },
    {
      "sampler": 0,
      "source": 4
    },
    {
      "sampler": 0,
      "source": 5
    },
    {
      "sampler": 0,
      "source": 6
    },
    {
      "sampler": 0,
      "source": 7
    },
    {
      "sampler": 0,
      "source": 8
    },
    {
      "sampler": 0,
      "source": 9
    }
  ]
}
