{
  "accessors": [
    {
      "bufferView": 2,
      "componentType": 5126,
      "count": 1362,
      "max": [
        16.0856990814209,
        13.398300170898438,
        14.183099746704102
      ],
      "min": [
        -16.071300506591797,
        7.292699813842773,
        -16.793102264404297
      ],
      "type": "VEC3"
    },
    {
      "bufferView": 2,
      "byteOffset": 16344,
      "componentType": 5126,
      "count": 1362,
      "max": [
        0.9941856265068054,
        1.0,
        0.9986879825592041
      ],
      "min": [
        -0.9999967813491821,
        -1.0,
        -0.9996166229248047
      ],
      "type": "VEC3"
    },
    {
      "bufferView": 1,
      "componentType": 5126,
      "count": 1362,
      "max": [
        2.989000082015991,
        2.9999001026153564
      ],
      "min": [
        0.23919999599456787,
        1.3371000289916992
      ],
      "type": "VEC2"
    },
    {
      "bufferView": 1,
      "byteOffset": 10896,
      "componentType": 5126,
      "count": 1362,
      "max": [
        2.989000082015991,
        2.9999001026153564
      ],
      "min": [
        0.23919999599456787,
        1.3371000289916992
      ],
      "type": "VEC2"
    },
    {
      "bufferView": 1,
      "byteOffset": 21792,
      "componentType": 5126,
      "count": 1362,
      "max": [
        2.989000082015991,
        2.9999001026153564
      ],
      "min": [
        0.23919999599456787,
        1.3371000289916992
      ],
      "type": "VEC2"
    },
    {
      "bufferView": 1,
      "byteOffset": 32688,
      "componentType": 5126,
      "count": 1362,
      "max": [
        2.989000082015991,
        2.9999001026153564
      ],
      "min": [
        0.23919999599456787,
        1.3371000289916992
      ],
      "type": "VEC2"
    },
    {
      "bufferView": 1,
      "byteOffset": 43584,
      "componentType": 5126,
      "count": 1362,
      "max": [
        2.989000082015991,
        2.9999001026153564
      ],
      "min": [
        0.23919999599456787,
        1.3371000289916992
      ],
      "type": "VEC2"
    },
    {
      "bufferView": 1,
      "byteOffset": 54480,
      "componentType": 5126,
      "count": 1362,
      "max": [
        2.989000082015991,
        2.9999001026153564
      ],
      "min": [
        0.23919999599456787,
        1.3371000289916992
      ],
      "type": "VEC2"
    },
    {
      "bufferView": 1,
      "byteOffset": 65376,
      "componentType": 5126,
      "count": 1362,
      "max": [
        2.989000082015991,
        2.9999001026153564
      ],
      "min": [
        0.23919999599456787,
        1.3371000289916992
      ],
      "type": "VEC2"
    },
    {
      "bufferView": 1,
      "byteOffset": 76272,
      "componentType": 5126,
      "count": 1362,
      "max": [
        2.989000082015991,
        2.9999001026153564
      ],
      "min": [
        0.23919999599456787,
        1.3371000289916992
      ],
      "type": "VEC2"
    },
    {
      "bufferView": 1,
      "byteOffset": 87168,
      "componentType": 5126,
      "count": 1362,
      "max": [
        2.989000082015991,
        2.9999001026153564
      ],
      "min": [
        0.23919999599456787,
        1.3371000289916992
      ],
      "type": "VEC2"
    },
    {
      "bufferView": 1,
      "byteOffset": 98064,
      "componentType": 5126,
      "count": 1362,
      "max": [
        2.989000082015991,
        2.9999001026153564
      ],
      "min": [
        0.23919999599456787,
        1.3371000289916992
      ],
      "type": "VEC2"
    },
    {
      "bufferView": 0,
      "componentType": 5125,
      "count": 4494,
      "type": "SCALAR"
    }
  ],
  "asset": {
    "extras": {
      "author": "gemmygod (https://sketchfab.com/gemmygod)",
      "license": "CC-BY-4.0 (http://creativecommons.org/licenses/by/4.0/)",
      "source": "https://sketchfab.com/3d-models/battle-for-bikini-bottom-robots-g-love-a00eb78f80d94d75be7cf1bf8e5129a4",
      "title": "Battle For Bikini Bottom Robots - G- Love"
    },
    "generator": "Sketchfab-12.68.0",
    "version": "2.0"
  },
  "bufferViews": [
    {
      "buffer": 0,
      "byteLength": 17976,
      "name": "floatBufferViews",
      "target": 34963
    },
    {
      "buffer": 0,
      "byteLength": 108960,
      "byteOffset": 17976,
      "byteStride": 8,
      "name": "floatBufferViews",
      "target": 34962
    },
    {
      "buffer": 0,
      "byteLength": 32688,
      "byteOffset": 126936,
      "byteStride": 12,
      "name": "floatBufferViews",
      "target": 34962
    }
  ],
  "buffers": [
    {
      "byteLength": 159624,
      "uri": "scene.bin"
    }
  ],
  "images": [
    {
      "uri": "textures/Material_49_baseColor.png"
    }
  ],
  "materials": [
    {
      "doubleSided": true,
      "name": "Material_49",
      "pbrMetallicRoughness": {
        "baseColorTexture": {
          "index": 0
        },
        "metallicFactor": 0.0
      }
    }
  ],
  "meshes": [
    {
      "name": "node_id3_Material_49_0",
      "primitives": [
        {
          "attributes": {
            "NORMAL": 1,
            "POSITION": 0,
            "TEXCOORD_0": 2,
            "TEXCOORD_1": 3,
            "TEXCOORD_2": 4,
            "TEXCOORD_3": 5,
            "TEXCOORD_4": 6,
            "TEXCOORD_5": 7,
            "TEXCOORD_6": 8,
            "TEXCOORD_7": 9,
            "TEXCOORD_8": 10,
            "TEXCOORD_9": 11
          },
          "indices": 12,
          "material": 0,
          "mode": 4
        }
      ]
    }
  ],
  "nodes": [
    {
      "children": [
        1
      ],
      "matrix": [
        1.0,
        0.0,
        0.0,
        0.0,
        0.0,
        2.220446049250313e-16,
        -1.0,
        0.0,
        0.0,
        1.0,
        2.220446049250313e-16,
        0.0,
        0.0,
        0.0,
        0.0,
        1.0
      ],
      "name": "Sketchfab_model"
    },
    {
      "children": [
        2
      ],
      "matrix": [
        1.0,
        0.0,
        0.0,
        0.0,
        0.0,
        0.0,
        1.0,
        0.0,
        0.0,
        -1.0,
        0.0,
        0.0,
        0.0,
        0.0,
        0.0,
        1.0
      ],
      "name": "a9d0152443574cc89d703f1e7af61f65.fbx"
    },
    {
      "children": [
        3
      ],
      "name": "RootNode"
    },
    {
      "children": [
        4
      ],
      "name": "root"
    },
    {
      "children": [
        5
      ],
      "matrix": [
        0.01592188887298107,
        0.0,
        0.0,
        0.0,
        0.0,
        0.01592188887298107,
        0.0,
        0.0,
        0.0,
        0.0,
        0.01592188887298107,
        0.0,
        -0.0001146262584370561,
        -0.16471990942955017,
        0.2767781615257263,
        1.0
      ],
      "name": "node_id3"
    },
    {
      "mesh": 0,
      "name": "node_id3_Material_49_0"
    }
  ],
  "samplers": [
    {
      "magFilter": 9729,
      "minFilter": 9987,
      "wrapS": 10497,
      "wrapT": 10497
    }
  ],
  "scene": 0,
  "scenes": [
    {
      "name": "Sketchfab_Scene",
      "nodes": [
        0
      ]
    }
  ],
  "textures": [
    {
      "sampler": 0,
      "source": 0
    }
  ]
}
