{
  "accessors": [
    {
      "bufferView": 2,
      "componentType": 5126,
      "count": 5303,
      "max": [
        -1817.27001953125,
        -276.9639892578125,
        95.4656982421875
      ],
      "min": [
        -1875.4300537109375,
        -327.1919860839844,
        19.43899917602539
      ],
      "type": "VEC3"
    },
    {
      "bufferView": 2,
      "byteOffset": 63636,
      "componentType": 5126,
      "count": 5303,
      "max": [
        0.9995043277740479,
        0.9999690055847168,
        1.0
      ],
      "min": [
        -0.9995043277740479,
        -0.9998760223388672,
        -1.0
      ],
      "type": "VEC3"
    },
    {
      "bufferView": 1,
      "componentType": 5126,
      "count": 5303,
      "max": [
        1.9172699451446533,
        1.782289981842041
      ],
      "min": [
        -1.214859962463379,
        -1.1895099878311157
      ],
      "type": "VEC2"
    },
    {
      "bufferView": 0,
      "componentType": 5125,
      "count": 24846,
      "type": "SCALAR"
    },
    {
      "bufferView": 2,
      "byteOffset": 127272,
      "componentType": 5126,
      "count": 2218,
      "max": [
        -1822.9599609375,
        -278.46600341796875,
        64.57510375976563
      ],
      "min": [
        -1870.18994140625,
        -325.7170104980469,
        19.371200561523438
      ],
      "type": "VEC3"
    },
    {
      "bufferView": 2,
      "byteOffset": 153888,
      "componentType": 5126,
      "count": 2218,
      "max": [
        0.9999380111694336,
        0.9998760223388672,
        1.0
      ],
      "min": [
        -0.9987623691558838,
        -0.9993805885314941,
        -1.0
      ],
      "type": "VEC3"
    },
    {
      "bufferView": 1,
      "byteOffset": 42424,
      "componentType": 5126,
      "count": 2218,
      "max": [
        2.733520030975342,
        2.318470001220703
      ],
      "min": [
        -1.736680030822754,
        -1.0849000215530396
      ],
      "type": "VEC2"
    },
    {
      "bufferView": 0,
      "byteOffset": 99384,
      "componentType": 5125,
      "count": 12288,
      "type": "SCALAR"
    },
    {
      "bufferView": 2,
      "byteOffset": 180504,
      "componentType": 5126,
      "count": 4374,
      "max": [
        -1828.47998046875,
        -277.989990234375,
        115.70500183105469
      ],
      "min": [
        -1862.7900390625,
        -315.2070007324219,
        19.45319938659668
      ],
      "type": "VEC3"
    },
    {
      "bufferView": 2,
      "byteOffset": 232992,
      "componentType": 5126,
      "count": 4374,
      "max": [
        0.9999690055847168,
        0.9992258548736572,
        1.0
      ],
      "min": [
        -0.9999690055847168,
        -0.999721109867096,
        -1.0
      ],
      "type": "VEC3"
    },
    {
      "bufferView": 1,
      "byteOffset": 60168,
      "componentType": 5126,
      "count": 4374,
      "max": [
        0.9970700144767761,
        0.997501015663147
      ],
      "min": [
        0.002498629968613386,
        0.00292969006113708
      ],
      "type": "VEC2"
    },
    {
      "bufferView": 0,
      "byteOffset": 148536,
      "componentType": 5125,
      "count": 19587,
      "type": "SCALAR"
    }
  ],
  "asset": {
    "extras": {
      "author": "SMF Friends Fan 2024 YouTube Live (https://sketchfab.com/cherylhill28)",
      "license": "CC-BY-4.0 (http://creativecommons.org/licenses/by/4.0/)",
      "source": "https://sketchfab.com/3d-models/bfbbr-chum-bucket-3e4139e9525340bfb5a8bc957606459e",
      "title": "BFBBR - Chum Bucket"
    },
    "generator": "Sketchfab-16.56.0",
    "version": "2.0"
  },
  "bufferViews": [
    {
      "buffer": 0,
      "byteLength": 226884,
      "name": "floatBufferViews",
      "target": 34963
    },
    {
      "buffer": 0,
      "byteLength": 95160,
      "byteOffset": 226884,
      "byteStride": 8,
      "name": "floatBufferViews",
      "target": 34962
    },
    {
      "buffer": 0,
      "byteLength": 285480,
      "byteOffset": 322044,
      "byteStride": 12,
      "name": "floatBufferViews",
      "target": 34962
    }
  ],
  "buffers": [
    {
      "byteLength": 607524,
      "uri": "scene.bin"
    }
  ],
  "images": [
    {
      "uri": "textures/DarkMetal1Mtl_baseColor.png"
    },
    {
      "uri": "textures/LightMetal1Mtl_baseColor.png"
    },
    {
      "uri": "textures/Misc1Mtl_baseColor.png"
    }
  ],
  "materials": [
    {
      "doubleSided": true,
      "name": "DarkMetal1Mtl",
      "pbrMetallicRoughness": {
        "baseColorTexture": {
          "index": 0
        },
        "metallicFactor": 0.0
      }
    },
    {
      "doubleSided": true,
      "name": "LightMetal1Mtl",
      "pbrMetallicRoughness": {
        "baseColorTexture": {
          "index": 1
        },
        "metallicFactor": 0.0
      }
    },
    {
      "doubleSided": true,
      "name": "Misc1Mtl",
      "pbrMetallicRoughness": {
        "baseColorTexture": {
          "index": 2
        },
        "metallicFactor": 0.0
      }
    }
  ],
  "meshes": [
    {
      "name": "Object_0",
      "primitives": [
        {
          "attributes": {
            "NORMAL": 1,
            "POSITION": 0,
            "TEXCOORD_0": 2
          },
          "indices": 3,
          "material": 0,
          "mode": 4
        }
      ]
    },
    {
      "name": "Object_1",
      "primitives": [
        {
          "attributes": {
            "NORMAL": 5,
            "POSITION": 4,
            "TEXCOORD_0": 6
          },
          "indices": 7,
          "material": 1,
          "mode": 4
        }
      ]
    },
    {
      "name": "Object_2",
      "primitives": [
        {
          "attributes": {
            "NORMAL": 9,
            "POSITION": 8,
            "TEXCOORD_0": 10
          },
          "indices": 11,
          "material": 2,
          "mode": 4
        }
      ]
    }
  ],
  "nodes": [
    {
      "children": [
        1
      ],
      "matrix": [
        -1.0,
        -6.290011496532519e-32,
        2.832769343193999e-16,
        0.0,
        2.832769343193999e-16,
        -2.220446049250313e-16,
        1.0,
        0.0,
        0.0,
        1.0,
        2.220446049250313e-16,
        0.0,
        0.0,
        0.0,
        0.0,
        1.0
      ],
      "name": "Sketchfab_model"
    },
    {
      "children": [
        2,
        3,
        4
      ],
      "name": "CB.obj.cleaner.materialmerger.gles"
    },
    {
      "mesh": 0,
      "name": "Object_2"
    },
    {
      "mesh": 1,
      "name": "Object_3"
    },
    {
      "mesh": 2,
      "name": "Object_4"
    }
  ],
  "samplers": [
    {
      "magFilter": 9729,
      "minFilter": 9987,
      "wrapS": 10497,
      "wrapT": 10497
    }
  ],
  "scene": 0,
  "scenes": [
    {
      "name": "Sketchfab_Scene",
      "nodes": [
        0
      ]
    }
  ],
  "textures": [
    {
      "sampler": 0,
      "source": 0
    },
    {
      "sampler": 0,
      "source": 1
    },
    {
      "sampler": 0,
      "source": 2
    }
  ]
}
