{
	"asset":{
		"generator":"Khronos glTF Blender I/O v4.2.70",
		"version":"2.0"
	},
	"scene":0,
	"scenes":[
		{
			"name":"Scene",
			"nodes":[
				11
			]
		}
	],
	"nodes":[
		{
			"name":"Object_4",
			"translation":[
				-1.52587890625e-05,
				-5.340576171875e-05,
				-2.765655517578125e-05
			]
		},
		{
			"children":[
				0
			],
			"name":"CINEMA_4D_Editor",
			"rotation":[
				-0.13547883927822113,
				0.8628104329109192,
				-0.07554886490106583,
				0.4811403453350067
			],
			"translation":[
				404.5093994140625,
				475.8751525878906,
				781.7498168945312
			]
		},
		{
			"name":"Capsule_1",
			"rotation":[
				0.7048400044441223,
				-0.056573886424303055,
				0.05657389014959335,
				0.7048400044441223
			],
			"translation":[
				-108.71497344970703,
				94.80050659179688,
				4.878116130828857
			]
		},
		{
			"children":[
				2
			],
			"name":"Subdivision_Surface"
		},
		{
			"name":"Capsule",
			"rotation":[
				0.704839825630188,
				0.05657535046339035,
				-0.056575339287519455,
				0.7048398852348328
			],
			"translation":[
				109.58309936523438,
				94.8005142211914,
				-2.0477778911590576
			]
		},
		{
			"children":[
				4
			],
			"name":"Subdivision_Surface_1"
		},
		{
			"mesh":0,
			"name":"Torus_Mat_0",
			"translation":[
				0,
				-2.5797635316848755e-06,
				0
			]
		},
		{
			"mesh":1,
			"name":"Torus_Mat_0.001",
			"translation":[
				0,
				-2.5797635316848755e-06,
				0
			]
		},
		{
			"children":[
				6,
				7
			],
			"name":"Torus",
			"translation":[
				0,
				37.98410415649414,
				0
			]
		},
		{
			"children":[
				1,
				3,
				5,
				8
			],
			"name":"RootNode"
		},
		{
			"children":[
				9
			],
			"name":"ca05b5784ef749099dc61a894fe64b0a.fbx",
			"rotation":[
				0.70710688829422,
				0,
				0,
				0.7071066498756409
			]
		},
		{
			"children":[
				10
			],
			"name":"Sketchfab_model",
			"rotation":[
				0.48936888575553894,
				-0.5195073485374451,
				0.5153455138206482,
				0.4743936359882355
			],
			"scale":[
				0.30000001192092896,
				0.30000001192092896,
				0.30000001192092896
			]
		}
	],
	"materials":[
		{
			"doubleSided":true,
			"name":"Mat_0",
			"pbrMetallicRoughness":{
				"metallicFactor":0,
				"roughnessFactor":0.22002659738063812
			}
		},
		{
			"doubleSided":true,
			"name":"Mat_1",
			"pbrMetallicRoughness":{
				"baseColorFactor":[
					1,
					0,
					0,
					1
				],
				"metallicFactor":0,
				"roughnessFactor":0.18962569534778595
			}
		}
	],
	"meshes":[
		{
			"name":"Torus_Mat_0",
			"primitives":[
				{
					"attributes":{
						"POSITION":0,
						"NORMAL":1,
						"TEXCOORD_0":2
					},
					"indices":3,
					"material":0
				}
			]
		},
		{
			"name":"Torus_Mat_0.001",
			"primitives":[
				{
					"attributes":{
						"POSITION":4,
						"NORMAL":5,
						"TEXCOORD_0":6
					},
					"indices":7,
					"material":1
				}
			]
		}
	],
	"accessors":[
		{
			"bufferView":0,
			"componentType":5126,
			"count":473,
			"max":[
				156.33554077148438,
				36.748104095458984,
				156.33554077148438
			],
			"min":[
				-156.33554077148438,
				-36.748104095458984,
				-156.33554077148438
			],
			"type":"VEC3"
		},
		{
			"bufferView":1,
			"componentType":5126,
			"count":473,
			"type":"VEC3"
		},
		{
			"bufferView":2,
			"componentType":5126,
			"count":473,
			"type":"VEC2"
		},
		{
			"bufferView":3,
			"componentType":5123,
			"count":2016,
			"type":"SCALAR"
		},
		{
			"bufferView":4,
			"componentType":5126,
			"count":292,
			"max":[
				153.33160400390625,
				36.748104095458984,
				156.33554077148438
			],
			"min":[
				-144.43521118164062,
				-36.748104095458984,
				-145.57228088378906
			],
			"type":"VEC3"
		},
		{
			"bufferView":5,
			"componentType":5126,
			"count":292,
			"type":"VEC3"
		},
		{
			"bufferView":6,
			"componentType":5126,
			"count":292,
			"type":"VEC2"
		},
		{
			"bufferView":7,
			"componentType":5123,
			"count":1056,
			"type":"SCALAR"
		}
	],
	"bufferViews":[
		{
			"buffer":0,
			"byteLength":5676,
			"byteOffset":0,
			"target":34962
		},
		{
			"buffer":0,
			"byteLength":5676,
			"byteOffset":5676,
			"target":34962
		},
		{
			"buffer":0,
			"byteLength":3784,
			"byteOffset":11352,
			"target":34962
		},
		{
			"buffer":0,
			"byteLength":4032,
			"byteOffset":15136,
			"target":34963
		},
		{
			"buffer":0,
			"byteLength":3504,
			"byteOffset":19168,
			"target":34962
		},
		{
			"buffer":0,
			"byteLength":3504,
			"byteOffset":22672,
			"target":34962
		},
		{
			"buffer":0,
			"byteLength":2336,
			"byteOffset":26176,
			"target":34962
		},
		{
			"buffer":0,
			"byteLength":2112,
			"byteOffset":28512,
			"target":34963
		}
	],
	"buffers":[
		{
			"byteLength":30624,
			"uri":"scene.bin"
		}
	]
}
