{
	"asset":{
		"generator":"Khronos glTF Blender I/O v4.2.70",
		"version":"2.0"
	},
	"scene":0,
	"scenes":[
		{
			"name":"Scene",
			"nodes":[
				2
			]
		}
	],
	"nodes":[
		{
			"mesh":0,
			"name":"Object_2"
		},
		{
			"children":[
				0
			],
			"name":"4_ohieto_ushi.obj.cleaner.materialmerger.gles"
		},
		{
			"children":[
				1
			],
			"name":"Sketchfab_model",
			"rotation":[
				-0.70710688829422,
				0,
				0,
				0.7071066498756409
			]
		}
	],
	"materials":[
		{
			"doubleSided":true,
			"name":"Default",
			"normalTexture":{
				"index":0
			},
			"pbrMetallicRoughness":{
				"baseColorTexture":{
					"index":1
				},
				"metallicFactor":0,
				"roughnessFactor":0.5287728905677795
			}
		}
	],
	"meshes":[
		{
			"name":"Object_0",
			"primitives":[
				{
					"attributes":{
						"POSITION":0,
						"NORMAL":1,
						"TEXCOORD_0":2
					},
					"indices":3,
					"material":0
				}
			]
		}
	],
	"textures":[
		{
			"sampler":0,
			"source":0
		},
		{
			"sampler":0,
			"source":1
		}
	],
	"images":[
		{
			"mimeType":"image/png",
			"name":"Default_normal",
			"uri":"textures/Default_normal.png"
		},
		{
			"mimeType":"image/png",
			"name":"Default_baseColor",
			"uri":"textures/Default_baseColor.png"
		}
	],
	"accessors":[
		{
			"bufferView":0,
			"componentType":5126,
			"count":1946,
			"max":[
				47.74417495727539,
				39.956512451171875,
				52.3683967590332
			],
			"min":[
				-47.81922912597656,
				-48.28900146484375,
				-39.927886962890625
			],
			"type":"VEC3"
		},
		{
			"bufferView":1,
			"componentType":5126,
			"count":1946,
			"type":"VEC3"
		},
		{
			"bufferView":2,
			"componentType":5126,
			"count":1946,
			"type":"VEC2"
		},
		{
			"bufferView":3,
			"componentType":5123,
			"count":7434,
			"type":"SCALAR"
		}
	],
	"bufferViews":[
		{
			"buffer":0,
			"byteLength":23352,
			"byteOffset":0,
			"target":34962
		},
		{
			"buffer":0,
			"byteLength":23352,
			"byteOffset":23352,
			"target":34962
		},
		{
			"buffer":0,
			"byteLength":15568,
			"byteOffset":46704,
			"target":34962
		},
		{
			"buffer":0,
			"byteLength":14868,
			"byteOffset":62272,
			"target":34963
		}
	],
	"samplers":[
		{
			"magFilter":9729,
			"minFilter":9987
		}
	],
	"buffers":[
		{
			"byteLength":77140,
			"uri":"scene.bin"
		}
	]
}
