{
  "accessors": [
    {
      "bufferView": 2,
      "componentType": 5126,
      "count": 597,
      "max": [
        0.9797906875610352,
        1.1281276941299438,
        2.0782599449157715
      ],
      "min": [
        -1.1709535121917725,
        -1.1123731136322021,
        -1.5362274646759033
      ],
      "type": "VEC3"
    },
    {
      "bufferView": 2,
      "byteOffset": 7164,
      "componentType": 5126,
      "count": 597,
      "max": [
        1.0,
        1.0,
        1.0
      ],
      "min": [
        -1.0,
        -1.0,
        -0.7934938669204712
      ],
      "type": "VEC3"
    },
    {
      "bufferView": 1,
      "componentType": 5126,
      "count": 597,
      "max": [
        0.9994503259658813,
        0.999184787273407
      ],
      "min": [
        0.002035267651081085,
        0.0007876846939325333
      ],
      "type": "VEC2"
    },
    {
      "bufferView": 0,
      "componentType": 5125,
      "count": 786,
      "type": "SCALAR"
    },
    {
      "bufferView": 2,
      "byteOffset": 14328,
      "componentType": 5126,
      "count": 132,
      "max": [
        0.1872742623090744,
        1.8395885229110718,
        1.7789068222045898
      ],
      "min": [
        -0.5306376814842224,
        -1.7860150337219238,
        -1.7669334411621094
      ],
      "type": "VEC3"
    },
    {
      "bufferView": 2,
      "byteOffset": 15912,
      "componentType": 5126,
      "count": 132,
      "max": [
        1.0,
        0.9999996423721313,
        0.9973557591438293
      ],
      "min": [
        -1.0,
        -1.0,
        -0.9987870454788208
      ],
      "type": "VEC3"
    },
    {
      "bufferView": 1,
      "byteOffset": 4776,
      "componentType": 5126,
      "count": 132,
      "max": [
        0.9889104962348938,
        0.9908627867698669
      ],
      "min": [
        0.0012835301458835602,
        0.0011932328343391418
      ],
      "type": "VEC2"
    },
    {
      "bufferView": 0,
      "byteOffset": 3144,
      "componentType": 5125,
      "count": 222,
      "type": "SCALAR"
    },
    {
      "bufferView": 2,
      "byteOffset": 17496,
      "componentType": 5126,
      "count": 24,
      "max": [
        1.0,
        1.0,
        0.914587140083313
      ],
      "min": [
        -1.0,
        -1.0,
        -0.7609868049621582
      ],
      "type": "VEC3"
    },
    {
      "bufferView": 2,
      "byteOffset": 17784,
      "componentType": 5126,
      "count": 24,
      "max": [
        1.0,
        1.0,
        0.9972611665725708
      ],
      "min": [
        -1.0,
        -1.0,
        -1.0
      ],
      "type": "VEC3"
    },
    {
      "bufferView": 1,
      "byteOffset": 5832,
      "componentType": 5126,
      "count": 24,
      "max": [
        0.9999087452888489,
        0.892946720123291
      ],
      "min": [
        9.118524030782282e-05,
        9.118524030782282e-05
      ],
      "type": "VEC2"
    },
    {
      "bufferView": 0,
      "byteOffset": 4032,
      "componentType": 5125,
      "count": 36,
      "type": "SCALAR"
    },
    {
      "bufferView": 3,
      "componentType": 5126,
      "count": 121,
      "max": [
        2.5
      ],
      "min": [
        0.0
      ],
      "type": "SCALAR"
    },
    {
      "bufferView": 4,
      "componentType": 5126,
      "count": 121,
      "max": [
        1.0,
        0.0,
        0.0,
        1.0
      ],
      "min": [
        -0.8607420325279236,
        0.0,
        0.0,
        -0.5
      ],
      "type": "VEC4"
    }
  ],
  "animations": [
    {
      "channels": [
        {
          "sampler": 0,
          "target": {
            "node": 6,
            "path": "rotation"
          }
        }
      ],
      "name": "Cube.001|Cube.001Action",
      "samplers": [
        {
          "input": 12,
          "interpolation": "LINEAR",
          "output": 13
        }
      ]
    }
  ],
  "asset": {
    "extras": {
      "author": "RacKrab (https://sketchfab.com/RacKrab)",
      "license": "CC-BY-4.0 (http://creativecommons.org/licenses/by/4.0/)",
      "source": "https://sketchfab.com/3d-models/mill-low-poly-cbb07d5b45d14411a3911c0431f70852",
      "title": "Mill Low Poly"
    },
    "generator": "Sketchfab-12.68.0",
    "version": "2.0"
  },
  "bufferViews": [
    {
      "buffer": 0,
      "byteLength": 4176,
      "name": "floatBufferViews",
      "target": 34963
    },
    {
      "buffer": 0,
      "byteLength": 6024,
      "byteOffset": 4176,
      "byteStride": 8,
      "name": "floatBufferViews",
      "target": 34962
    },
    {
      "buffer": 0,
      "byteLength": 18072,
      "byteOffset": 10200,
      "byteStride": 12,
      "name": "floatBufferViews",
      "target": 34962
    },
    {
      "buffer": 0,
      "byteLength": 484,
      "byteOffset": 28272,
      "name": "floatBufferViews"
    },
    {
      "buffer": 0,
      "byteLength": 1936,
      "byteOffset": 28756,
      "byteStride": 16,
      "name": "floatBufferViews"
    }
  ],
  "buffers": [
    {
      "byteLength": 30692,
      "uri": "scene.bin"
    }
  ],
  "images": [
    {
      "uri": "textures/Material.001_baseColor.png"
    },
    {
      "uri": "textures/Material_baseColor.png"
    },
    {
      "uri": "textures/Material.002_baseColor.png"
    }
  ],
  "materials": [
    {
      "doubleSided": true,
      "name": "Material.001",
      "pbrMetallicRoughness": {
        "baseColorTexture": {
          "index": 0
        },
        "metallicFactor": 0.8138257576,
        "roughnessFactor": 0.8239417257
      }
    },
    {
      "doubleSided": true,
      "name": "Material",
      "pbrMetallicRoughness": {
        "baseColorTexture": {
          "index": 1
        },
        "metallicFactor": 0.7835227273,
        "roughnessFactor": 0.8239417257
      }
    },
    {
      "doubleSided": true,
      "name": "Material.002",
      "pbrMetallicRoughness": {
        "baseColorTexture": {
          "index": 2
        },
        "metallicFactor": 0.8744318182,
        "roughnessFactor": 0.8239417257
      }
    }
  ],
  "meshes": [
    {
      "name": "Cylinder.001_Material.001_0",
      "primitives": [
        {
          "attributes": {
            "NORMAL": 1,
            "POSITION": 0,
            "TEXCOORD_0": 2
          },
          "indices": 3,
          "material": 0,
          "mode": 4
        }
      ]
    },
    {
      "name": "Cube.001_Material_0",
      "primitives": [
        {
          "attributes": {
            "NORMAL": 5,
            "POSITION": 4,
            "TEXCOORD_0": 6
          },
          "indices": 7,
          "material": 1,
          "mode": 4
        }
      ]
    },
    {
      "name": "Cube.005_Material.002_0",
      "primitives": [
        {
          "attributes": {
            "NORMAL": 9,
            "POSITION": 8,
            "TEXCOORD_0": 10
          },
          "indices": 11,
          "material": 2,
          "mode": 4
        }
      ]
    }
  ],
  "nodes": [
    {
      "children": [
        1
      ],
      "matrix": [
        0.00634668068960309,
        0.0,
        0.0,
        0.0,
        0.0,
        1.4092462063082434e-18,
        -0.00634668068960309,
        0.0,
        0.0,
        0.00634668068960309,
        1.4092462063082434e-18,
        0.0,
        0.0,
        0.0,
        0.0,
        1.0
      ],
      "name": "Sketchfab_model"
    },
    {
      "children": [
        2
      ],
      "matrix": [
        1.0,
        0.0,
        0.0,
        0.0,
        0.0,
        0.0,
        1.0,
        0.0,
        0.0,
        -1.0,
        0.0,
        0.0,
        0.0,
        0.0,
        0.0,
        1.0
      ],
      "name": "MillEXPORT6.fbx"
    },
    {
      "children": [
        3
      ],
      "name": "Object_2"
    },
    {
      "children": [
        4,
        6,
        8
      ],
      "name": "RootNode"
    },
    {
      "children": [
        5
      ],
      "name": "Cylinder.001",
      "rotation": [
        -0.7071068286895752,
        0.0,
        0.0,
        0.7071067094802856
      ],
      "scale": [
        100.0,
        100.0,
        100.0
      ],
      "translation": [
        -2.998828887939453,
        169.8079376220703,
        0.0
      ]
    },
    {
      "mesh": 0,
      "name": "Cylinder.001_Material.001_0"
    },
    {
      "children": [
        7
      ],
      "name": "Cube.001",
      "rotation": [
        -0.30901700258255005,
        -0.0,
        0.0,
        0.9510565400123596
      ],
      "scale": [
        100.0,
        100.0,
        100.0
      ],
      "translation": [
        98.71029663085938,
        295.2102966308594,
        0.0
      ]
    },
    {
      "mesh": 1,
      "name": "Cube.001_Material_0"
    },
    {
      "children": [
        9
      ],
      "name": "Cube.005",
      "rotation": [
        -0.705672562122345,
        -0.045015450567007065,
        0.04501544311642647,
        0.7056724429130554
      ],
      "scale": [
        4.153866291046143,
        20.919479370117188,
        42.27114486694336
      ],
      "translation": [
        82.53368377685547,
        49.89514923095703,
        -0.8164185881614685
      ]
    },
    {
      "mesh": 2,
      "name": "Cube.005_Material.002_0"
    }
  ],
  "samplers": [
    {
      "magFilter": 9729,
      "minFilter": 9987,
      "wrapS": 10497,
      "wrapT": 10497
    }
  ],
  "scene": 0,
  "scenes": [
    {
      "name": "Sketchfab_Scene",
      "nodes": [
        0
      ]
    }
  ],
  "textures": [
    {
      "sampler": 0,
      "source": 0
    },
    {
      "sampler": 0,
      "source": 1
    },
    {
      "sampler": 0,
      "source": 2
    }
  ]
}
