{
  "accessors": [
    {
      "bufferView": 2,
      "componentType": 5126,
      "count": 164,
      "max": [
        0.9971309900283813,
        0.9980266690254211,
        1.0
      ],
      "min": [
        -0.9999001622200012,
        -0.9997826814651489,
        -1.0
      ],
      "type": "VEC3"
    },
    {
      "bufferView": 2,
      "byteOffset": 1968,
      "componentType": 5126,
      "count": 164,
      "max": [
        0.9891735911369324,
        0.9899578094482422,
        1.0
      ],
      "min": [
        -0.9930005073547363,
        -0.9934957027435303,
        -0.9999972581863403
      ],
      "type": "VEC3"
    },
    {
      "bufferView": 1,
      "componentType": 5126,
      "count": 164,
      "max": [
        0.6215101480484009,
        0.7775298357009888
      ],
      "min": [
        0.5468605160713196,
        0.3820536136627197
      ],
      "type": "VEC2"
    },
    {
      "bufferView": 0,
      "componentType": 5125,
      "count": 864,
      "type": "SCALAR"
    },
    {
      "bufferView": 2,
      "byteOffset": 3936,
      "componentType": 5126,
      "count": 197,
      "max": [
        11.505911827087402,
        5.481412410736084,
        2.0554935932159424
      ],
      "min": [
        -11.448174476623535,
        -9.83408260345459,
        -2.0554938316345215
      ],
      "type": "VEC3"
    },
    {
      "bufferView": 2,
      "byteOffset": 6300,
      "componentType": 5126,
      "count": 197,
      "max": [
        0.9999983310699463,
        0.999548077583313,
        0.9999397993087769
      ],
      "min": [
        -0.9979009032249451,
        -0.9999842643737793,
        -0.9999397993087769
      ],
      "type": "VEC3"
    },
    {
      "bufferView": 1,
      "byteOffset": 1312,
      "componentType": 5126,
      "count": 197,
      "max": [
        0.09775660932064056,
        0.6142085790634155
      ],
      "min": [
        0.06611673533916473,
        0.5825686454772949
      ],
      "type": "VEC2"
    },
    {
      "bufferView": 0,
      "byteOffset": 3456,
      "componentType": 5125,
      "count": 1032,
      "type": "SCALAR"
    },
    {
      "bufferView": 2,
      "byteOffset": 8664,
      "componentType": 5126,
      "count": 434,
      "max": [
        1.72262704372406,
        1.1126716136932373,
        0.9991718530654907
      ],
      "min": [
        -1.72262704372406,
        -1.1126726865768433,
        -0.9991718530654907
      ],
      "type": "VEC3"
    },
    {
      "bufferView": 2,
      "byteOffset": 13872,
      "componentType": 5126,
      "count": 434,
      "max": [
        0.9902153611183167,
        0.9979576468467712,
        0.9995604753494263
      ],
      "min": [
        -0.9902153611183167,
        -0.9979576468467712,
        -0.9995604753494263
      ],
      "type": "VEC3"
    },
    {
      "bufferView": 1,
      "byteOffset": 2888,
      "componentType": 5126,
      "count": 434,
      "max": [
        0.9397605061531067,
        0.7781810760498047
      ],
      "min": [
        0.9052913784980774,
        0.7437118291854858
      ],
      "type": "VEC2"
    },
    {
      "bufferView": 0,
      "byteOffset": 7584,
      "componentType": 5125,
      "count": 2304,
      "type": "SCALAR"
    },
    {
      "bufferView": 2,
      "byteOffset": 19080,
      "componentType": 5126,
      "count": 224,
      "max": [
        2.2081453800201416,
        1.0005184412002563,
        0.9997069835662842
      ],
      "min": [
        -2.2081453800201416,
        -0.9927296042442322,
        -0.9997206926345825
      ],
      "type": "VEC3"
    },
    {
      "bufferView": 2,
      "byteOffset": 21768,
      "componentType": 5126,
      "count": 224,
      "max": [
        0.9926691651344299,
        0.9922104477882385,
        0.9908829927444458
      ],
      "min": [
        -0.9926691651344299,
        -0.9847671389579773,
        -0.9927356243133545
      ],
      "type": "VEC3"
    },
    {
      "bufferView": 1,
      "byteOffset": 6360,
      "componentType": 5126,
      "count": 224,
      "max": [
        0.9366897940635681,
        0.07555180788040161
      ],
      "min": [
        0.9083620309829712,
        0.0472240149974823
      ],
      "type": "VEC2"
    },
    {
      "bufferView": 0,
      "byteOffset": 16800,
      "componentType": 5125,
      "count": 1152,
      "type": "SCALAR"
    },
    {
      "bufferView": 2,
      "byteOffset": 24456,
      "componentType": 5126,
      "count": 110,
      "max": [
        0.11384272575378418,
        1.1841641664505005,
        0.18976259231567383
      ],
      "min": [
        -0.9227274656295776,
        -1.0009173154830933,
        -0.20379433035850525
      ],
      "type": "VEC3"
    },
    {
      "bufferView": 2,
      "byteOffset": 25776,
      "componentType": 5126,
      "count": 110,
      "max": [
        0.9900738596916199,
        0.9744578003883362,
        0.9910134077072144
      ],
      "min": [
        -0.6648885011672974,
        -0.9016491770744324,
        -0.9910134077072144
      ],
      "type": "VEC3"
    },
    {
      "bufferView": 1,
      "byteOffset": 8152,
      "componentType": 5126,
      "count": 110,
      "max": [
        0.6700520515441895,
        0.7013940811157227
      ],
      "min": [
        0.6336992383003235,
        0.6650412678718567
      ],
      "type": "VEC2"
    },
    {
      "bufferView": 0,
      "byteOffset": 21408,
      "componentType": 5125,
      "count": 612,
      "type": "SCALAR"
    },
    {
      "bufferView": 2,
      "byteOffset": 27096,
      "componentType": 5126,
      "count": 114,
      "max": [
        1.0684891939163208,
        1.2427865266799927,
        0.2250145971775055
      ],
      "min": [
        -1.0518584251403809,
        -0.17632560431957245,
        -0.14873644709587097
      ],
      "type": "VEC3"
    },
    {
      "bufferView": 2,
      "byteOffset": 28464,
      "componentType": 5126,
      "count": 114,
      "max": [
        0.9804688692092896,
        0.8374292254447937,
        0.9921634793281555
      ],
      "min": [
        -0.9784892201423645,
        -0.9788810014724731,
        -0.9921634793281555
      ],
      "type": "VEC3"
    },
    {
      "bufferView": 1,
      "byteOffset": 9032,
      "componentType": 5126,
      "count": 114,
      "max": [
        0.6735600829124451,
        0.6918509602546692
      ],
      "min": [
        0.6340852975845337,
        0.6523762345314026
      ],
      "type": "VEC2"
    },
    {
      "bufferView": 0,
      "byteOffset": 23856,
      "componentType": 5125,
      "count": 672,
      "type": "SCALAR"
    },
    {
      "bufferView": 2,
      "byteOffset": 29832,
      "componentType": 5126,
      "count": 362,
      "max": [
        0.41835254430770874,
        1.8342825174331665,
        0.08900412917137146
      ],
      "min": [
        -0.623207151889801,
        -1.8342825174331665,
        -0.3732770085334778
      ],
      "type": "VEC3"
    },
    {
      "bufferView": 2,
      "byteOffset": 34176,
      "componentType": 5126,
      "count": 362,
      "max": [
        0.9759392738342285,
        0.98322594165802,
        0.9810708165168762
      ],
      "min": [
        -0.9734200835227966,
        -0.98322594165802,
        -0.9377685189247131
      ],
      "type": "VEC3"
    },
    {
      "bufferView": 1,
      "byteOffset": 9944,
      "componentType": 5126,
      "count": 362,
      "max": [
        0.6746717095375061,
        0.7798483371734619
      ],
      "min": [
        0.6368678212165833,
        0.7420444488525391
      ],
      "type": "VEC2"
    },
    {
      "bufferView": 0,
      "byteOffset": 26544,
      "componentType": 5125,
      "count": 1848,
      "type": "SCALAR"
    },
    {
      "bufferView": 2,
      "byteOffset": 38520,
      "componentType": 5126,
      "count": 87,
      "max": [
        0.21457719802856445,
        0.2156192809343338,
        1.039893388748169
      ],
      "min": [
        -0.2140616476535797,
        -0.2141144573688507,
        0.9065392017364502
      ],
      "type": "VEC3"
    },
    {
      "bufferView": 2,
      "byteOffset": 39564,
      "componentType": 5126,
      "count": 87,
      "max": [
        0.9759395122528076,
        0.9787324666976929,
        0.9998048543930054
      ],
      "min": [
        -0.9170659184455872,
        -0.9662419557571411,
        -0.994620144367218
      ],
      "type": "VEC3"
    },
    {
      "bufferView": 1,
      "byteOffset": 12840,
      "componentType": 5126,
      "count": 87,
      "max": [
        0.563388466835022,
        0.7976295948028564
      ],
      "min": [
        0.5456792116165161,
        0.7470941543579102
      ],
      "type": "VEC2"
    },
    {
      "bufferView": 0,
      "byteOffset": 33936,
      "componentType": 5125,
      "count": 306,
      "type": "SCALAR"
    },
    {
      "bufferView": 2,
      "byteOffset": 40608,
      "componentType": 5126,
      "count": 88,
      "max": [
        0.13900987803936005,
        0.1392877995967865,
        1.0326621532440186
      ],
      "min": [
        -0.13784070312976837,
        -0.13925576210021973,
        0.9490448832511902
      ],
      "type": "VEC3"
    },
    {
      "bufferView": 2,
      "byteOffset": 41664,
      "componentType": 5126,
      "count": 88,
      "max": [
        0.9479153752326965,
        0.9321337938308716,
        0.9932243227958679
      ],
      "min": [
        -0.9524347186088562,
        -0.9778644442558289,
        -0.9951046109199524
      ],
      "type": "VEC3"
    },
    {
      "bufferView": 1,
      "byteOffset": 13536,
      "componentType": 5126,
      "count": 88,
      "max": [
        0.5613695979118347,
        0.7916358113288879
      ],
      "min": [
        0.543808102607727,
        0.7411839962005615
      ],
      "type": "VEC2"
    },
    {
      "bufferView": 0,
      "byteOffset": 35160,
      "componentType": 5125,
      "count": 306,
      "type": "SCALAR"
    },
    {
      "bufferView": 2,
      "byteOffset": 42720,
      "componentType": 5126,
      "count": 87,
      "max": [
        0.21457719802856445,
        0.2156192809343338,
        1.039893388748169
      ],
      "min": [
        -0.2140616476535797,
        -0.2141144573688507,
        0.9065392017364502
      ],
      "type": "VEC3"
    },
    {
      "bufferView": 2,
      "byteOffset": 43764,
      "componentType": 5126,
      "count": 87,
      "max": [
        0.9759395122528076,
        0.9787324666976929,
        0.9998048543930054
      ],
      "min": [
        -0.9170659184455872,
        -0.9662419557571411,
        -0.994620144367218
      ],
      "type": "VEC3"
    },
    {
      "bufferView": 1,
      "byteOffset": 14240,
      "componentType": 5126,
      "count": 87,
      "max": [
        0.5594941973686218,
        0.7865254878997803
      ],
      "min": [
        0.5417848825454712,
        0.735990047454834
      ],
      "type": "VEC2"
    },
    {
      "bufferView": 0,
      "byteOffset": 36384,
      "componentType": 5125,
      "count": 306,
      "type": "SCALAR"
    }
  ],
  "asset": {
    "extras": {
      "author": "Zainal Abd. Kahar (https://sketchfab.com/zsuperxtreme)",
      "license": "CC-BY-4.0 (http://creativecommons.org/licenses/by/4.0/)",
      "source": "https://sketchfab.com/3d-models/fish-80d9d61f143c472b8e1522a2fd711f9e",
      "title": "Fish"
    },
    "generator": "Sketchfab-12.68.0",
    "version": "2.0"
  },
  "bufferViews": [
    {
      "buffer": 0,
      "byteLength": 37608,
      "name": "floatBufferViews",
      "target": 34963
    },
    {
      "buffer": 0,
      "byteLength": 14936,
      "byteOffset": 37608,
      "byteStride": 8,
      "name": "floatBufferViews",
      "target": 34962
    },
    {
      "buffer": 0,
      "byteLength": 44808,
      "byteOffset": 52544,
      "byteStride": 12,
      "name": "floatBufferViews",
      "target": 34962
    }
  ],
  "buffers": [
    {
      "byteLength": 97352,
      "uri": "scene.bin"
    }
  ],
  "images": [
    {
      "uri": "textures/Color_baseColor.jpeg"
    }
  ],
  "materials": [
    {
      "doubleSided": true,
      "name": "Color",
      "pbrMetallicRoughness": {
        "baseColorTexture": {
          "index": 0
        },
        "metallicFactor": 0.46380320911539563,
        "roughnessFactor": 0.3051502106780001
      }
    }
  ],
  "meshes": [
    {
      "name": "Sphere_Color_0",
      "primitives": [
        {
          "attributes": {
            "NORMAL": 1,
            "POSITION": 0,
            "TEXCOORD_0": 2
          },
          "indices": 3,
          "material": 0,
          "mode": 4
        }
      ]
    },
    {
      "name": "Mouth_Color_0",
      "primitives": [
        {
          "attributes": {
            "NORMAL": 5,
            "POSITION": 4,
            "TEXCOORD_0": 6
          },
          "indices": 7,
          "material": 0,
          "mode": 4
        }
      ]
    },
    {
      "name": "Eyes_Color_0",
      "primitives": [
        {
          "attributes": {
            "NORMAL": 9,
            "POSITION": 8,
            "TEXCOORD_0": 10
          },
          "indices": 11,
          "material": 0,
          "mode": 4
        }
      ]
    },
    {
      "name": "Iris_Color_0",
      "primitives": [
        {
          "attributes": {
            "NORMAL": 13,
            "POSITION": 12,
            "TEXCOORD_0": 14
          },
          "indices": 15,
          "material": 0,
          "mode": 4
        }
      ]
    },
    {
      "name": "Fin_Color_0",
      "primitives": [
        {
          "attributes": {
            "NORMAL": 17,
            "POSITION": 16,
            "TEXCOORD_0": 18
          },
          "indices": 19,
          "material": 0,
          "mode": 4
        }
      ]
    },
    {
      "name": "Tail_Color_0",
      "primitives": [
        {
          "attributes": {
            "NORMAL": 21,
            "POSITION": 20,
            "TEXCOORD_0": 22
          },
          "indices": 23,
          "material": 0,
          "mode": 4
        }
      ]
    },
    {
      "name": "FinLeft_Color_0",
      "primitives": [
        {
          "attributes": {
            "NORMAL": 25,
            "POSITION": 24,
            "TEXCOORD_0": 26
          },
          "indices": 27,
          "material": 0,
          "mode": 4
        }
      ]
    },
    {
      "name": "Sphere.001_Color_0",
      "primitives": [
        {
          "attributes": {
            "NORMAL": 29,
            "POSITION": 28,
            "TEXCOORD_0": 30
          },
          "indices": 31,
          "material": 0,
          "mode": 4
        }
      ]
    },
    {
      "name": "Sphere.002_Color_0",
      "primitives": [
        {
          "attributes": {
            "NORMAL": 33,
            "POSITION": 32,
            "TEXCOORD_0": 34
          },
          "indices": 35,
          "material": 0,
          "mode": 4
        }
      ]
    },
    {
      "name": "Sphere.003_Color_0",
      "primitives": [
        {
          "attributes": {
            "NORMAL": 37,
            "POSITION": 36,
            "TEXCOORD_0": 38
          },
          "indices": 39,
          "material": 0,
          "mode": 4
        }
      ]
    }
  ],
  "nodes": [
    {
      "children": [
        1
      ],
      "matrix": [
        0.0008291694684885442,
        0.0,
        0.0,
        0.0,
        0.0,
        1.84112607046437e-19,
        -0.0008291694684885442,
        0.0,
        0.0,
        0.0008291694684885442,
        1.84112607046437e-19,
        0.0,
        0.0,
        0.0,
        0.0,
        1.0
      ],
      "name": "Sketchfab_model"
    },
    {
      "children": [
        2
      ],
      "matrix": [
        1.0,
        0.0,
        0.0,
        0.0,
        0.0,
        0.0,
        1.0,
        0.0,
        0.0,
        -1.0,
        0.0,
        0.0,
        0.0,
        0.0,
        0.0,
        1.0
      ],
      "name": "b7f76039fd2f4f8ba1d178e38ef4d449.fbx"
    },
    {
      "children": [
        3,
        6,
        8,
        10,
        12,
        14,
        17,
        19,
        21,
        23,
        25,
        27,
        29
      ],
      "name": "RootNode"
    },
    {
      "children": [
        4
      ],
      "matrix": [
        -29.08647719990347,
        -5.518906457566863,
        -95.51711910171437,
        0.0,
        56.63930913109449,
        79.46723428563203,
        -21.83912397841966,
        0.0,
        77.11008775993375,
        -60.45246356562044,
        -19.98834696773717,
        0.0,
        346.576416015625,
        590.38623046875,
        423.182861328125,
        1.0
      ],
      "name": "Light"
    },
    {
      "children": [
        5
      ],
      "matrix": [
        1.0,
        0.0,
        0.0,
        0.0,
        0.0,
        2.220446049250313e-16,
        1.0,
        0.0,
        0.0,
        -1.0,
        2.220446049250313e-16,
        0.0,
        0.0,
        0.0,
        0.0,
        1.0
      ],
      "name": "Object_4"
    },
    {
      "name": "Object_5"
    },
    {
      "children": [
        7
      ],
      "matrix": [
        -65.15583280329096,
        -44.52713576570858,
        -61.41703047373549,
        0.0,
        -32.40134137821245,
        89.53957451233616,
        -30.542088974418615,
        0.0,
        68.59205472129975,
        -1.0718647115348782e-05,
        -72.7676336239627,
        0.0,
        735.88916015625,
        495.8309326171875,
        692.5791015625,
        1.0
      ],
      "name": "Camera"
    },
    {
      "name": "Object_7"
    },
    {
      "children": [
        9
      ],
      "matrix": [
        140.75424194335938,
        0.0,
        0.0,
        0.0,
        0.0,
        -2.2931776724694322e-05,
        -140.75424194335753,
        0.0,
        0.0,
        140.75424194335753,
        -2.2931776724694322e-05,
        0.0,
        0.0,
        231.47378540039063,
        6.240176200866699,
        1.0
      ],
      "name": "Sphere"
    },
    {
      "mesh": 0,
      "name": "Sphere_Color_0"
    },
    {
      "children": [
        11
      ],
      "matrix": [
        4.959710597991888,
        -7.488954650378051e-07,
        -1.4107744779555926e-15,
        -0.0,
        7.18718684290085e-07,
        4.759858805263224,
        1.393863873238991,
        -0.0,
        2.819283020330543e-07,
        1.8671268043954472,
        -6.375988452726797,
        -0.0,
        0.0,
        193.08636474609375,
        149.11447143554688,
        1.0
      ],
      "name": "Mouth"
    },
    {
      "mesh": 1,
      "name": "Mouth_Color_0"
    },
    {
      "children": [
        13
      ],
      "matrix": [
        40.67655944824219,
        9.761106564623963e-16,
        -5.2899944517867016e-17,
        0.0,
        3.206908967936896e-17,
        -2.6649319511857255,
        -24.51435923657078,
        0.0,
        -1.1904366713121637e-15,
        49.31741906082145,
        -5.361248260127231,
        0.0,
        0.0,
        240.885498046875,
        135.69097900390625,
        1.0
      ],
      "name": "Eyes"
    },
    {
      "mesh": 2,
      "name": "Eyes_Color_0"
    },
    {
      "children": [
        15
      ],
      "matrix": [
        -29.08647719990347,
        -5.518906457566863,
        -95.51711910171437,
        0.0,
        56.63930913109449,
        79.46723428563203,
        -21.83912397841966,
        0.0,
        77.11008775993375,
        -60.45246356562044,
        -19.98834696773717,
        0.0,
        -252.2225799560547,
        459.3674621582031,
        444.079833984375,
        1.0
      ],
      "name": "Light.001"
    },
    {
      "children": [
        16
      ],
      "matrix": [
        1.0,
        0.0,
        0.0,
        0.0,
        0.0,
        2.220446049250313e-16,
        1.0,
        0.0,
        0.0,
        -1.0,
        2.220446049250313e-16,
        0.0,
        0.0,
        0.0,
        0.0,
        1.0
      ],
      "name": "Object_15"
    },
    {
      "name": "Object_16"
    },
    {
      "children": [
        18
      ],
      "matrix": [
        12.905289649963379,
        3.0968673169351585e-16,
        -1.678338493029139e-17,
        0.0,
        1.017441116652555e-17,
        -0.8454921223004073,
        -7.7775710590061236,
        0.0,
        -3.776850966393527e-16,
        15.646740757713355,
        -1.7009418428912266,
        0.0,
        0.0,
        240.885498046875,
        158.5062713623047,
        1.0
      ],
      "name": "Iris"
    },
    {
      "mesh": 3,
      "name": "Iris_Color_0"
    },
    {
      "children": [
        20
      ],
      "matrix": [
        -2.8212996872056806e-05,
        -99.99999999999602,
        1.6653345369377348e-14,
        0.0,
        -1.6292067944734256e-05,
        4.5852210917018965e-12,
        -99.99999999999866,
        0.0,
        99.9999999999947,
        -2.8212996894261266e-05,
        -1.629206793918314e-05,
        0.0,
        6.906981768212833e-14,
        311.06280517578125,
        5.4485602378845215,
        1.0
      ],
      "name": "Fin"
    },
    {
      "mesh": 4,
      "name": "Fin_Color_0"
    },
    {
      "children": [
        22
      ],
      "matrix": [
        -2.8212996872056806e-05,
        -99.99999999999602,
        1.6653345369377348e-14,
        0.0,
        -1.6292067944734256e-05,
        4.5852210917018965e-12,
        -99.99999999999866,
        0.0,
        99.9999999999947,
        -2.8212996894261266e-05,
        -1.629206793918314e-05,
        0.0,
        5.291630306679396e-14,
        238.3138427734375,
        -111.05889892578125,
        1.0
      ],
      "name": "Tail"
    },
    {
      "mesh": 5,
      "name": "Tail_Color_0"
    },
    {
      "children": [
        24
      ],
      "matrix": [
        1.9470718903846773e-05,
        -99.9999999999981,
        1.1724466009434944e-13,
        0.0,
        99.999999999998,
        1.9470718903846773e-05,
        4.3711384734024225e-06,
        0.0,
        -4.371138473402363e-06,
        -7.338474242222764e-13,
        99.9999999999999,
        0.0,
        0.7444620132446289,
        232.61595153808594,
        28.92155647277832,
        1.0
      ],
      "name": "FinLeft"
    },
    {
      "mesh": 6,
      "name": "FinLeft_Color_0"
    },
    {
      "children": [
        26
      ],
      "matrix": [
        112.69507407819214,
        -61.44850309939609,
        -57.755158820697964,
        0.0,
        -22.460279203629906,
        71.04552665769275,
        -119.41451178594589,
        0.0,
        81.28415709210668,
        104.82544355386263,
        47.07730992835341,
        0.0,
        0.0,
        231.47378540039063,
        6.240176200866699,
        1.0
      ],
      "name": "Sphere.001"
    },
    {
      "mesh": 7,
      "name": "Sphere.001_Color_0"
    },
    {
      "children": [
        28
      ],
      "matrix": [
        -27.53418873902403,
        110.85863100499542,
        -82.24347394919441,
        0.0,
        -106.49225996513248,
        -70.41789367193944,
        -59.266140783552196,
        0.0,
        -87.82382161493653,
        50.63043361018602,
        97.64882065054395,
        0.0,
        0.0,
        231.47378540039063,
        6.240176200866699,
        1.0
      ],
      "name": "Sphere.002"
    },
    {
      "mesh": 8,
      "name": "Sphere.002_Color_0"
    },
    {
      "children": [
        30
      ],
      "matrix": [
        106.72387257599858,
        82.25921356471899,
        -40.68406851761161,
        0.0,
        -41.82387453196132,
        -11.944772985685137,
        -133.86501612633884,
        0.0,
        -81.68559611871487,
        113.58918788571016,
        15.38573049041162,
        0.0,
        0.0,
        231.47378540039063,
        6.240176200866699,
        1.0
      ],
      "name": "Sphere.003"
    },
    {
      "mesh": 9,
      "name": "Sphere.003_Color_0"
    }
  ],
  "samplers": [
    {
      "magFilter": 9729,
      "minFilter": 9987,
      "wrapS": 10497,
      "wrapT": 10497
    }
  ],
  "scene": 0,
  "scenes": [
    {
      "name": "Sketchfab_Scene",
      "nodes": [
        0
      ]
    }
  ],
  "textures": [
    {
      "sampler": 0,
      "source": 0
    }
  ]
}
