{
  "accessors": [
    {
      "bufferView": 2,
      "componentType": 5126,
      "count": 2011,
      "max": [
        81.81444549560547,
        322.7377014160156,
        83.65961456298828
      ],
      "min": [
        -81.81444549560547,
        -0.022308349609375,
        -101.38384246826172
      ],
      "type": "VEC3"
    },
    {
      "bufferView": 2,
      "byteOffset": 24132,
      "componentType": 5126,
      "count": 2011,
      "max": [
        0.9998283386230469,
        1.0,
        0.9924885034561157
      ],
      "min": [
        -0.9997057914733887,
        -1.0,
        -0.9920545816421509
      ],
      "type": "VEC3"
    },
    {
      "bufferView": 1,
      "componentType": 5126,
      "count": 2011,
      "max": [
        0.9891780018806458,
        0.9929009675979614
      ],
      "min": [
        0.008382953703403473,
        0.005365967750549316
      ],
      "type": "VEC2"
    },
    {
      "bufferView": 1,
      "byteOffset": 16088,
      "componentType": 5126,
      "count": 2011,
      "max": [
        0.9891780018806458,
        0.9929009675979614
      ],
      "min": [
        0.008382953703403473,
        0.005365967750549316
      ],
      "type": "VEC2"
    },
    {
      "bufferView": 1,
      "byteOffset": 32176,
      "componentType": 5126,
      "count": 2011,
      "max": [
        0.9891780018806458,
        0.9929009675979614
      ],
      "min": [
        0.008382953703403473,
        0.005365967750549316
      ],
      "type": "VEC2"
    },
    {
      "bufferView": 1,
      "byteOffset": 48264,
      "componentType": 5126,
      "count": 2011,
      "max": [
        0.9891780018806458,
        0.9929009675979614
      ],
      "min": [
        0.008382953703403473,
        0.005365967750549316
      ],
      "type": "VEC2"
    },
    {
      "bufferView": 1,
      "byteOffset": 64352,
      "componentType": 5126,
      "count": 2011,
      "max": [
        0.9891780018806458,
        0.9929009675979614
      ],
      "min": [
        0.008382953703403473,
        0.005365967750549316
      ],
      "type": "VEC2"
    },
    {
      "bufferView": 1,
      "byteOffset": 80440,
      "componentType": 5126,
      "count": 2011,
      "max": [
        0.9891780018806458,
        0.9929009675979614
      ],
      "min": [
        0.008382953703403473,
        0.005365967750549316
      ],
      "type": "VEC2"
    },
    {
      "bufferView": 1,
      "byteOffset": 96528,
      "componentType": 5126,
      "count": 2011,
      "max": [
        0.9891780018806458,
        0.9929009675979614
      ],
      "min": [
        0.008382953703403473,
        0.005365967750549316
      ],
      "type": "VEC2"
    },
    {
      "bufferView": 1,
      "byteOffset": 112616,
      "componentType": 5126,
      "count": 2011,
      "max": [
        0.9891780018806458,
        0.9929009675979614
      ],
      "min": [
        0.008382953703403473,
        0.005365967750549316
      ],
      "type": "VEC2"
    },
    {
      "bufferView": 1,
      "byteOffset": 128704,
      "componentType": 5126,
      "count": 2011,
      "max": [
        0.9891780018806458,
        0.9929009675979614
      ],
      "min": [
        0.008382953703403473,
        0.005365967750549316
      ],
      "type": "VEC2"
    },
    {
      "bufferView": 0,
      "componentType": 5125,
      "count": 7077,
      "type": "SCALAR"
    }
  ],
  "asset": {
    "extras": {
      "author": "House Doctor (https://sketchfab.com/chin4grci4)",
      "license": "CC-BY-4.0 (http://creativecommons.org/licenses/by/4.0/)",
      "source": "https://sketchfab.com/3d-models/jellyfish-546925c54f3b471d8d833bdd65110834",
      "title": "Jellyfish"
    },
    "generator": "Sketchfab-12.68.0",
    "version": "2.0"
  },
  "bufferViews": [
    {
      "buffer": 0,
      "byteLength": 28308,
      "name": "floatBufferViews",
      "target": 34963
    },
    {
      "buffer": 0,
      "byteLength": 144792,
      "byteOffset": 28308,
      "byteStride": 8,
      "name": "floatBufferViews",
      "target": 34962
    },
    {
      "buffer": 0,
      "byteLength": 48264,
      "byteOffset": 173100,
      "byteStride": 12,
      "name": "floatBufferViews",
      "target": 34962
    }
  ],
  "buffers": [
    {
      "byteLength": 221364,
      "uri": "scene.bin"
    }
  ],
  "images": [
    {
      "uri": "textures/Material_51_baseColor.png"
    }
  ],
  "materials": [
    {
      "doubleSided": true,
      "name": "Material_51",
      "pbrMetallicRoughness": {
        "baseColorTexture": {
          "index": 0
        },
        "metallicFactor": 0.0,
        "roughnessFactor": 0.0
      }
    }
  ],
  "meshes": [
    {
      "name": "node_id5_Material_51_0",
      "primitives": [
        {
          "attributes": {
            "NORMAL": 1,
            "POSITION": 0,
            "TEXCOORD_0": 2,
            "TEXCOORD_1": 3,
            "TEXCOORD_2": 4,
            "TEXCOORD_3": 5,
            "TEXCOORD_4": 6,
            "TEXCOORD_5": 7,
            "TEXCOORD_6": 8,
            "TEXCOORD_7": 9,
            "TEXCOORD_8": 10
          },
          "indices": 11,
          "material": 0,
          "mode": 4
        }
      ]
    }
  ],
  "nodes": [
    {
      "children": [
        1
      ],
      "matrix": [
        1.0,
        0.0,
        0.0,
        0.0,
        0.0,
        2.220446049250313e-16,
        -1.0,
        0.0,
        0.0,
        1.0,
        2.220446049250313e-16,
        0.0,
        0.0,
        0.0,
        0.0,
        1.0
      ],
      "name": "Sketchfab_model"
    },
    {
      "children": [
        2
      ],
      "matrix": [
        1.0,
        0.0,
        0.0,
        0.0,
        0.0,
        0.0,
        1.0,
        0.0,
        0.0,
        -1.0,
        0.0,
        0.0,
        0.0,
        0.0,
        0.0,
        1.0
      ],
      "name": "66ac039fc97d40608445d3d47907ba48.fbx"
    },
    {
      "children": [
        3
      ],
      "name": "RootNode"
    },
    {
      "children": [
        4
      ],
      "name": "root"
    },
    {
      "children": [
        5
      ],
      "matrix": [
        0.00021848632385651736,
        0.0,
        -0.0015711997245225061,
        0.0,
        0.0,
        0.0015863178996369243,
        0.0,
        0.0,
        0.0015711997245225061,
        0.0,
        0.00021848632385651736,
        0.0,
        0.013924629427492619,
        -0.25596460700035095,
        0.2579362392425537,
        1.0
      ],
      "name": "node_id5"
    },
    {
      "mesh": 0,
      "name": "node_id5_Material_51_0"
    }
  ],
  "samplers": [
    {
      "magFilter": 9729,
      "minFilter": 9987,
      "wrapS": 10497,
      "wrapT": 10497
    }
  ],
  "scene": 0,
  "scenes": [
    {
      "name": "Sketchfab_Scene",
      "nodes": [
        0
      ]
    }
  ],
  "textures": [
    {
      "sampler": 0,
      "source": 0
    }
  ]
}
