{
  "accessors": [
    {
      "bufferView": 2,
      "componentType": 5126,
      "count": 908,
      "max": [
        1.000000238418579,
        1.0,
        1.0000003576278687
      ],
      "min": [
        -0.9999998211860657,
        -0.49679023027420044,
        -1.0
      ],
      "type": "VEC3"
    },
    {
      "bufferView": 2,
      "byteOffset": 10896,
      "componentType": 5126,
      "count": 908,
      "max": [
        0.9999396800994873,
        1.0,
        0.9999396800994873
      ],
      "min": [
        -0.9999396800994873,
        -1.0,
        -0.9999396800994873
      ],
      "type": "VEC3"
    },
    {
      "bufferView": 1,
      "componentType": 5126,
      "count": 908,
      "max": [
        1.000000238418579,
        1.0
      ],
      "min": [
        0.0,
        0.3749999403953552
      ],
      "type": "VEC2"
    },
    {
      "bufferView": 0,
      "componentType": 5125,
      "count": 3840,
      "type": "SCALAR"
    },
    {
      "bufferView": 2,
      "byteOffset": 21792,
      "componentType": 5126,
      "count": 2419,
      "max": [
        4.17443323135376,
        6.277673721313477,
        4.1382598876953125
      ],
      "min": [
        -4.17443323135376,
        -5.089487075805664,
        -4.1620635986328125
      ],
      "type": "VEC3"
    },
    {
      "bufferView": 2,
      "byteOffset": 50820,
      "componentType": 5126,
      "count": 2419,
      "max": [
        0.9979804754257202,
        0.9999911785125732,
        0.9999834299087524
      ],
      "min": [
        -0.9986221790313721,
        -0.9999828338623047,
        -0.9999997615814209
      ],
      "type": "VEC3"
    },
    {
      "bufferView": 3,
      "componentType": 5126,
      "count": 2419,
      "max": [
        1.0,
        0.9992871284484863,
        0.9979400634765625,
        1.0
      ],
      "min": [
        -0.9999890923500061,
        -0.998978853225708,
        -0.9998691082000732,
        1.0
      ],
      "type": "VEC4"
    },
    {
      "bufferView": 1,
      "byteOffset": 7264,
      "componentType": 5126,
      "count": 2419,
      "max": [
        0.9999999403953552,
        1.0
      ],
      "min": [
        0.0,
        0.0
      ],
      "type": "VEC2"
    },
    {
      "bufferView": 1,
      "byteOffset": 26616,
      "componentType": 5126,
      "count": 2419,
      "max": [
        0.9999999403953552,
        1.0
      ],
      "min": [
        0.0,
        0.0
      ],
      "type": "VEC2"
    },
    {
      "bufferView": 1,
      "byteOffset": 45968,
      "componentType": 5126,
      "count": 2419,
      "max": [
        0.9999999403953552,
        1.0
      ],
      "min": [
        0.0,
        0.0
      ],
      "type": "VEC2"
    },
    {
      "bufferView": 0,
      "byteOffset": 15360,
      "componentType": 5125,
      "count": 8976,
      "type": "SCALAR"
    }
  ],
  "asset": {
    "extras": {
      "author": "Paletta (https://sketchfab.com/paletta)",
      "license": "CC-BY-4.0 (http://creativecommons.org/licenses/by/4.0/)",
      "source": "https://sketchfab.com/3d-models/jellyfish-1bb631ef54f04af3a022e6b79e718c0c",
      "title": "Jellyfish"
    },
    "generator": "Sketchfab-12.66.0",
    "version": "2.0"
  },
  "bufferViews": [
    {
      "buffer": 0,
      "byteLength": 51264,
      "name": "floatBufferViews",
      "target": 34963
    },
    {
      "buffer": 0,
      "byteLength": 65320,
      "byteOffset": 51264,
      "byteStride": 8,
      "name": "floatBufferViews",
      "target": 34962
    },
    {
      "buffer": 0,
      "byteLength": 79848,
      "byteOffset": 116584,
      "byteStride": 12,
      "name": "floatBufferViews",
      "target": 34962
    },
    {
      "buffer": 0,
      "byteLength": 38704,
      "byteOffset": 196432,
      "byteStride": 16,
      "name": "floatBufferViews",
      "target": 34962
    }
  ],
  "buffers": [
    {
      "byteLength": 235136,
      "uri": "scene.bin"
    }
  ],
  "extensionsUsed": [
    "KHR_materials_clearcoat"
  ],
  "images": [
    {
      "uri": "textures/Material_Prueba_baseColor.png"
    },
    {
      "uri": "textures/Material_Prueba_emissive.png"
    },
    {
      "uri": "textures/Material_Prueba_normal.png"
    }
  ],
  "materials": [
    {
      "doubleSided": true,
      "emissiveFactor": [
        1.0,
        0.0,
        0.47392400000000007
      ],
      "name": "Material",
      "pbrMetallicRoughness": {
        "baseColorFactor": [
          1.0,
          0.0,
          0.8048280000000002,
          1.0
        ],
        "metallicFactor": 0.0,
        "roughnessFactor": 0.5
      }
    },
    {
      "alphaMode": "BLEND",
      "doubleSided": true,
      "emissiveFactor": [
        1.0,
        1.0,
        1.0
      ],
      "emissiveTexture": {
        "index": 1
      },
      "extensions": {
        "KHR_materials_clearcoat": {
          "clearcoatFactor": 1.0,
          "clearcoatRoughnessFactor": 0.04
        }
      },
      "name": "Material_Prueba",
      "normalTexture": {
        "index": 2
      },
      "pbrMetallicRoughness": {
        "baseColorTexture": {
          "index": 0
        },
        "metallicFactor": 0.0,
        "roughnessFactor": 0.0
      }
    }
  ],
  "meshes": [
    {
      "name": "Object_0",
      "primitives": [
        {
          "attributes": {
            "NORMAL": 1,
            "POSITION": 0,
            "TEXCOORD_0": 2
          },
          "indices": 3,
          "material": 0,
          "mode": 4
        }
      ]
    },
    {
      "name": "Object_1",
      "primitives": [
        {
          "attributes": {
            "NORMAL": 5,
            "POSITION": 4,
            "TANGENT": 6,
            "TEXCOORD_0": 7,
            "TEXCOORD_1": 8,
            "TEXCOORD_2": 9
          },
          "indices": 10,
          "material": 1,
          "mode": 4
        }
      ]
    }
  ],
  "nodes": [
    {
      "children": [
        1
      ],
      "matrix": [
        1.0,
        0.0,
        0.0,
        0.0,
        0.0,
        2.220446049250313e-16,
        -1.0,
        0.0,
        0.0,
        1.0,
        2.220446049250313e-16,
        0.0,
        0.0,
        0.0,
        0.0,
        1.0
      ],
      "name": "Sketchfab_model"
    },
    {
      "children": [
        2
      ],
      "name": "root"
    },
    {
      "children": [
        3,
        5
      ],
      "matrix": [
        1.0,
        0.0,
        0.0,
        0.0,
        0.0,
        2.220446049250313e-16,
        1.0,
        0.0,
        0.0,
        -1.0,
        2.220446049250313e-16,
        0.0,
        0.0,
        0.0,
        0.0,
        1.0
      ],
      "name": "GLTF_SceneRootNode"
    },
    {
      "children": [
        4
      ],
      "matrix": [
        3.228318929672241,
        0.0,
        0.0,
        0.0,
        0.0,
        2.895691394805908,
        0.0,
        0.0,
        0.0,
        0.0,
        3.1786372661590576,
        0.0,
        0.0,
        2.691114664077759,
        0.0,
        1.0
      ],
      "name": "Interior medusa_1"
    },
    {
      "mesh": 0,
      "name": "Object_4"
    },
    {
      "children": [
        6
      ],
      "name": "Medusa Obj_2"
    },
    {
      "mesh": 1,
      "name": "Object_6"
    }
  ],
  "samplers": [
    {
      "magFilter": 9729,
      "minFilter": 9987,
      "wrapS": 10497,
      "wrapT": 10497
    }
  ],
  "scene": 0,
  "scenes": [
    {
      "name": "Sketchfab_Scene",
      "nodes": [
        0
      ]
    }
  ],
  "textures": [
    {
      "sampler": 0,
      "source": 0
    },
    {
      "sampler": 0,
      "source": 1
    },
    {
      "sampler": 0,
      "source": 2
    }
  ]
}
