{
	"asset":{
		"generator":"Khronos glTF Blender I/O v4.2.70",
		"version":"2.0"
	},
	"scene":0,
	"scenes":[
		{
			"name":"Scene",
			"nodes":[
				3
			]
		}
	],
	"nodes":[
		{
			"mesh":0,
			"name":"Object_2"
		},
		{
			"mesh":1,
			"name":"Object_3"
		},
		{
			"children":[
				0,
				1
			],
			"name":"021.obj.cleaner.materialmerger.gles"
		},
		{
			"children":[
				2
			],
			"name":"Sketchfab_model",
			"rotation":[
				-0.70710688829422,
				0,
				0,
				0.7071066498756409
			]
		}
	],
	"materials":[
		{
			"doubleSided":true,
			"name":"Default.001",
			"normalTexture":{
				"index":0
			},
			"pbrMetallicRoughness":{
				"baseColorTexture":{
					"index":1
				},
				"metallicFactor":0,
				"roughnessFactor":0.5104801654815674
			}
		},
		{
			"doubleSided":true,
			"name":"default",
			"normalTexture":{
				"index":2
			},
			"pbrMetallicRoughness":{
				"baseColorTexture":{
					"index":3
				},
				"metallicFactor":0,
				"roughnessFactor":0.6837722063064575
			}
		}
	],
	"meshes":[
		{
			"name":"Object_0.001",
			"primitives":[
				{
					"attributes":{
						"POSITION":0,
						"NORMAL":1,
						"TEXCOORD_0":2
					},
					"indices":3,
					"material":0
				}
			]
		},
		{
			"name":"Object_1",
			"primitives":[
				{
					"attributes":{
						"POSITION":4,
						"NORMAL":5,
						"TEXCOORD_0":6
					},
					"indices":7,
					"material":1
				}
			]
		}
	],
	"textures":[
		{
			"sampler":0,
			"source":0
		},
		{
			"sampler":0,
			"source":1
		},
		{
			"sampler":0,
			"source":0
		},
		{
			"sampler":0,
			"source":1
		}
	],
	"images":[
		{
			"mimeType":"image/png",
			"name":"Default_normal",
			"uri":"textures/Default_normal.png"
		},
		{
			"mimeType":"image/png",
			"name":"Default_baseColor",
			"uri":"textures/Default_baseColor.png"
		}
	],
	"accessors":[
		{
			"bufferView":0,
			"componentType":5126,
			"count":1215,
			"max":[
				68.06810760498047,
				58.95503234863281,
				201.4826202392578
			],
			"min":[
				-99.04064178466797,
				-127.71632385253906,
				-1.700085163116455
			],
			"type":"VEC3"
		},
		{
			"bufferView":1,
			"componentType":5126,
			"count":1215,
			"type":"VEC3"
		},
		{
			"bufferView":2,
			"componentType":5126,
			"count":1215,
			"type":"VEC2"
		},
		{
			"bufferView":3,
			"componentType":5123,
			"count":4221,
			"type":"SCALAR"
		},
		{
			"bufferView":4,
			"componentType":5126,
			"count":855,
			"max":[
				7.943198204040527,
				-77.30372619628906,
				70.59679412841797
			],
			"min":[
				-40.88978576660156,
				-124.70538330078125,
				36.611209869384766
			],
			"type":"VEC3"
		},
		{
			"bufferView":5,
			"componentType":5126,
			"count":855,
			"type":"VEC3"
		},
		{
			"bufferView":6,
			"componentType":5126,
			"count":855,
			"type":"VEC2"
		},
		{
			"bufferView":7,
			"componentType":5123,
			"count":3432,
			"type":"SCALAR"
		}
	],
	"bufferViews":[
		{
			"buffer":0,
			"byteLength":14580,
			"byteOffset":0,
			"target":34962
		},
		{
			"buffer":0,
			"byteLength":14580,
			"byteOffset":14580,
			"target":34962
		},
		{
			"buffer":0,
			"byteLength":9720,
			"byteOffset":29160,
			"target":34962
		},
		{
			"buffer":0,
			"byteLength":8442,
			"byteOffset":38880,
			"target":34963
		},
		{
			"buffer":0,
			"byteLength":10260,
			"byteOffset":47324,
			"target":34962
		},
		{
			"buffer":0,
			"byteLength":10260,
			"byteOffset":57584,
			"target":34962
		},
		{
			"buffer":0,
			"byteLength":6840,
			"byteOffset":67844,
			"target":34962
		},
		{
			"buffer":0,
			"byteLength":6864,
			"byteOffset":74684,
			"target":34963
		}
	],
	"samplers":[
		{
			"magFilter":9729,
			"minFilter":9987
		}
	],
	"buffers":[
		{
			"byteLength":81548,
			"uri":"scene.bin"
		}
	]
}
