{
  "accessors": [
    {
      "bufferView": 2,
      "componentType": 5126,
      "count": 9,
      "max": [
        -50.27090072631836,
        13.093500137329102,
        10.551799774169922
      ],
      "min": [
        -52.27090072631836,
        11.093500137329102,
        10.448200225830078
      ],
      "type": "VEC3"
    },
    {
      "bufferView": 2,
      "byteOffset": 108,
      "componentType": 5126,
      "count": 9,
      "max": [
        0.10262960195541382,
        0.10262960195541382,
        1.0
      ],
      "min": [
        -0.10262960195541382,
        -0.10262960195541382,
        0.9947196841239929
      ],
      "type": "VEC3"
    },
    {
      "bufferView": 1,
      "componentType": 5126,
      "count": 9,
      "max": [
        1.0,
        1.0
      ],
      "min": [
        0.0,
        0.0
      ],
      "type": "VEC2"
    },
    {
      "bufferView": 0,
      "componentType": 5125,
      "count": 24,
      "type": "SCALAR"
    },
    {
      "bufferView": 2,
      "byteOffset": 216,
      "componentType": 5126,
      "count": 166,
      "max": [
        -53.76639938354492,
        6.5980401039123535,
        10.572099685668945
      ],
      "min": [
        -54.7755012512207,
        5.588940143585205,
        10.427900314331055
      ],
      "type": "VEC3"
    },
    {
      "bufferView": 2,
      "byteOffset": 2208,
      "componentType": 5126,
      "count": 166,
      "max": [
        1.0,
        1.0,
        1.0
      ],
      "min": [
        -1.0,
        -1.0,
        -1.0
      ],
      "type": "VEC3"
    },
    {
      "bufferView": 1,
      "byteOffset": 72,
      "componentType": 5126,
      "count": 166,
      "max": [
        0.478520005941391,
        0.7004650235176086
      ],
      "min": [
        0.01779480092227459,
        0.45875000953674316
      ],
      "type": "VEC2"
    },
    {
      "bufferView": 0,
      "byteOffset": 96,
      "componentType": 5125,
      "count": 552,
      "type": "SCALAR"
    },
    {
      "bufferView": 2,
      "byteOffset": 4200,
      "componentType": 5126,
      "count": 9,
      "max": [
        -50.27090072631836,
        11.093500137329102,
        10.551799774169922
      ],
      "min": [
        -52.27090072631836,
        9.093489646911621,
        10.448200225830078
      ],
      "type": "VEC3"
    },
    {
      "bufferView": 2,
      "byteOffset": 4308,
      "componentType": 5126,
      "count": 9,
      "max": [
        0.10262960195541382,
        0.10262960195541382,
        1.0
      ],
      "min": [
        -0.10262960195541382,
        -0.10262960195541382,
        0.9947196841239929
      ],
      "type": "VEC3"
    },
    {
      "bufferView": 1,
      "byteOffset": 1400,
      "componentType": 5126,
      "count": 9,
      "max": [
        1.0,
        1.0
      ],
      "min": [
        0.0,
        0.0
      ],
      "type": "VEC2"
    },
    {
      "bufferView": 0,
      "byteOffset": 2304,
      "componentType": 5125,
      "count": 24,
      "type": "SCALAR"
    },
    {
      "bufferView": 2,
      "byteOffset": 4416,
      "componentType": 5126,
      "count": 25,
      "max": [
        -46.41669845581055,
        10.947699546813965,
        10.588000297546387
      ],
      "min": [
        -48.12519836425781,
        9.239259719848633,
        10.411999702453613
      ],
      "type": "VEC3"
    },
    {
      "bufferView": 2,
      "byteOffset": 4716,
      "componentType": 5126,
      "count": 25,
      "max": [
        0.1579902023077011,
        0.1579902023077011,
        1.0
      ],
      "min": [
        -0.1579902023077011,
        -0.1579902023077011,
        0.9773176908493042
      ],
      "type": "VEC3"
    },
    {
      "bufferView": 1,
      "byteOffset": 1472,
      "componentType": 5126,
      "count": 25,
      "max": [
        0.965749979019165,
        0.9662070274353027
      ],
      "min": [
        0.03425050154328346,
        0.03379330039024353
      ],
      "type": "VEC2"
    },
    {
      "bufferView": 0,
      "byteOffset": 2400,
      "componentType": 5125,
      "count": 96,
      "type": "SCALAR"
    },
    {
      "bufferView": 2,
      "byteOffset": 5016,
      "componentType": 5126,
      "count": 9,
      "max": [
        -50.27090072631836,
        15.093500137329102,
        10.551799774169922
      ],
      "min": [
        -52.27090072631836,
        13.093500137329102,
        10.448200225830078
      ],
      "type": "VEC3"
    },
    {
      "bufferView": 2,
      "byteOffset": 5124,
      "componentType": 5126,
      "count": 9,
      "max": [
        0.10262960195541382,
        0.10262960195541382,
        1.0
      ],
      "min": [
        -0.10262960195541382,
        -0.10262960195541382,
        0.9947196841239929
      ],
      "type": "VEC3"
    },
    {
      "bufferView": 1,
      "byteOffset": 1672,
      "componentType": 5126,
      "count": 9,
      "max": [
        1.0,
        1.0
      ],
      "min": [
        0.0,
        0.0
      ],
      "type": "VEC2"
    },
    {
      "bufferView": 0,
      "byteOffset": 2784,
      "componentType": 5125,
      "count": 24,
      "type": "SCALAR"
    },
    {
      "bufferView": 2,
      "byteOffset": 5232,
      "componentType": 5126,
      "count": 262,
      "max": [
        -46.77399826049805,
        11.456199645996094,
        10.682000160217285
      ],
      "min": [
        -64.63359832763672,
        6.617259979248047,
        10.317999839782715
      ],
      "type": "VEC3"
    },
    {
      "bufferView": 2,
      "byteOffset": 8376,
      "componentType": 5126,
      "count": 262,
      "max": [
        1.0,
        1.0,
        1.0
      ],
      "min": [
        -1.0,
        -1.0,
        -1.0
      ],
      "type": "VEC3"
    },
    {
      "bufferView": 1,
      "byteOffset": 1744,
      "componentType": 5126,
      "count": 262,
      "max": [
        0.9853749871253967,
        0.980226993560791
      ],
      "min": [
        0.019440200179815292,
        0.721580982208252
      ],
      "type": "VEC2"
    },
    {
      "bufferView": 0,
      "byteOffset": 2880,
      "componentType": 5125,
      "count": 816,
      "type": "SCALAR"
    },
    {
      "bufferView": 2,
      "byteOffset": 11520,
      "componentType": 5126,
      "count": 632,
      "max": [
        -37.40129852294922,
        14.133099555969238,
        11.795700073242188
      ],
      "min": [
        -57.31340026855469,
        6.051050186157227,
        10.014300346374512
      ],
      "type": "VEC3"
    },
    {
      "bufferView": 2,
      "byteOffset": 19104,
      "componentType": 5126,
      "count": 632,
      "max": [
        1.0,
        1.0,
        1.0
      ],
      "min": [
        -1.0,
        -1.0,
        -1.0
      ],
      "type": "VEC3"
    },
    {
      "bufferView": 1,
      "byteOffset": 3840,
      "componentType": 5126,
      "count": 632,
      "max": [
        0.9992489814758301,
        0.9551820158958435
      ],
      "min": [
        0.0007508400012739003,
        0.018709300085902214
      ],
      "type": "VEC2"
    },
    {
      "bufferView": 0,
      "byteOffset": 6144,
      "componentType": 5125,
      "count": 3366,
      "type": "SCALAR"
    },
    {
      "bufferView": 2,
      "byteOffset": 26688,
      "componentType": 5126,
      "count": 680,
      "max": [
        -37.572200775146484,
        12.705499649047852,
        10.76449966430664
      ],
      "min": [
        -57.041099548339844,
        9.320469856262207,
        10.425999641418457
      ],
      "type": "VEC3"
    },
    {
      "bufferView": 2,
      "byteOffset": 34848,
      "componentType": 5126,
      "count": 680,
      "max": [
        0.9842214584350586,
        0.9849239587783813,
        1.0
      ],
      "min": [
        -0.9867020845413208,
        -0.9849239587783813,
        -1.0
      ],
      "type": "VEC3"
    },
    {
      "bufferView": 1,
      "byteOffset": 8896,
      "componentType": 5126,
      "count": 680,
      "max": [
        0.9785820245742798,
        0.9813060164451599
      ],
      "min": [
        0.011559500358998775,
        0.27994298934936523
      ],
      "type": "VEC2"
    },
    {
      "bufferView": 0,
      "byteOffset": 19608,
      "componentType": 5125,
      "count": 2400,
      "type": "SCALAR"
    },
    {
      "bufferView": 2,
      "byteOffset": 43008,
      "componentType": 5126,
      "count": 18,
      "max": [
        -37.05339813232422,
        15.55109977722168,
        11.20359992980957
      ],
      "min": [
        -48.72850036621094,
        10.375900268554688,
        10.216500282287598
      ],
      "type": "VEC3"
    },
    {
      "bufferView": 2,
      "byteOffset": 43224,
      "componentType": 5126,
      "count": 18,
      "max": [
        0.33035069704055786,
        0.33035069704055786,
        1.0
      ],
      "min": [
        -0.33035069704055786,
        -0.33035069704055786,
        0.9383472204208374
      ],
      "type": "VEC3"
    },
    {
      "bufferView": 1,
      "byteOffset": 14336,
      "componentType": 5126,
      "count": 18,
      "max": [
        0.3729340136051178,
        0.9734020233154297
      ],
      "min": [
        0.018996600061655045,
        0.6194649934768677
      ],
      "type": "VEC2"
    },
    {
      "bufferView": 0,
      "byteOffset": 29208,
      "componentType": 5125,
      "count": 72,
      "type": "SCALAR"
    }
  ],
  "asset": {
    "extras": {
      "author": "SMF Friends Fan 2024 YouTube Live (https://sketchfab.com/cherylhill28)",
      "license": "CC-BY-4.0 (http://creativecommons.org/licenses/by/4.0/)",
      "source": "https://sketchfab.com/3d-models/tscp-krabby-patty-add6c17e306c49e0a49be1d9098d6435",
      "title": "TSCP - Krabby Patty"
    },
    "generator": "Sketchfab-16.51.0",
    "version": "2.0"
  },
  "bufferViews": [
    {
      "buffer": 0,
      "byteLength": 29496,
      "name": "floatBufferViews",
      "target": 34963
    },
    {
      "buffer": 0,
      "byteLength": 14480,
      "byteOffset": 29496,
      "byteStride": 8,
      "name": "floatBufferViews",
      "target": 34962
    },
    {
      "buffer": 0,
      "byteLength": 43440,
      "byteOffset": 43976,
      "byteStride": 12,
      "name": "floatBufferViews",
      "target": 34962
    }
  ],
  "buffers": [
    {
      "byteLength": 87416,
      "uri": "scene.bin"
    }
  ],
  "images": [
    {
      "uri": "textures/Part14Mtl_baseColor.png"
    },
    {
      "uri": "textures/Part16Mtl_baseColor.png"
    },
    {
      "uri": "textures/Part1Mtl_baseColor.png"
    },
    {
      "uri": "textures/Part2Mtl_baseColor.png"
    },
    {
      "uri": "textures/Part3Mtl_baseColor.png"
    },
    {
      "uri": "textures/Part4Mtl_baseColor.png"
    },
    {
      "uri": "textures/Part7Mtl_baseColor.png"
    },
    {
      "uri": "textures/Part9Mtl_baseColor.png"
    }
  ],
  "materials": [
    {
      "name": "Part14Mtl",
      "pbrMetallicRoughness": {
        "baseColorTexture": {
          "index": 0
        },
        "metallicFactor": 0.0,
        "roughnessFactor": 0.6
      }
    },
    {
      "alphaMode": "BLEND",
      "doubleSided": true,
      "name": "Part16Mtl",
      "pbrMetallicRoughness": {
        "baseColorTexture": {
          "index": 1
        },
        "metallicFactor": 0.0,
        "roughnessFactor": 0.6
      }
    },
    {
      "name": "Part18Mtl",
      "pbrMetallicRoughness": {
        "baseColorTexture": {
          "index": 0
        },
        "metallicFactor": 0.0,
        "roughnessFactor": 0.6
      }
    },
    {
      "name": "Part1Mtl",
      "pbrMetallicRoughness": {
        "baseColorTexture": {
          "index": 2
        },
        "metallicFactor": 0.0,
        "roughnessFactor": 0.6
      }
    },
    {
      "name": "Part2Mtl",
      "pbrMetallicRoughness": {
        "baseColorTexture": {
          "index": 3
        },
        "metallicFactor": 0.0,
        "roughnessFactor": 0.6
      }
    },
    {
      "alphaMode": "BLEND",
      "doubleSided": true,
      "name": "Part3Mtl",
      "pbrMetallicRoughness": {
        "baseColorTexture": {
          "index": 4
        },
        "metallicFactor": 0.0,
        "roughnessFactor": 0.6
      }
    },
    {
      "alphaMode": "BLEND",
      "doubleSided": true,
      "name": "Part4Mtl",
      "pbrMetallicRoughness": {
        "baseColorTexture": {
          "index": 5
        },
        "metallicFactor": 0.0,
        "roughnessFactor": 0.6
      }
    },
    {
      "doubleSided": true,
      "name": "Part7Mtl",
      "pbrMetallicRoughness": {
        "baseColorTexture": {
          "index": 6
        },
        "metallicFactor": 0.0,
        "roughnessFactor": 0.6
      }
    },
    {
      "alphaMode": "BLEND",
      "doubleSided": true,
      "name": "Part9Mtl",
      "pbrMetallicRoughness": {
        "baseColorTexture": {
          "index": 7
        },
        "metallicFactor": 0.0,
        "roughnessFactor": 0.6
      }
    }
  ],
  "meshes": [
    {
      "name": "Object_0",
      "primitives": [
        {
          "attributes": {
            "NORMAL": 1,
            "POSITION": 0,
            "TEXCOORD_0": 2
          },
          "indices": 3,
          "material": 1,
          "mode": 4
        }
      ]
    },
    {
      "name": "Object_1",
      "primitives": [
        {
          "attributes": {
            "NORMAL": 5,
            "POSITION": 4,
            "TEXCOORD_0": 6
          },
          "indices": 7,
          "material": 2,
          "mode": 4
        }
      ]
    },
    {
      "name": "Object_2",
      "primitives": [
        {
          "attributes": {
            "NORMAL": 9,
            "POSITION": 8,
            "TEXCOORD_0": 10
          },
          "indices": 11,
          "material": 5,
          "mode": 4
        }
      ]
    },
    {
      "name": "Object_3",
      "primitives": [
        {
          "attributes": {
            "NORMAL": 13,
            "POSITION": 12,
            "TEXCOORD_0": 14
          },
          "indices": 15,
          "material": 7,
          "mode": 4
        }
      ]
    },
    {
      "name": "Object_4",
      "primitives": [
        {
          "attributes": {
            "NORMAL": 17,
            "POSITION": 16,
            "TEXCOORD_0": 18
          },
          "indices": 19,
          "material": 8,
          "mode": 4
        }
      ]
    },
    {
      "name": "Object_5",
      "primitives": [
        {
          "attributes": {
            "NORMAL": 21,
            "POSITION": 20,
            "TEXCOORD_0": 22
          },
          "indices": 23,
          "material": 0,
          "mode": 4
        }
      ]
    },
    {
      "name": "Object_6",
      "primitives": [
        {
          "attributes": {
            "NORMAL": 25,
            "POSITION": 24,
            "TEXCOORD_0": 26
          },
          "indices": 27,
          "material": 3,
          "mode": 4
        }
      ]
    },
    {
      "name": "Object_7",
      "primitives": [
        {
          "attributes": {
            "NORMAL": 29,
            "POSITION": 28,
            "TEXCOORD_0": 30
          },
          "indices": 31,
          "material": 4,
          "mode": 4
        }
      ]
    },
    {
      "name": "Object_8",
      "primitives": [
        {
          "attributes": {
            "NORMAL": 33,
            "POSITION": 32,
            "TEXCOORD_0": 34
          },
          "indices": 35,
          "material": 6,
          "mode": 4
        }
      ]
    }
  ],
  "nodes": [
    {
      "children": [
        1
      ],
      "matrix": [
        1.0,
        0.0,
        0.0,
        0.0,
        0.0,
        2.220446049250313e-16,
        -1.0,
        0.0,
        0.0,
        1.0,
        2.220446049250313e-16,
        0.0,
        0.0,
        0.0,
        0.0,
        1.0
      ],
      "name": "Sketchfab_model"
    },
    {
      "children": [
        2,
        3,
        4,
        5,
        6,
        7,
        8,
        9,
        10
      ],
      "name": "krabby patty.obj.cleaner.materialmerger.gles"
    },
    {
      "mesh": 0,
      "name": "Object_2"
    },
    {
      "mesh": 1,
      "name": "Object_3"
    },
    {
      "mesh": 2,
      "name": "Object_4"
    },
    {
      "mesh": 3,
      "name": "Object_5"
    },
    {
      "mesh": 4,
      "name": "Object_6"
    },
    {
      "mesh": 5,
      "name": "Object_7"
    },
    {
      "mesh": 6,
      "name": "Object_8"
    },
    {
      "mesh": 7,
      "name": "Object_9"
    },
    {
      "mesh": 8,
      "name": "Object_10"
    }
  ],
  "samplers": [
    {
      "magFilter": 9729,
      "minFilter": 9987,
      "wrapS": 10497,
      "wrapT": 10497
    }
  ],
  "scene": 0,
  "scenes": [
    {
      "name": "Sketchfab_Scene",
      "nodes": [
        0
      ]
    }
  ],
  "textures": [
    {
      "sampler": 0,
      "source": 0
    },
    {
      "sampler": 0,
      "source": 1
    },
    {
      "sampler": 0,
      "source": 2
    },
    {
      "sampler": 0,
      "source": 3
    },
    {
      "sampler": 0,
      "source": 4
    },
    {
      "sampler": 0,
      "source": 5
    },
    {
      "sampler": 0,
      "source": 6
    },
    {
      "sampler": 0,
      "source": 7
    }
  ]
}
