{
  "accessors": [
    {
      "bufferView": 2,
      "componentType": 5126,
      "count": 3081,
      "max": [
        1.0000001192092896,
        0.13743847608566284,
        1.005328893661499
      ],
      "min": [
        -1.0000001192092896,
        0.0017070379108190536,
        -1.0062330961227417
      ],
      "type": "VEC3"
    },
    {
      "bufferView": 2,
      "byteOffset": 36972,
      "componentType": 5126,
      "count": 3081,
      "max": [
        1.0,
        1.0,
        1.0
      ],
      "min": [
        -1.0,
        -0.9988455772399902,
        -1.0
      ],
      "type": "VEC3"
    },
    {
      "bufferView": 1,
      "componentType": 5126,
      "count": 3081,
      "max": [
        1.0000001192092896,
        1.0000003576278687
      ],
      "min": [
        0.0,
        0.0
      ],
      "type": "VEC2"
    },
    {
      "bufferView": 0,
      "componentType": 5125,
      "count": 13440,
      "type": "SCALAR"
    },
    {
      "bufferView": 2,
      "byteOffset": 73944,
      "componentType": 5126,
      "count": 629,
      "max": [
        0.9586941599845886,
        0.0025605568662285805,
        0.9986342787742615
      ],
      "min": [
        -0.9583334922790527,
        0.0,
        -0.9998387098312378
      ],
      "type": "VEC3"
    },
    {
      "bufferView": 2,
      "byteOffset": 81492,
      "componentType": 5126,
      "count": 629,
      "max": [
        0.05555279180407524,
        -0.9621306657791138,
        0.26225826144218445
      ],
      "min": [
        -0.05665736645460129,
        -1.0,
        -0.27228134870529175
      ],
      "type": "VEC3"
    },
    {
      "bufferView": 1,
      "byteOffset": 24648,
      "componentType": 5126,
      "count": 629,
      "max": [
        0.764438271522522,
        0.6930522918701172
      ],
      "min": [
        0.22023113071918488,
        0.31286048889160156
      ],
      "type": "VEC2"
    },
    {
      "bufferView": 0,
      "byteOffset": 53760,
      "componentType": 5125,
      "count": 3456,
      "type": "SCALAR"
    }
  ],
  "asset": {
    "extras": {
      "author": "Janice Emmons 1990-present (https://sketchfab.com/JaniceEmmons1990)",
      "license": "CC-BY-4.0 (http://creativecommons.org/licenses/by/4.0/)",
      "source": "https://sketchfab.com/3d-models/mr-krabss-first-dollar-624dc7375c1247df9d6cfbd0ae52958a",
      "title": "Mr. Krabs's First Dollar"
    },
    "generator": "Sketchfab-16.53.0",
    "version": "2.0"
  },
  "bufferViews": [
    {
      "buffer": 0,
      "byteLength": 67584,
      "name": "floatBufferViews",
      "target": 34963
    },
    {
      "buffer": 0,
      "byteLength": 29680,
      "byteOffset": 67584,
      "byteStride": 8,
      "name": "floatBufferViews",
      "target": 34962
    },
    {
      "buffer": 0,
      "byteLength": 89040,
      "byteOffset": 97264,
      "byteStride": 12,
      "name": "floatBufferViews",
      "target": 34962
    }
  ],
  "buffers": [
    {
      "byteLength": 186304,
      "uri": "scene.bin"
    }
  ],
  "images": [
    {
      "uri": "textures/Material.002_baseColor.jpeg"
    }
  ],
  "materials": [
    {
      "doubleSided": true,
      "name": "Material.001",
      "pbrMetallicRoughness": {
        "baseColorFactor": [
          0.520996,
          0.768151,
          0.278894,
          1.0
        ],
        "metallicFactor": 0.0,
        "roughnessFactor": 0.754777
      }
    },
    {
      "doubleSided": true,
      "name": "Material.002",
      "pbrMetallicRoughness": {
        "baseColorTexture": {
          "index": 0
        },
        "metallicFactor": 0.0,
        "roughnessFactor": 0.754777
      }
    }
  ],
  "meshes": [
    {
      "name": "Object_0",
      "primitives": [
        {
          "attributes": {
            "NORMAL": 1,
            "POSITION": 0,
            "TEXCOORD_0": 2
          },
          "indices": 3,
          "material": 0,
          "mode": 4
        }
      ]
    },
    {
      "name": "Object_1",
      "primitives": [
        {
          "attributes": {
            "NORMAL": 5,
            "POSITION": 4,
            "TEXCOORD_0": 6
          },
          "indices": 7,
          "material": 1,
          "mode": 4
        }
      ]
    }
  ],
  "nodes": [
    {
      "children": [
        1
      ],
      "matrix": [
        1.0,
        0.0,
        0.0,
        0.0,
        0.0,
        2.220446049250313e-16,
        -1.0,
        0.0,
        0.0,
        1.0,
        2.220446049250313e-16,
        0.0,
        0.0,
        0.0,
        0.0,
        1.0
      ],
      "name": "Sketchfab_model"
    },
    {
      "children": [
        2
      ],
      "name": "root"
    },
    {
      "children": [
        3
      ],
      "matrix": [
        1.0,
        0.0,
        0.0,
        0.0,
        0.0,
        2.220446049250313e-16,
        1.0,
        0.0,
        0.0,
        -1.0,
        2.220446049250313e-16,
        0.0,
        0.0,
        0.0,
        0.0,
        1.0
      ],
      "name": "GLTF_SceneRootNode"
    },
    {
      "children": [
        4,
        5
      ],
      "matrix": [
        5.99817457264003e-08,
        -0.7115804553031897,
        -0.0,
        0.0,
        1.0281759500503505,
        8.66687497363079e-08,
        0.0,
        0.0,
        0.0,
        0.0,
        1.3330339193344116,
        0.0,
        0.0,
        0.6787324547767639,
        0.0,
        1.0
      ],
      "name": "Dollar_1"
    },
    {
      "mesh": 0,
      "name": "Object_4"
    },
    {
      "mesh": 1,
      "name": "Object_5"
    }
  ],
  "samplers": [
    {
      "magFilter": 9729,
      "minFilter": 9987,
      "wrapS": 10497,
      "wrapT": 10497
    }
  ],
  "scene": 0,
  "scenes": [
    {
      "name": "Sketchfab_Scene",
      "nodes": [
        0
      ]
    }
  ],
  "textures": [
    {
      "sampler": 0,
      "source": 0
    }
  ]
}
