{
  "accessors": [
    {
      "bufferView": 2,
      "componentType": 5126,
      "count": 1651,
      "max": [
        -476.5429992675781,
        508.70098876953125,
        12.558799743652344
      ],
      "min": [
        -481.8340148925781,
        504.0889892578125,
        10.001299858093262
      ],
      "type": "VEC3"
    },
    {
      "bufferView": 2,
      "byteOffset": 19812,
      "componentType": 5126,
      "count": 1651,
      "max": [
        0.9999998211860657,
        0.999977707862854,
        1.0
      ],
      "min": [
        -0.9999998211860657,
        -0.9999611377716064,
        -1.0
      ],
      "type": "VEC3"
    },
    {
      "bufferView": 1,
      "componentType": 5126,
      "count": 1651,
      "max": [
        0.9999030232429504,
        0.9873780012130737
      ],
      "min": [
        9.727480210131034e-05,
        0.023375000804662704
      ],
      "type": "VEC2"
    },
    {
      "bufferView": 0,
      "componentType": 5125,
      "count": 6378,
      "type": "SCALAR"
    },
    {
      "bufferView": 2,
      "byteOffset": 39624,
      "componentType": 5126,
      "count": 2388,
      "max": [
        -474.9960021972656,
        510.8219909667969,
        12.22599983215332
      ],
      "min": [
        -483.739990234375,
        502.0780029296875,
        9.933989524841309
      ],
      "type": "VEC3"
    },
    {
      "bufferView": 2,
      "byteOffset": 68280,
      "componentType": 5126,
      "count": 2388,
      "max": [
        1.0,
        1.0,
        1.0
      ],
      "min": [
        -1.0,
        -1.0,
        -1.0
      ],
      "type": "VEC3"
    },
    {
      "bufferView": 1,
      "byteOffset": 13208,
      "componentType": 5126,
      "count": 2388,
      "max": [
        0.9940329790115356,
        0.9665489792823792
      ],
      "min": [
        0.005967290140688419,
        0.005469080060720444
      ],
      "type": "VEC2"
    },
    {
      "bufferView": 0,
      "byteOffset": 25512,
      "componentType": 5125,
      "count": 7248,
      "type": "SCALAR"
    }
  ],
  "asset": {
    "extras": {
      "author": "SMF Friends Fan 2024 YouTube Live (https://sketchfab.com/cherylhill28)",
      "license": "CC-BY-4.0 (http://creativecommons.org/licenses/by/4.0/)",
      "source": "https://sketchfab.com/3d-models/tscp-krusty-krab-table-c49cf42736344c58ade808dfa4c2ba4b",
      "title": "TSCP - Krusty Krab Table"
    },
    "generator": "Sketchfab-16.51.0",
    "version": "2.0"
  },
  "bufferViews": [
    {
      "buffer": 0,
      "byteLength": 54504,
      "name": "floatBufferViews",
      "target": 34963
    },
    {
      "buffer": 0,
      "byteLength": 32312,
      "byteOffset": 54504,
      "byteStride": 8,
      "name": "floatBufferViews",
      "target": 34962
    },
    {
      "buffer": 0,
      "byteLength": 96936,
      "byteOffset": 86816,
      "byteStride": 12,
      "name": "floatBufferViews",
      "target": 34962
    }
  ],
  "buffers": [
    {
      "byteLength": 183752,
      "uri": "scene.bin"
    }
  ],
  "images": [
    {
      "uri": "textures/Material_baseColor.png"
    },
    {
      "uri": "textures/Material_1_baseColor.png"
    }
  ],
  "materials": [
    {
      "doubleSided": true,
      "name": "Material",
      "pbrMetallicRoughness": {
        "baseColorTexture": {
          "index": 0
        },
        "metallicFactor": 0.0,
        "roughnessFactor": 0.6
      }
    },
    {
      "doubleSided": true,
      "name": "Material_1",
      "pbrMetallicRoughness": {
        "baseColorTexture": {
          "index": 1
        },
        "metallicFactor": 0.0,
        "roughnessFactor": 0.6
      }
    }
  ],
  "meshes": [
    {
      "name": "Object_0",
      "primitives": [
        {
          "attributes": {
            "NORMAL": 1,
            "POSITION": 0,
            "TEXCOORD_0": 2
          },
          "indices": 3,
          "material": 0,
          "mode": 4
        }
      ]
    },
    {
      "name": "Object_1",
      "primitives": [
        {
          "attributes": {
            "NORMAL": 5,
            "POSITION": 4,
            "TEXCOORD_0": 6
          },
          "indices": 7,
          "material": 1,
          "mode": 4
        }
      ]
    }
  ],
  "nodes": [
    {
      "children": [
        1
      ],
      "matrix": [
        1.0,
        0.0,
        0.0,
        0.0,
        0.0,
        2.220446049250313e-16,
        -1.0,
        0.0,
        0.0,
        1.0,
        2.220446049250313e-16,
        0.0,
        0.0,
        0.0,
        0.0,
        1.0
      ],
      "name": "Sketchfab_model"
    },
    {
      "children": [
        2,
        3
      ],
      "name": "tscp krusty krab table .obj.cleaner.materialmerger.gles"
    },
    {
      "mesh": 0,
      "name": "Object_2"
    },
    {
      "mesh": 1,
      "name": "Object_3"
    }
  ],
  "samplers": [
    {
      "magFilter": 9729,
      "minFilter": 9987,
      "wrapS": 10497,
      "wrapT": 10497
    }
  ],
  "scene": 0,
  "scenes": [
    {
      "name": "Sketchfab_Scene",
      "nodes": [
        0
      ]
    }
  ],
  "textures": [
    {
      "sampler": 0,
      "source": 0
    },
    {
      "sampler": 0,
      "source": 1
    }
  ]
}
