{
	"asset":{
		"generator":"Khronos glTF Blender I/O v4.2.70",
		"version":"2.0"
	},
	"scene":0,
	"scenes":[
		{
			"name":"Scene",
			"nodes":[
				3
			]
		}
	],
	"nodes":[
		{
			"mesh":0,
			"name":"Object_2",
			"translation":[
				-3.814697265625e-06,
				9.206266440742183e-06,
				0
			]
		},
		{
			"mesh":1,
			"name":"Object_3",
			"translation":[
				-3.814697265625e-06,
				9.206266440742183e-06,
				0
			]
		},
		{
			"children":[
				0,
				1
			],
			"name":"Building 02.obj.cleaner.materialmerger.gles",
			"translation":[
				-3.814697265625e-06,
				9.206266440742183e-06,
				0
			]
		},
		{
			"children":[
				2
			],
			"name":"Sketchfab_model",
			"rotation":[
				-0.70710688829422,
				0,
				0,
				0.7071066498756409
			],
			"scale":[
				0.5,
				0.5000000596046448,
				0.5000000596046448
			],
			"translation":[
				26.720001220703125,
				-34.2599983215332,
				144.6199951171875
			]
		}
	],
	"materials":[
		{
			"name":"Meshesbuilding1building1outlinetop1Mtl",
			"pbrMetallicRoughness":{
				"baseColorTexture":{
					"index":0
				},
				"metallicFactor":0,
				"roughnessFactor":0.6000000238418579
			}
		},
		{
			"name":"Meshesbuilding1building1outlinetop2Mtl",
			"pbrMetallicRoughness":{
				"baseColorTexture":{
					"index":1
				},
				"metallicFactor":0,
				"roughnessFactor":0.6000000238418579
			}
		}
	],
	"meshes":[
		{
			"name":"Object_0",
			"primitives":[
				{
					"attributes":{
						"POSITION":0,
						"NORMAL":1,
						"TEXCOORD_0":2
					},
					"indices":3,
					"material":0
				}
			]
		},
		{
			"name":"Object_1",
			"primitives":[
				{
					"attributes":{
						"POSITION":4,
						"NORMAL":5,
						"TEXCOORD_0":6
					},
					"indices":7,
					"material":1
				}
			]
		}
	],
	"textures":[
		{
			"sampler":0,
			"source":0
		},
		{
			"sampler":0,
			"source":1
		}
	],
	"images":[
		{
			"mimeType":"image/png",
			"name":"Meshesbuilding1building1outlinetop1Mtl_baseColor",
			"uri":"textures/Meshesbuilding1building1outlinetop1Mtl_baseColor.png"
		},
		{
			"mimeType":"image/png",
			"name":"Meshesbuilding1building1outlinetop2Mtl_baseColor",
			"uri":"textures/Meshesbuilding1building1outlinetop2Mtl_baseColor.png"
		}
	],
	"accessors":[
		{
			"bufferView":0,
			"componentType":5126,
			"count":1765,
			"max":[
				-52.845401763916016,
				342.7099914550781,
				78.1216812133789
			],
			"min":[
				-79.21880340576172,
				322.8138122558594,
				10
			],
			"type":"VEC3"
		},
		{
			"bufferView":1,
			"componentType":5126,
			"count":1765,
			"type":"VEC3"
		},
		{
			"bufferView":2,
			"componentType":5126,
			"count":1765,
			"type":"VEC2"
		},
		{
			"bufferView":3,
			"componentType":5123,
			"count":5346,
			"type":"SCALAR"
		},
		{
			"bufferView":4,
			"componentType":5126,
			"count":1389,
			"max":[
				-45.921234130859375,
				373.9111328125,
				78.37614440917969
			],
			"min":[
				-71.08638000488281,
				348.6756896972656,
				10
			],
			"type":"VEC3"
		},
		{
			"bufferView":5,
			"componentType":5126,
			"count":1389,
			"type":"VEC3"
		},
		{
			"bufferView":6,
			"componentType":5126,
			"count":1389,
			"type":"VEC2"
		},
		{
			"bufferView":7,
			"componentType":5123,
			"count":3600,
			"type":"SCALAR"
		}
	],
	"bufferViews":[
		{
			"buffer":0,
			"byteLength":21180,
			"byteOffset":0,
			"target":34962
		},
		{
			"buffer":0,
			"byteLength":21180,
			"byteOffset":21180,
			"target":34962
		},
		{
			"buffer":0,
			"byteLength":14120,
			"byteOffset":42360,
			"target":34962
		},
		{
			"buffer":0,
			"byteLength":10692,
			"byteOffset":56480,
			"target":34963
		},
		{
			"buffer":0,
			"byteLength":16668,
			"byteOffset":67172,
			"target":34962
		},
		{
			"buffer":0,
			"byteLength":16668,
			"byteOffset":83840,
			"target":34962
		},
		{
			"buffer":0,
			"byteLength":11112,
			"byteOffset":100508,
			"target":34962
		},
		{
			"buffer":0,
			"byteLength":7200,
			"byteOffset":111620,
			"target":34963
		}
	],
	"samplers":[
		{
			"magFilter":9729,
			"minFilter":9987
		}
	],
	"buffers":[
		{
			"byteLength":118820,
			"uri":"scene.bin"
		}
	]
}
