{
  "accessors": [
    {
      "bufferView": 2,
      "componentType": 5126,
      "count": 985,
      "max": [
        14.113800048828125,
        59.890499114990234,
        19.110597610473633
      ],
      "min": [
        -14.19480037689209,
        0.27810001373291016,
        -14.882401466369629
      ],
      "type": "VEC3"
    },
    {
      "bufferView": 2,
      "byteOffset": 11820,
      "componentType": 5126,
      "count": 985,
      "max": [
        1.0,
        1.0,
        0.9999929070472717
      ],
      "min": [
        -1.0,
        -1.0,
        -0.9999929070472717
      ],
      "type": "VEC3"
    },
    {
      "bufferView": 1,
      "componentType": 5126,
      "count": 985,
      "max": [
        0.7439749836921692,
        0.9960062503814697
      ],
      "min": [
        0.005034387111663818,
        0.3732093572616577
      ],
      "type": "VEC2"
    },
    {
      "bufferView": 1,
      "byteOffset": 7880,
      "componentType": 5126,
      "count": 985,
      "max": [
        0.7439749836921692,
        0.9960062503814697
      ],
      "min": [
        0.005034387111663818,
        0.3732093572616577
      ],
      "type": "VEC2"
    },
    {
      "bufferView": 1,
      "byteOffset": 15760,
      "componentType": 5126,
      "count": 985,
      "max": [
        0.7439749836921692,
        0.9960062503814697
      ],
      "min": [
        0.005034387111663818,
        0.3732093572616577
      ],
      "type": "VEC2"
    },
    {
      "bufferView": 1,
      "byteOffset": 23640,
      "componentType": 5126,
      "count": 985,
      "max": [
        0.7439749836921692,
        0.9960062503814697
      ],
      "min": [
        0.005034387111663818,
        0.3732093572616577
      ],
      "type": "VEC2"
    },
    {
      "bufferView": 1,
      "byteOffset": 31520,
      "componentType": 5126,
      "count": 985,
      "max": [
        0.7439749836921692,
        0.9960062503814697
      ],
      "min": [
        0.005034387111663818,
        0.3732093572616577
      ],
      "type": "VEC2"
    },
    {
      "bufferView": 1,
      "byteOffset": 39400,
      "componentType": 5126,
      "count": 985,
      "max": [
        0.7439749836921692,
        0.9960062503814697
      ],
      "min": [
        0.005034387111663818,
        0.3732093572616577
      ],
      "type": "VEC2"
    },
    {
      "bufferView": 1,
      "byteOffset": 47280,
      "componentType": 5126,
      "count": 985,
      "max": [
        0.7439749836921692,
        0.9960062503814697
      ],
      "min": [
        0.005034387111663818,
        0.3732093572616577
      ],
      "type": "VEC2"
    },
    {
      "bufferView": 1,
      "byteOffset": 55160,
      "componentType": 5126,
      "count": 985,
      "max": [
        0.7439749836921692,
        0.9960062503814697
      ],
      "min": [
        0.005034387111663818,
        0.3732093572616577
      ],
      "type": "VEC2"
    },
    {
      "bufferView": 1,
      "byteOffset": 63040,
      "componentType": 5126,
      "count": 985,
      "max": [
        0.7439749836921692,
        0.9960062503814697
      ],
      "min": [
        0.005034387111663818,
        0.3732093572616577
      ],
      "type": "VEC2"
    },
    {
      "bufferView": 0,
      "componentType": 5125,
      "count": 2181,
      "type": "SCALAR"
    }
  ],
  "asset": {
    "extras": {
      "author": "gemmygod (https://sketchfab.com/gemmygod)",
      "license": "CC-BY-4.0 (http://creativecommons.org/licenses/by/4.0/)",
      "source": "https://sketchfab.com/3d-models/enemy-spawner-goofy-goober-dcef6d5f4b9046268b54460af0cece88",
      "title": "Enemy Spawner - Goofy Goober"
    },
    "generator": "Sketchfab-12.68.0",
    "version": "2.0"
  },
  "bufferViews": [
    {
      "buffer": 0,
      "byteLength": 8724,
      "name": "floatBufferViews",
      "target": 34963
    },
    {
      "buffer": 0,
      "byteLength": 70920,
      "byteOffset": 8724,
      "byteStride": 8,
      "name": "floatBufferViews",
      "target": 34962
    },
    {
      "buffer": 0,
      "byteLength": 23640,
      "byteOffset": 79644,
      "byteStride": 12,
      "name": "floatBufferViews",
      "target": 34962
    }
  ],
  "buffers": [
    {
      "byteLength": 103284,
      "uri": "scene.bin"
    }
  ],
  "images": [
    {
      "uri": "textures/Material_68_baseColor.png"
    }
  ],
  "materials": [
    {
      "doubleSided": true,
      "name": "Material_68",
      "pbrMetallicRoughness": {
        "baseColorTexture": {
          "index": 0
        },
        "metallicFactor": 0.0
      }
    }
  ],
  "meshes": [
    {
      "name": "node_id3_Material_68_0",
      "primitives": [
        {
          "attributes": {
            "NORMAL": 1,
            "POSITION": 0,
            "TEXCOORD_0": 2,
            "TEXCOORD_1": 3,
            "TEXCOORD_2": 4,
            "TEXCOORD_3": 5,
            "TEXCOORD_4": 6,
            "TEXCOORD_5": 7,
            "TEXCOORD_6": 8,
            "TEXCOORD_7": 9,
            "TEXCOORD_8": 10
          },
          "indices": 11,
          "material": 0,
          "mode": 4
        }
      ]
    }
  ],
  "nodes": [
    {
      "children": [
        1
      ],
      "matrix": [
        1.0,
        0.0,
        0.0,
        0.0,
        0.0,
        2.220446049250313e-16,
        -1.0,
        0.0,
        0.0,
        1.0,
        2.220446049250313e-16,
        0.0,
        0.0,
        0.0,
        0.0,
        1.0
      ],
      "name": "Sketchfab_model"
    },
    {
      "children": [
        2
      ],
      "matrix": [
        1.0,
        0.0,
        0.0,
        0.0,
        0.0,
        0.0,
        1.0,
        0.0,
        0.0,
        -1.0,
        0.0,
        0.0,
        0.0,
        0.0,
        0.0,
        1.0
      ],
      "name": "b3f2b57ecd014ccfbb0912fd1d0598ec.fbx"
    },
    {
      "children": [
        3
      ],
      "name": "RootNode"
    },
    {
      "children": [
        4
      ],
      "name": "root"
    },
    {
      "children": [
        5
      ],
      "matrix": [
        0.008588817901909351,
        0.0,
        0.0,
        0.0,
        0.0,
        0.008588817901909351,
        0.0,
        0.0,
        0.0,
        0.0,
        0.008588817901909351,
        0.0,
        0.0003478485450614244,
        -0.25838857889175415,
        0.23784239590168,
        1.0
      ],
      "name": "node_id3"
    },
    {
      "mesh": 0,
      "name": "node_id3_Material_68_0"
    }
  ],
  "samplers": [
    {
      "magFilter": 9729,
      "minFilter": 9987,
      "wrapS": 10497,
      "wrapT": 10497
    }
  ],
  "scene": 0,
  "scenes": [
    {
      "name": "Sketchfab_Scene",
      "nodes": [
        0
      ]
    }
  ],
  "textures": [
    {
      "sampler": 0,
      "source": 0
    }
  ]
}
