{
  "accessors": [
    {
      "bufferView": 2,
      "componentType": 5126,
      "count": 2172,
      "max": [
        16.083900451660156,
        53.54930114746094,
        173.9510040283203
      ],
      "min": [
        -78.6417007446289,
        7.905580997467041,
        83.54609680175781
      ],
      "type": "VEC3"
    },
    {
      "bufferView": 2,
      "byteOffset": 26064,
      "componentType": 5126,
      "count": 2172,
      "max": [
        1.0,
        0.9999861121177673,
        0.9999527931213379
      ],
      "min": [
        -1.0,
        -0.9999921917915344,
        -1.0
      ],
      "type": "VEC3"
    },
    {
      "bufferView": 1,
      "componentType": 5126,
      "count": 2172,
      "max": [
        0.9568639993667603,
        0.9997699856758118
      ],
      "min": [
        0.00022969099518377334,
        0.00022971599537413567
      ],
      "type": "VEC2"
    },
    {
      "bufferView": 0,
      "componentType": 5125,
      "count": 5226,
      "type": "SCALAR"
    },
    {
      "bufferView": 2,
      "byteOffset": 52128,
      "componentType": 5126,
      "count": 1940,
      "max": [
        16.354900360107422,
        43.15230941772461,
        161.54800415039063
      ],
      "min": [
        -78.91020202636719,
        16.631790161132813,
        83.20999908447266
      ],
      "type": "VEC3"
    },
    {
      "bufferView": 2,
      "byteOffset": 75408,
      "componentType": 5126,
      "count": 1940,
      "max": [
        0.9996384978294373,
        0.9999815225601196,
        0.9999985098838806
      ],
      "min": [
        -0.9996386170387268,
        -0.9998641014099121,
        -0.9999988079071045
      ],
      "type": "VEC3"
    },
    {
      "bufferView": 1,
      "byteOffset": 17376,
      "componentType": 5126,
      "count": 1940,
      "max": [
        0.14954400062561035,
        0.11050300300121307
      ],
      "min": [
        0.08205769956111908,
        0.03998979926109314
      ],
      "type": "VEC2"
    },
    {
      "bufferView": 0,
      "byteOffset": 20904,
      "componentType": 5125,
      "count": 4770,
      "type": "SCALAR"
    }
  ],
  "asset": {
    "extras": {
      "author": "amyluvzrob (https://sketchfab.com/amyluvzrob)",
      "license": "CC-BY-4.0 (http://creativecommons.org/licenses/by/4.0/)",
      "source": "https://sketchfab.com/3d-models/spongebob-spongehenge-tscp-b5a9c8d6db634f258b5e6d82ad049849",
      "title": "Spongebob Spongehenge tscp"
    },
    "generator": "Sketchfab-16.33.0",
    "version": "2.0"
  },
  "bufferViews": [
    {
      "buffer": 0,
      "byteLength": 39984,
      "name": "floatBufferViews",
      "target": 34963
    },
    {
      "buffer": 0,
      "byteLength": 32896,
      "byteOffset": 39984,
      "byteStride": 8,
      "name": "floatBufferViews",
      "target": 34962
    },
    {
      "buffer": 0,
      "byteLength": 98688,
      "byteOffset": 72880,
      "byteStride": 12,
      "name": "floatBufferViews",
      "target": 34962
    }
  ],
  "buffers": [
    {
      "byteLength": 171568,
      "uri": "scene.bin"
    }
  ],
  "images": [
    {
      "uri": "textures/Material_baseColor.png"
    },
    {
      "uri": "textures/Material_1_baseColor.png"
    }
  ],
  "materials": [
    {
      "doubleSided": true,
      "name": "Material",
      "pbrMetallicRoughness": {
        "baseColorTexture": {
          "index": 0
        },
        "metallicFactor": 0.0,
        "roughnessFactor": 0.6
      }
    },
    {
      "doubleSided": true,
      "name": "Material_1",
      "pbrMetallicRoughness": {
        "baseColorTexture": {
          "index": 1
        },
        "metallicFactor": 0.0,
        "roughnessFactor": 0.6
      }
    }
  ],
  "meshes": [
    {
      "name": "Object_0",
      "primitives": [
        {
          "attributes": {
            "NORMAL": 1,
            "POSITION": 0,
            "TEXCOORD_0": 2
          },
          "indices": 3,
          "material": 0,
          "mode": 4
        }
      ]
    },
    {
      "name": "Object_1",
      "primitives": [
        {
          "attributes": {
            "NORMAL": 5,
            "POSITION": 4,
            "TEXCOORD_0": 6
          },
          "indices": 7,
          "material": 1,
          "mode": 4
        }
      ]
    }
  ],
  "nodes": [
    {
      "children": [
        1
      ],
      "matrix": [
        1.0,
        0.0,
        0.0,
        0.0,
        0.0,
        2.220446049250313e-16,
        -1.0,
        0.0,
        0.0,
        1.0,
        2.220446049250313e-16,
        0.0,
        0.0,
        0.0,
        0.0,
        1.0
      ],
      "name": "Sketchfab_model"
    },
    {
      "children": [
        2,
        3
      ],
      "name": "spongebob spongehenge .obj.cleaner.materialmerger.gles"
    },
    {
      "mesh": 0,
      "name": "Object_2"
    },
    {
      "mesh": 1,
      "name": "Object_3"
    }
  ],
  "samplers": [
    {
      "magFilter": 9729,
      "minFilter": 9987,
      "wrapS": 10497,
      "wrapT": 10497
    }
  ],
  "scene": 0,
  "scenes": [
    {
      "name": "Sketchfab_Scene",
      "nodes": [
        0
      ]
    }
  ],
  "textures": [
    {
      "sampler": 0,
      "source": 0
    },
    {
      "sampler": 0,
      "source": 1
    }
  ]
}
