{
  "accessors": [
    {
      "bufferView": 2,
      "componentType": 5126,
      "count": 961,
      "max": [
        0.11139087378978729,
        0.536959171295166,
        0.11352458596229553
      ],
      "min": [
        -0.11352356523275375,
        -0.0021508056670427322,
        -0.11566165089607239
      ],
      "type": "VEC3"
    },
    {
      "bufferView": 2,
      "byteOffset": 11532,
      "componentType": 5126,
      "count": 961,
      "max": [
        0.9999681711196899,
        0.9998470544815063,
        0.9989821314811707
      ],
      "min": [
        -0.999647855758667,
        -0.9998290538787842,
        -0.9998660683631897
      ],
      "type": "VEC3"
    },
    {
      "bufferView": 3,
      "componentType": 5126,
      "count": 961,
      "max": [
        0.999817430973053,
        0.9487853050231934,
        0.9990090131759644,
        1.0
      ],
      "min": [
        -0.9998726844787598,
        -0.9851016998291016,
        -0.9994708299636841,
        -1.0
      ],
      "type": "VEC4"
    },
    {
      "bufferView": 1,
      "componentType": 5126,
      "count": 961,
      "max": [
        0.9720216393470764,
        1.002259373664856
      ],
      "min": [
        0.0004943055682815611,
        -0.0003839103155769408
      ],
      "type": "VEC2"
    },
    {
      "bufferView": 1,
      "byteOffset": 7688,
      "componentType": 5126,
      "count": 961,
      "max": [
        0.9720216393470764,
        1.002259373664856
      ],
      "min": [
        0.0004943055682815611,
        -0.0003839103155769408
      ],
      "type": "VEC2"
    },
    {
      "bufferView": 0,
      "componentType": 5125,
      "count": 4116,
      "type": "SCALAR"
    }
  ],
  "asset": {
    "extras": {
      "author": "David Wigforss (https://sketchfab.com/dwigfor)",
      "license": "CC-BY-NC-4.0 (http://creativecommons.org/licenses/by-nc/4.0/)",
      "source": "https://sketchfab.com/3d-models/tiki-totum-a2ea56b29c8b4c27ac7ae5b57c2fae64",
      "title": "Tiki Totum"
    },
    "generator": "Sketchfab-15.32.0",
    "version": "2.0"
  },
  "bufferViews": [
    {
      "buffer": 0,
      "byteLength": 16464,
      "name": "floatBufferViews",
      "target": 34963
    },
    {
      "buffer": 0,
      "byteLength": 15376,
      "byteOffset": 16464,
      "byteStride": 8,
      "name": "floatBufferViews",
      "target": 34962
    },
    {
      "buffer": 0,
      "byteLength": 23064,
      "byteOffset": 31840,
      "byteStride": 12,
      "name": "floatBufferViews",
      "target": 34962
    },
    {
      "buffer": 0,
      "byteLength": 15376,
      "byteOffset": 54904,
      "byteStride": 16,
      "name": "floatBufferViews",
      "target": 34962
    }
  ],
  "buffers": [
    {
      "byteLength": 70280,
      "uri": "scene.bin"
    }
  ],
  "images": [
    {
      "uri": "textures/MAT_Statue_TikiTotum_HIGHPOLY_baseColor.jpeg"
    },
    {
      "uri": "textures/MAT_Statue_TikiTotum_HIGHPOLY_normal.png"
    }
  ],
  "materials": [
    {
      "doubleSided": true,
      "name": "MAT_Statue_TikiTotum_HIGHPOLY",
      "normalTexture": {
        "index": 1
      },
      "pbrMetallicRoughness": {
        "baseColorTexture": {
          "index": 0
        },
        "metallicFactor": 0.0,
        "roughnessFactor": 0.9577051494623774
      }
    }
  ],
  "meshes": [
    {
      "name": "geo1_MAT_Statue_TikiTotum_HIGHPOLY_0",
      "primitives": [
        {
          "attributes": {
            "NORMAL": 1,
            "POSITION": 0,
            "TANGENT": 2,
            "TEXCOORD_0": 3,
            "TEXCOORD_1": 4
          },
          "indices": 5,
          "material": 0,
          "mode": 4
        }
      ]
    }
  ],
  "nodes": [
    {
      "children": [
        1
      ],
      "matrix": [
        1.0,
        0.0,
        0.0,
        0.0,
        0.0,
        2.220446049250313e-16,
        -1.0,
        0.0,
        0.0,
        1.0,
        2.220446049250313e-16,
        0.0,
        0.0,
        0.0,
        0.0,
        1.0
      ],
      "name": "Sketchfab_model"
    },
    {
      "children": [
        2
      ],
      "matrix": [
        0.009999999776482582,
        0.0,
        0.0,
        0.0,
        0.0,
        0.0,
        0.009999999776482582,
        0.0,
        0.0,
        -0.009999999776482582,
        0.0,
        0.0,
        0.0,
        0.0,
        0.0,
        1.0
      ],
      "name": "mesh.fbx"
    },
    {
      "children": [
        3
      ],
      "name": "RootNode"
    },
    {
      "children": [
        4
      ],
      "name": "geo1"
    },
    {
      "mesh": 0,
      "name": "geo1_MAT_Statue_TikiTotum_HIGHPOLY_0"
    }
  ],
  "samplers": [
    {
      "magFilter": 9729,
      "minFilter": 9987,
      "wrapS": 10497,
      "wrapT": 10497
    }
  ],
  "scene": 0,
  "scenes": [
    {
      "name": "Sketchfab_Scene",
      "nodes": [
        0
      ]
    }
  ],
  "textures": [
    {
      "sampler": 0,
      "source": 0
    },
    {
      "sampler": 0,
      "source": 1
    }
  ]
}
