{
	"asset":{
		"generator":"Khronos glTF Blender I/O v4.2.70",
		"version":"2.0"
	},
	"scene":0,
	"scenes":[
		{
			"name":"Scene",
			"nodes":[
				15
			]
		}
	],
	"nodes":[
		{
			"mesh":0,
			"name":"Barrel_05 - Default_0",
			"translation":[
				0,
				0,
				-1.6694557416485623e-05
			]
		},
		{
			"mesh":1,
			"name":"Barrel_06 - Default_0",
			"translation":[
				0,
				0,
				-1.6694557416485623e-05
			]
		},
		{
			"children":[
				0,
				1
			],
			"name":"Barrel",
			"rotation":[
				-0.70710688829422,
				0,
				0,
				0.7071066498756409
			],
			"scale":[
				1.1832140684127808,
				1.1832141876220703,
				1
			],
			"translation":[
				-431.2243957519531,
				-328.30706787109375,
				240.11099243164062
			]
		},
		{
			"mesh":2,
			"name":"Clock_12 - Default_0",
			"translation":[
				0,
				-4.994952632841887e-06,
				0
			]
		},
		{
			"mesh":3,
			"name":"Clock_16 - Default_0",
			"translation":[
				0,
				-4.994952632841887e-06,
				0
			]
		},
		{
			"mesh":4,
			"name":"Clock_17 - Default_0",
			"translation":[
				0,
				-4.994952632841887e-06,
				0
			]
		},
		{
			"mesh":5,
			"name":"Clock_18 - Default_0",
			"translation":[
				0,
				-4.994952632841887e-06,
				0
			]
		},
		{
			"mesh":6,
			"name":"Clock_22 - Default_0",
			"translation":[
				0,
				-4.994952632841887e-06,
				0
			]
		},
		{
			"mesh":7,
			"name":"Clock_Material #355_0",
			"translation":[
				0,
				-4.994952632841887e-06,
				0
			]
		},
		{
			"mesh":8,
			"name":"Clock_Material #356_0",
			"translation":[
				0,
				-4.994952632841887e-06,
				0
			]
		},
		{
			"mesh":9,
			"name":"Clock_Material #357_0",
			"translation":[
				0,
				-4.994952632841887e-06,
				0
			]
		},
		{
			"children":[
				3,
				4,
				5,
				6,
				7,
				8,
				9,
				10
			],
			"name":"Object_7",
			"translation":[
				0,
				2.581415891647339,
				-16.09690284729004
			]
		},
		{
			"children":[
				11
			],
			"name":"Clock",
			"scale":[
				1.3966749906539917,
				1.3966749906539917,
				1.2649729251861572
			],
			"translation":[
				-431.22442626953125,
				-150.5275421142578,
				239.6690673828125
			]
		},
		{
			"children":[
				2,
				12
			],
			"name":"RootNode"
		},
		{
			"children":[
				13
			],
			"name":"Spongebob's Clock.FBX",
			"rotation":[
				0.70710688829422,
				0,
				0,
				0.7071066498756409
			],
			"translation":[
				3.0517578125e-05,
				1.8240541976410896e-05,
				0
			]
		},
		{
			"children":[
				14
			],
			"name":"Sketchfab_model",
			"rotation":[
				-0.70710688829422,
				0,
				0,
				0.7071066498756409
			],
			"scale":[
				0.4000000059604645,
				0.40000006556510925,
				0.40000006556510925
			],
			"translation":[
				169.25,
				36.54999923706055,
				-91.7699966430664
			]
		}
	],
	"materials":[
		{
			"doubleSided":true,
			"name":"05_-_Default",
			"normalTexture":{
				"index":0
			},
			"pbrMetallicRoughness":{
				"baseColorTexture":{
					"index":1
				},
				"metallicFactor":0.4986363649368286,
				"roughnessFactor":0.8929713368415833
			}
		},
		{
			"doubleSided":true,
			"name":"06_-_Default",
			"pbrMetallicRoughness":{
				"baseColorFactor":[
					0.03137259930372238,
					0.03137259930372238,
					0.03137259930372238,
					1
				],
				"metallicFactor":0.7168182134628296,
				"roughnessFactor":0.3256060481071472
			}
		},
		{
			"doubleSided":true,
			"name":"12_-_Default",
			"pbrMetallicRoughness":{
				"baseColorTexture":{
					"index":2
				},
				"metallicFactor":0.3834848701953888,
				"roughnessFactor":0.8929713368415833
			}
		},
		{
			"doubleSided":true,
			"name":"16_-_Default",
			"pbrMetallicRoughness":{
				"baseColorFactor":[
					0.8862749934196472,
					0.8862749934196472,
					0.8862749934196472,
					1
				],
				"metallicFactor":0,
				"roughnessFactor":0.8929713368415833
			}
		},
		{
			"doubleSided":true,
			"name":"17_-_Default",
			"pbrMetallicRoughness":{
				"baseColorFactor":[
					0.6470590233802795,
					0,
					0,
					1
				],
				"roughnessFactor":0.4589393734931946
			}
		},
		{
			"doubleSided":true,
			"name":"18_-_Default",
			"pbrMetallicRoughness":{
				"baseColorFactor":[
					0.4156860113143921,
					0.4156860113143921,
					0.4156860113143921,
					1
				],
				"roughnessFactor":0.45287877321243286
			}
		},
		{
			"doubleSided":true,
			"name":"22_-_Default",
			"pbrMetallicRoughness":{
				"baseColorFactor":[
					0.1254899948835373,
					0.1254899948835373,
					0.1254899948835373,
					1
				],
				"roughnessFactor":0.8929713368415833
			}
		},
		{
			"doubleSided":true,
			"name":"Material_355",
			"pbrMetallicRoughness":{
				"baseColorFactor":[
					0.5879999995231628,
					0.5879999995231628,
					0.5879999995231628,
					1
				],
				"roughnessFactor":0.5983332991600037
			}
		},
		{
			"doubleSided":true,
			"name":"Material_356",
			"pbrMetallicRoughness":{
				"baseColorFactor":[
					0.5879999995231628,
					0.5879999995231628,
					0.5879999995231628,
					1
				],
				"metallicFactor":0,
				"roughnessFactor":0.8929713368415833
			}
		},
		{
			"doubleSided":true,
			"name":"Material_357",
			"pbrMetallicRoughness":{
				"baseColorFactor":[
					0.5879999995231628,
					0.5879999995231628,
					0.5879999995231628,
					1
				],
				"roughnessFactor":0.7074242234230042
			}
		}
	],
	"meshes":[
		{
			"name":"Barrel_05 - Default_0",
			"primitives":[
				{
					"attributes":{
						"POSITION":0,
						"NORMAL":1,
						"TEXCOORD_0":2
					},
					"indices":3,
					"material":0
				}
			]
		},
		{
			"name":"Barrel_06 - Default_0",
			"primitives":[
				{
					"attributes":{
						"POSITION":4,
						"NORMAL":5,
						"TEXCOORD_0":6
					},
					"indices":7,
					"material":1
				}
			]
		},
		{
			"name":"Clock_12 - Default_0",
			"primitives":[
				{
					"attributes":{
						"POSITION":8,
						"NORMAL":9,
						"TEXCOORD_0":10
					},
					"indices":11,
					"material":2
				}
			]
		},
		{
			"name":"Clock_16 - Default_0",
			"primitives":[
				{
					"attributes":{
						"POSITION":12,
						"NORMAL":13,
						"TEXCOORD_0":14
					},
					"indices":15,
					"material":3
				}
			]
		},
		{
			"name":"Clock_17 - Default_0",
			"primitives":[
				{
					"attributes":{
						"POSITION":16,
						"NORMAL":17,
						"TEXCOORD_0":18
					},
					"indices":19,
					"material":4
				}
			]
		},
		{
			"name":"Clock_18 - Default_0",
			"primitives":[
				{
					"attributes":{
						"POSITION":20,
						"NORMAL":21,
						"TEXCOORD_0":22
					},
					"indices":23,
					"material":5
				}
			]
		},
		{
			"name":"Clock_22 - Default_0",
			"primitives":[
				{
					"attributes":{
						"POSITION":24,
						"NORMAL":25,
						"TEXCOORD_0":26
					},
					"indices":27,
					"material":6
				}
			]
		},
		{
			"name":"Clock_Material #355_0",
			"primitives":[
				{
					"attributes":{
						"POSITION":28,
						"NORMAL":29,
						"TEXCOORD_0":30
					},
					"indices":31,
					"material":7
				}
			]
		},
		{
			"name":"Clock_Material #356_0",
			"primitives":[
				{
					"attributes":{
						"POSITION":32,
						"NORMAL":33,
						"TEXCOORD_0":34
					},
					"indices":35,
					"material":8
				}
			]
		},
		{
			"name":"Clock_Material #357_0",
			"primitives":[
				{
					"attributes":{
						"POSITION":36,
						"NORMAL":37,
						"TEXCOORD_0":38
					},
					"indices":39,
					"material":9
				}
			]
		}
	],
	"textures":[
		{
			"sampler":0,
			"source":0
		},
		{
			"sampler":0,
			"source":1
		},
		{
			"sampler":0,
			"source":2
		}
	],
	"images":[
		{
			"mimeType":"image/png",
			"name":"05_-_Default_normal",
			"uri":"textures/05_-_Default_normal.png"
		},
		{
			"mimeType":"image/jpeg",
			"name":"05_-_Default_baseColor",
			"uri":"textures/05_-_Default_baseColor.jpg"
		},
		{
			"mimeType":"image/png",
			"name":"12_-_Default_baseColor",
			"uri":"textures/12_-_Default_baseColor.png"
		}
	],
	"accessors":[
		{
			"bufferView":0,
			"componentType":5126,
			"count":507,
			"max":[
				48.08901596069336,
				47.9918212890625,
				146.8300323486328
			],
			"min":[
				-48.130836486816406,
				-47.9918212890625,
				1.1315094232559204
			],
			"type":"VEC3"
		},
		{
			"bufferView":1,
			"componentType":5126,
			"count":507,
			"type":"VEC3"
		},
		{
			"bufferView":2,
			"componentType":5126,
			"count":507,
			"type":"VEC2"
		},
		{
			"bufferView":3,
			"componentType":5123,
			"count":1614,
			"type":"SCALAR"
		},
		{
			"bufferView":4,
			"componentType":5126,
			"count":247,
			"max":[
				49.37539291381836,
				49.44213104248047,
				126.68087005615234
			],
			"min":[
				-49.37539291381836,
				-49.442134857177734,
				22.0210018157959
			],
			"type":"VEC3"
		},
		{
			"bufferView":5,
			"componentType":5126,
			"count":247,
			"type":"VEC3"
		},
		{
			"bufferView":6,
			"componentType":5126,
			"count":247,
			"type":"VEC2"
		},
		{
			"bufferView":7,
			"componentType":5123,
			"count":906,
			"type":"SCALAR"
		},
		{
			"bufferView":8,
			"componentType":5126,
			"count":46,
			"max":[
				22.92801856994629,
				22.933971405029297,
				36.95207977294922
			],
			"min":[
				-22.92801856994629,
				-22.933975219726562,
				36.9173583984375
			],
			"type":"VEC3"
		},
		{
			"bufferView":9,
			"componentType":5126,
			"count":46,
			"type":"VEC3"
		},
		{
			"bufferView":10,
			"componentType":5126,
			"count":46,
			"type":"VEC2"
		},
		{
			"bufferView":11,
			"componentType":5123,
			"count":126,
			"type":"SCALAR"
		},
		{
			"bufferView":12,
			"componentType":5126,
			"count":776,
			"max":[
				24.928123474121094,
				24.973773956298828,
				37.889583587646484
			],
			"min":[
				-24.928123474121094,
				-24.92681884765625,
				34.26769256591797
			],
			"type":"VEC3"
		},
		{
			"bufferView":13,
			"componentType":5126,
			"count":776,
			"type":"VEC3"
		},
		{
			"bufferView":14,
			"componentType":5126,
			"count":776,
			"type":"VEC2"
		},
		{
			"bufferView":15,
			"componentType":5123,
			"count":4065,
			"type":"SCALAR"
		},
		{
			"bufferView":16,
			"componentType":5126,
			"count":329,
			"max":[
				25.62255859375,
				64.61538696289062,
				38.458255767822266
			],
			"min":[
				-25.62255859375,
				-26.06842041015625,
				-20.51242446899414
			],
			"type":"VEC3"
		},
		{
			"bufferView":17,
			"componentType":5126,
			"count":329,
			"type":"VEC3"
		},
		{
			"bufferView":18,
			"componentType":5126,
			"count":329,
			"type":"VEC2"
		},
		{
			"bufferView":19,
			"componentType":5123,
			"count":675,
			"type":"SCALAR"
		},
		{
			"bufferView":20,
			"componentType":5126,
			"count":388,
			"max":[
				40.6815299987793,
				226.1154327392578,
				88.70777130126953
			],
			"min":[
				-40.71445083618164,
				-30.287776947021484,
				0.9128530025482178
			],
			"type":"VEC3"
		},
		{
			"bufferView":21,
			"componentType":5126,
			"count":388,
			"type":"VEC3"
		},
		{
			"bufferView":22,
			"componentType":5126,
			"count":388,
			"type":"VEC2"
		},
		{
			"bufferView":23,
			"componentType":5123,
			"count":864,
			"type":"SCALAR"
		},
		{
			"bufferView":24,
			"componentType":5126,
			"count":345,
			"max":[
				40.33863830566406,
				226.74862670898438,
				84.586669921875
			],
			"min":[
				-40.44412612915039,
				20.377395629882812,
				-25.365293502807617
			],
			"type":"VEC3"
		},
		{
			"bufferView":25,
			"componentType":5126,
			"count":345,
			"type":"VEC3"
		},
		{
			"bufferView":26,
			"componentType":5126,
			"count":345,
			"type":"VEC2"
		},
		{
			"bufferView":27,
			"componentType":5123,
			"count":1482,
			"type":"SCALAR"
		},
		{
			"bufferView":28,
			"componentType":5126,
			"count":206,
			"max":[
				40.390987396240234,
				226.25851440429688,
				88.20639038085938
			],
			"min":[
				-40.3903694152832,
				94.48635864257812,
				-26.840240478515625
			],
			"type":"VEC3"
		},
		{
			"bufferView":29,
			"componentType":5126,
			"count":206,
			"type":"VEC3"
		},
		{
			"bufferView":30,
			"componentType":5126,
			"count":206,
			"type":"VEC2"
		},
		{
			"bufferView":31,
			"componentType":5123,
			"count":711,
			"type":"SCALAR"
		},
		{
			"bufferView":32,
			"componentType":5126,
			"count":124,
			"max":[
				15.371358871459961,
				32.66695022583008,
				34.26189422607422
			],
			"min":[
				-15.370748519897461,
				19.85862159729004,
				1.4477300643920898
			],
			"type":"VEC3"
		},
		{
			"bufferView":33,
			"componentType":5126,
			"count":124,
			"type":"VEC3"
		},
		{
			"bufferView":34,
			"componentType":5126,
			"count":124,
			"type":"VEC2"
		},
		{
			"bufferView":35,
			"componentType":5123,
			"count":354,
			"type":"SCALAR"
		},
		{
			"bufferView":36,
			"componentType":5126,
			"count":53,
			"max":[
				22.733152389526367,
				108.01567840576172,
				37.20417404174805
			],
			"min":[
				-22.42538070678711,
				32.66722869873047,
				-13.720158576965332
			],
			"type":"VEC3"
		},
		{
			"bufferView":37,
			"componentType":5126,
			"count":53,
			"type":"VEC3"
		},
		{
			"bufferView":38,
			"componentType":5126,
			"count":53,
			"type":"VEC2"
		},
		{
			"bufferView":39,
			"componentType":5123,
			"count":207,
			"type":"SCALAR"
		}
	],
	"bufferViews":[
		{
			"buffer":0,
			"byteLength":6084,
			"byteOffset":0,
			"target":34962
		},
		{
			"buffer":0,
			"byteLength":6084,
			"byteOffset":6084,
			"target":34962
		},
		{
			"buffer":0,
			"byteLength":4056,
			"byteOffset":12168,
			"target":34962
		},
		{
			"buffer":0,
			"byteLength":3228,
			"byteOffset":16224,
			"target":34963
		},
		{
			"buffer":0,
			"byteLength":2964,
			"byteOffset":19452,
			"target":34962
		},
		{
			"buffer":0,
			"byteLength":2964,
			"byteOffset":22416,
			"target":34962
		},
		{
			"buffer":0,
			"byteLength":1976,
			"byteOffset":25380,
			"target":34962
		},
		{
			"buffer":0,
			"byteLength":1812,
			"byteOffset":27356,
			"target":34963
		},
		{
			"buffer":0,
			"byteLength":552,
			"byteOffset":29168,
			"target":34962
		},
		{
			"buffer":0,
			"byteLength":552,
			"byteOffset":29720,
			"target":34962
		},
		{
			"buffer":0,
			"byteLength":368,
			"byteOffset":30272,
			"target":34962
		},
		{
			"buffer":0,
			"byteLength":252,
			"byteOffset":30640,
			"target":34963
		},
		{
			"buffer":0,
			"byteLength":9312,
			"byteOffset":30892,
			"target":34962
		},
		{
			"buffer":0,
			"byteLength":9312,
			"byteOffset":40204,
			"target":34962
		},
		{
			"buffer":0,
			"byteLength":6208,
			"byteOffset":49516,
			"target":34962
		},
		{
			"buffer":0,
			"byteLength":8130,
			"byteOffset":55724,
			"target":34963
		},
		{
			"buffer":0,
			"byteLength":3948,
			"byteOffset":63856,
			"target":34962
		},
		{
			"buffer":0,
			"byteLength":3948,
			"byteOffset":67804,
			"target":34962
		},
		{
			"buffer":0,
			"byteLength":2632,
			"byteOffset":71752,
			"target":34962
		},
		{
			"buffer":0,
			"byteLength":1350,
			"byteOffset":74384,
			"target":34963
		},
		{
			"buffer":0,
			"byteLength":4656,
			"byteOffset":75736,
			"target":34962
		},
		{
			"buffer":0,
			"byteLength":4656,
			"byteOffset":80392,
			"target":34962
		},
		{
			"buffer":0,
			"byteLength":3104,
			"byteOffset":85048,
			"target":34962
		},
		{
			"buffer":0,
			"byteLength":1728,
			"byteOffset":88152,
			"target":34963
		},
		{
			"buffer":0,
			"byteLength":4140,
			"byteOffset":89880,
			"target":34962
		},
		{
			"buffer":0,
			"byteLength":4140,
			"byteOffset":94020,
			"target":34962
		},
		{
			"buffer":0,
			"byteLength":2760,
			"byteOffset":98160,
			"target":34962
		},
		{
			"buffer":0,
			"byteLength":2964,
			"byteOffset":100920,
			"target":34963
		},
		{
			"buffer":0,
			"byteLength":2472,
			"byteOffset":103884,
			"target":34962
		},
		{
			"buffer":0,
			"byteLength":2472,
			"byteOffset":106356,
			"target":34962
		},
		{
			"buffer":0,
			"byteLength":1648,
			"byteOffset":108828,
			"target":34962
		},
		{
			"buffer":0,
			"byteLength":1422,
			"byteOffset":110476,
			"target":34963
		},
		{
			"buffer":0,
			"byteLength":1488,
			"byteOffset":111900,
			"target":34962
		},
		{
			"buffer":0,
			"byteLength":1488,
			"byteOffset":113388,
			"target":34962
		},
		{
			"buffer":0,
			"byteLength":992,
			"byteOffset":114876,
			"target":34962
		},
		{
			"buffer":0,
			"byteLength":708,
			"byteOffset":115868,
			"target":34963
		},
		{
			"buffer":0,
			"byteLength":636,
			"byteOffset":116576,
			"target":34962
		},
		{
			"buffer":0,
			"byteLength":636,
			"byteOffset":117212,
			"target":34962
		},
		{
			"buffer":0,
			"byteLength":424,
			"byteOffset":117848,
			"target":34962
		},
		{
			"buffer":0,
			"byteLength":414,
			"byteOffset":118272,
			"target":34963
		}
	],
	"samplers":[
		{
			"magFilter":9729,
			"minFilter":9987
		}
	],
	"buffers":[
		{
			"byteLength":118688,
			"uri":"scene.bin"
		}
	]
}
