{
	"asset":{
		"generator":"Khronos glTF Blender I/O v4.2.70",
		"version":"2.0"
	},
	"scene":0,
	"scenes":[
		{
			"name":"Scene",
			"nodes":[
				11
			]
		}
	],
	"nodes":[
		{
			"mesh":0,
			"name":"eyes_mat0_eyes_0"
		},
		{
			"mesh":1,
			"name":"eyes_mat0_eyes_1"
		},
		{
			"mesh":2,
			"name":"eyes_mat0_eyes_2"
		},
		{
			"mesh":3,
			"name":"eyes_mat0_eyes_3"
		},
		{
			"mesh":4,
			"name":"eyes_mat0_eyes_4"
		},
		{
			"mesh":5,
			"name":"eyes_mat0_eyes_5"
		},
		{
			"mesh":6,
			"name":"eyes_mat0_eyes_6"
		},
		{
			"mesh":7,
			"name":"eyes_mat0_eyes_7"
		},
		{
			"children":[
				0,
				1,
				2,
				3,
				4,
				5,
				6,
				7
			],
			"name":"Geom"
		},
		{
			"children":[
				8
			],
			"name":"patrickfinal"
		},
		{
			"children":[
				9
			],
			"name":"USDRoot",
			"rotation":[
				0.70710688829422,
				0,
				0,
				0.7071066498756409
			]
		},
		{
			"children":[
				10
			],
			"name":"Sketchfab_model",
			"rotation":[
				-0.70710688829422,
				0,
				0,
				0.7071066498756409
			]
		}
	],
	"materials":[
		{
			"name":"mat0_eyes",
			"pbrMetallicRoughness":{
				"baseColorTexture":{
					"index":0
				},
				"metallicRoughnessTexture":{
					"index":1
				},
				"roughnessFactor":0
			}
		},
		{
			"name":"mat0_nail",
			"pbrMetallicRoughness":{
				"baseColorTexture":{
					"index":2
				},
				"metallicRoughnessTexture":{
					"index":3
				},
				"roughnessFactor":0
			}
		},
		{
			"name":"mat0_flowers",
			"pbrMetallicRoughness":{
				"baseColorTexture":{
					"index":4
				},
				"metallicRoughnessTexture":{
					"index":5
				}
			}
		},
		{
			"name":"mat0_Box",
			"pbrMetallicRoughness":{
				"baseColorTexture":{
					"index":6
				},
				"metallicRoughnessTexture":{
					"index":7
				}
			}
		},
		{
			"name":"mat0_pat",
			"pbrMetallicRoughness":{
				"baseColorTexture":{
					"index":8
				},
				"metallicRoughnessTexture":{
					"index":9
				},
				"roughnessFactor":0.9204070568084717
			}
		},
		{
			"name":"mat0_pants",
			"pbrMetallicRoughness":{
				"baseColorTexture":{
					"index":10
				},
				"metallicRoughnessTexture":{
					"index":11
				}
			}
		},
		{
			"name":"mat0_hammer",
			"pbrMetallicRoughness":{
				"baseColorTexture":{
					"index":12
				},
				"metallicRoughnessTexture":{
					"index":13
				},
				"roughnessFactor":0.0016354715917259455
			}
		},
		{
			"name":"mat0_handle",
			"pbrMetallicRoughness":{
				"baseColorTexture":{
					"index":14
				},
				"metallicRoughnessTexture":{
					"index":15
				}
			}
		}
	],
	"meshes":[
		{
			"name":"eyes_mat0_eyes_0",
			"primitives":[
				{
					"attributes":{
						"POSITION":0,
						"NORMAL":1,
						"TEXCOORD_0":2,
						"TEXCOORD_1":3,
						"TEXCOORD_2":4
					},
					"indices":5,
					"material":0
				}
			]
		},
		{
			"name":"eyes_mat0_eyes_1",
			"primitives":[
				{
					"attributes":{
						"POSITION":6,
						"NORMAL":7,
						"TEXCOORD_0":8,
						"TEXCOORD_1":9,
						"TEXCOORD_2":10
					},
					"indices":11,
					"material":1
				}
			]
		},
		{
			"name":"eyes_mat0_eyes_2",
			"primitives":[
				{
					"attributes":{
						"POSITION":12,
						"NORMAL":13,
						"TEXCOORD_0":14,
						"TEXCOORD_1":15,
						"TEXCOORD_2":16
					},
					"indices":17,
					"material":2
				}
			]
		},
		{
			"name":"eyes_mat0_eyes_3",
			"primitives":[
				{
					"attributes":{
						"POSITION":18,
						"NORMAL":19,
						"TEXCOORD_0":20,
						"TEXCOORD_1":21,
						"TEXCOORD_2":22
					},
					"indices":23,
					"material":3
				}
			]
		},
		{
			"name":"eyes_mat0_eyes_4",
			"primitives":[
				{
					"attributes":{
						"POSITION":24,
						"NORMAL":25,
						"TEXCOORD_0":26,
						"TEXCOORD_1":27,
						"TEXCOORD_2":28
					},
					"indices":29,
					"material":4
				}
			]
		},
		{
			"name":"eyes_mat0_eyes_5",
			"primitives":[
				{
					"attributes":{
						"POSITION":30,
						"NORMAL":31,
						"TEXCOORD_0":32,
						"TEXCOORD_1":33,
						"TEXCOORD_2":34
					},
					"indices":35,
					"material":5
				}
			]
		},
		{
			"name":"eyes_mat0_eyes_6",
			"primitives":[
				{
					"attributes":{
						"POSITION":36,
						"NORMAL":37,
						"TEXCOORD_0":38,
						"TEXCOORD_1":39,
						"TEXCOORD_2":40
					},
					"indices":41,
					"material":6
				}
			]
		},
		{
			"name":"eyes_mat0_eyes_7",
			"primitives":[
				{
					"attributes":{
						"POSITION":42,
						"NORMAL":43,
						"TEXCOORD_0":44,
						"TEXCOORD_1":45,
						"TEXCOORD_2":46
					},
					"indices":47,
					"material":7
				}
			]
		}
	],
	"textures":[
		{
			"sampler":0,
			"source":0
		},
		{
			"sampler":0,
			"source":1
		},
		{
			"sampler":0,
			"source":2
		},
		{
			"sampler":0,
			"source":3
		},
		{
			"sampler":0,
			"source":4
		},
		{
			"sampler":0,
			"source":5
		},
		{
			"sampler":0,
			"source":6
		},
		{
			"sampler":0,
			"source":7
		},
		{
			"sampler":0,
			"source":8
		},
		{
			"sampler":0,
			"source":9
		},
		{
			"sampler":0,
			"source":10
		},
		{
			"sampler":0,
			"source":11
		},
		{
			"sampler":0,
			"source":12
		},
		{
			"sampler":0,
			"source":13
		},
		{
			"sampler":0,
			"source":14
		},
		{
			"sampler":0,
			"source":15
		}
	],
	"images":[
		{
			"mimeType":"image/png",
			"name":"mat0_eyes_baseColor",
			"uri":"textures/mat0_eyes_baseColor.png"
		},
		{
			"mimeType":"image/png",
			"name":"mat0_eyes_metallicRoughness",
			"uri":"textures/mat0_eyes_metallicRoughness.png"
		},
		{
			"mimeType":"image/png",
			"name":"mat0_nail_baseColor",
			"uri":"textures/mat0_nail_baseColor.png"
		},
		{
			"mimeType":"image/png",
			"name":"mat0_nail_metallicRoughness",
			"uri":"textures/mat0_nail_metallicRoughness.png"
		},
		{
			"mimeType":"image/png",
			"name":"mat0_flowers_baseColor",
			"uri":"textures/mat0_flowers_baseColor.png"
		},
		{
			"mimeType":"image/png",
			"name":"mat0_flowers_metallicRoughness",
			"uri":"textures/mat0_flowers_metallicRoughness.png"
		},
		{
			"mimeType":"image/png",
			"name":"mat0_Box_baseColor",
			"uri":"textures/mat0_Box_baseColor.png"
		},
		{
			"mimeType":"image/png",
			"name":"mat0_Box_metallicRoughness",
			"uri":"textures/mat0_Box_metallicRoughness.png"
		},
		{
			"mimeType":"image/png",
			"name":"mat0_pat_baseColor",
			"uri":"textures/mat0_pat_baseColor.png"
		},
		{
			"mimeType":"image/png",
			"name":"mat0_pat_metallicRoughness",
			"uri":"textures/mat0_pat_metallicRoughness.png"
		},
		{
			"mimeType":"image/png",
			"name":"mat0_pants_baseColor",
			"uri":"textures/mat0_pants_baseColor.png"
		},
		{
			"mimeType":"image/png",
			"name":"mat0_pants_metallicRoughness",
			"uri":"textures/mat0_pants_metallicRoughness.png"
		},
		{
			"mimeType":"image/png",
			"name":"mat0_hammer_baseColor",
			"uri":"textures/mat0_hammer_baseColor.png"
		},
		{
			"mimeType":"image/png",
			"name":"mat0_hammer_metallicRoughness",
			"uri":"textures/mat0_hammer_metallicRoughness.png"
		},
		{
			"mimeType":"image/png",
			"name":"mat0_handle_baseColor",
			"uri":"textures/mat0_handle_baseColor.png"
		},
		{
			"mimeType":"image/png",
			"name":"mat0_handle_metallicRoughness",
			"uri":"textures/mat0_handle_metallicRoughness.png"
		}
	],
	"accessors":[
		{
			"bufferView":0,
			"componentType":5126,
			"count":75,
			"max":[
				0.0732397511601448,
				0.14536459743976593,
				0.1485760658979416
			],
			"min":[
				-0.07267040014266968,
				0.12434402853250504,
				0.1301872730255127
			],
			"type":"VEC3"
		},
		{
			"bufferView":1,
			"componentType":5126,
			"count":75,
			"type":"VEC3"
		},
		{
			"bufferView":2,
			"componentType":5126,
			"count":75,
			"type":"VEC2"
		},
		{
			"bufferView":3,
			"componentType":5126,
			"count":75,
			"type":"VEC2"
		},
		{
			"bufferView":4,
			"componentType":5126,
			"count":75,
			"type":"VEC2"
		},
		{
			"bufferView":5,
			"componentType":5123,
			"count":126,
			"type":"SCALAR"
		},
		{
			"bufferView":6,
			"componentType":5126,
			"count":75,
			"max":[
				-0.024009650573134422,
				0.36521676182746887,
				0.16264492273330688
			],
			"min":[
				-0.07489891350269318,
				0.2759917378425598,
				0.08354821801185608
			],
			"type":"VEC3"
		},
		{
			"bufferView":7,
			"componentType":5126,
			"count":75,
			"type":"VEC3"
		},
		{
			"bufferView":8,
			"componentType":5126,
			"count":75,
			"type":"VEC2"
		},
		{
			"bufferView":9,
			"componentType":5126,
			"count":75,
			"type":"VEC2"
		},
		{
			"bufferView":10,
			"componentType":5126,
			"count":75,
			"type":"VEC2"
		},
		{
			"bufferView":11,
			"componentType":5123,
			"count":135,
			"type":"SCALAR"
		},
		{
			"bufferView":12,
			"componentType":5126,
			"count":274,
			"max":[
				0.28952664136886597,
				-0.14246302843093872,
				0.2945375442504883
			],
			"min":[
				-0.26617300510406494,
				-0.3336120843887329,
				-0.2657366394996643
			],
			"type":"VEC3"
		},
		{
			"bufferView":13,
			"componentType":5126,
			"count":274,
			"type":"VEC3"
		},
		{
			"bufferView":14,
			"componentType":5126,
			"count":274,
			"type":"VEC2"
		},
		{
			"bufferView":15,
			"componentType":5126,
			"count":274,
			"type":"VEC2"
		},
		{
			"bufferView":16,
			"componentType":5126,
			"count":274,
			"type":"VEC2"
		},
		{
			"bufferView":17,
			"componentType":5123,
			"count":369,
			"type":"SCALAR"
		},
		{
			"bufferView":18,
			"componentType":5126,
			"count":109,
			"max":[
				0.19419121742248535,
				0.3583082854747772,
				0.1782165765762329
			],
			"min":[
				-0.18092553317546844,
				0.1972270905971527,
				0.021692246198654175
			],
			"type":"VEC3"
		},
		{
			"bufferView":19,
			"componentType":5126,
			"count":109,
			"type":"VEC3"
		},
		{
			"bufferView":20,
			"componentType":5126,
			"count":109,
			"type":"VEC2"
		},
		{
			"bufferView":21,
			"componentType":5126,
			"count":109,
			"type":"VEC2"
		},
		{
			"bufferView":22,
			"componentType":5126,
			"count":109,
			"type":"VEC2"
		},
		{
			"bufferView":23,
			"componentType":5123,
			"count":243,
			"type":"SCALAR"
		},
		{
			"bufferView":24,
			"componentType":5126,
			"count":305,
			"max":[
				0.2593056857585907,
				0.39941608905792236,
				0.3665894865989685
			],
			"min":[
				-0.26368531584739685,
				-0.33541542291641235,
				-0.2612035870552063
			],
			"type":"VEC3"
		},
		{
			"bufferView":25,
			"componentType":5126,
			"count":305,
			"type":"VEC3"
		},
		{
			"bufferView":26,
			"componentType":5126,
			"count":305,
			"type":"VEC2"
		},
		{
			"bufferView":27,
			"componentType":5126,
			"count":305,
			"type":"VEC2"
		},
		{
			"bufferView":28,
			"componentType":5126,
			"count":305,
			"type":"VEC2"
		},
		{
			"bufferView":29,
			"componentType":5123,
			"count":1128,
			"type":"SCALAR"
		},
		{
			"bufferView":30,
			"componentType":5126,
			"count":1270,
			"max":[
				0.28759050369262695,
				-0.09547555446624756,
				0.30074527859687805
			],
			"min":[
				-0.295999675989151,
				-0.3474883437156677,
				-0.2846998870372772
			],
			"type":"VEC3"
		},
		{
			"bufferView":31,
			"componentType":5126,
			"count":1270,
			"type":"VEC3"
		},
		{
			"bufferView":32,
			"componentType":5126,
			"count":1270,
			"type":"VEC2"
		},
		{
			"bufferView":33,
			"componentType":5126,
			"count":1270,
			"type":"VEC2"
		},
		{
			"bufferView":34,
			"componentType":5126,
			"count":1270,
			"type":"VEC2"
		},
		{
			"bufferView":35,
			"componentType":5123,
			"count":2034,
			"type":"SCALAR"
		},
		{
			"bufferView":36,
			"componentType":5126,
			"count":184,
			"max":[
				-0.1706744134426117,
				0.18904449045658112,
				0.31015515327453613
			],
			"min":[
				-0.24484628438949585,
				0.07690833508968353,
				0.17254245281219482
			],
			"type":"VEC3"
		},
		{
			"bufferView":37,
			"componentType":5126,
			"count":184,
			"type":"VEC3"
		},
		{
			"bufferView":38,
			"componentType":5126,
			"count":184,
			"type":"VEC2"
		},
		{
			"bufferView":39,
			"componentType":5126,
			"count":184,
			"type":"VEC2"
		},
		{
			"bufferView":40,
			"componentType":5126,
			"count":184,
			"type":"VEC2"
		},
		{
			"bufferView":41,
			"componentType":5123,
			"count":333,
			"type":"SCALAR"
		},
		{
			"bufferView":42,
			"componentType":5126,
			"count":26,
			"max":[
				-0.16265633702278137,
				0.13011306524276733,
				0.29462990164756775
			],
			"min":[
				-0.22399134933948517,
				-0.033356595784425735,
				0.20972248911857605
			],
			"type":"VEC3"
		},
		{
			"bufferView":43,
			"componentType":5126,
			"count":26,
			"type":"VEC3"
		},
		{
			"bufferView":44,
			"componentType":5126,
			"count":26,
			"type":"VEC2"
		},
		{
			"bufferView":45,
			"componentType":5126,
			"count":26,
			"type":"VEC2"
		},
		{
			"bufferView":46,
			"componentType":5126,
			"count":26,
			"type":"VEC2"
		},
		{
			"bufferView":47,
			"componentType":5123,
			"count":42,
			"type":"SCALAR"
		}
	],
	"bufferViews":[
		{
			"buffer":0,
			"byteLength":900,
			"byteOffset":0,
			"target":34962
		},
		{
			"buffer":0,
			"byteLength":900,
			"byteOffset":900,
			"target":34962
		},
		{
			"buffer":0,
			"byteLength":600,
			"byteOffset":1800,
			"target":34962
		},
		{
			"buffer":0,
			"byteLength":600,
			"byteOffset":2400,
			"target":34962
		},
		{
			"buffer":0,
			"byteLength":600,
			"byteOffset":3000,
			"target":34962
		},
		{
			"buffer":0,
			"byteLength":252,
			"byteOffset":3600,
			"target":34963
		},
		{
			"buffer":0,
			"byteLength":900,
			"byteOffset":3852,
			"target":34962
		},
		{
			"buffer":0,
			"byteLength":900,
			"byteOffset":4752,
			"target":34962
		},
		{
			"buffer":0,
			"byteLength":600,
			"byteOffset":5652,
			"target":34962
		},
		{
			"buffer":0,
			"byteLength":600,
			"byteOffset":6252,
			"target":34962
		},
		{
			"buffer":0,
			"byteLength":600,
			"byteOffset":6852,
			"target":34962
		},
		{
			"buffer":0,
			"byteLength":270,
			"byteOffset":7452,
			"target":34963
		},
		{
			"buffer":0,
			"byteLength":3288,
			"byteOffset":7724,
			"target":34962
		},
		{
			"buffer":0,
			"byteLength":3288,
			"byteOffset":11012,
			"target":34962
		},
		{
			"buffer":0,
			"byteLength":2192,
			"byteOffset":14300,
			"target":34962
		},
		{
			"buffer":0,
			"byteLength":2192,
			"byteOffset":16492,
			"target":34962
		},
		{
			"buffer":0,
			"byteLength":2192,
			"byteOffset":18684,
			"target":34962
		},
		{
			"buffer":0,
			"byteLength":738,
			"byteOffset":20876,
			"target":34963
		},
		{
			"buffer":0,
			"byteLength":1308,
			"byteOffset":21616,
			"target":34962
		},
		{
			"buffer":0,
			"byteLength":1308,
			"byteOffset":22924,
			"target":34962
		},
		{
			"buffer":0,
			"byteLength":872,
			"byteOffset":24232,
			"target":34962
		},
		{
			"buffer":0,
			"byteLength":872,
			"byteOffset":25104,
			"target":34962
		},
		{
			"buffer":0,
			"byteLength":872,
			"byteOffset":25976,
			"target":34962
		},
		{
			"buffer":0,
			"byteLength":486,
			"byteOffset":26848,
			"target":34963
		},
		{
			"buffer":0,
			"byteLength":3660,
			"byteOffset":27336,
			"target":34962
		},
		{
			"buffer":0,
			"byteLength":3660,
			"byteOffset":30996,
			"target":34962
		},
		{
			"buffer":0,
			"byteLength":2440,
			"byteOffset":34656,
			"target":34962
		},
		{
			"buffer":0,
			"byteLength":2440,
			"byteOffset":37096,
			"target":34962
		},
		{
			"buffer":0,
			"byteLength":2440,
			"byteOffset":39536,
			"target":34962
		},
		{
			"buffer":0,
			"byteLength":2256,
			"byteOffset":41976,
			"target":34963
		},
		{
			"buffer":0,
			"byteLength":15240,
			"byteOffset":44232,
			"target":34962
		},
		{
			"buffer":0,
			"byteLength":15240,
			"byteOffset":59472,
			"target":34962
		},
		{
			"buffer":0,
			"byteLength":10160,
			"byteOffset":74712,
			"target":34962
		},
		{
			"buffer":0,
			"byteLength":10160,
			"byteOffset":84872,
			"target":34962
		},
		{
			"buffer":0,
			"byteLength":10160,
			"byteOffset":95032,
			"target":34962
		},
		{
			"buffer":0,
			"byteLength":4068,
			"byteOffset":105192,
			"target":34963
		},
		{
			"buffer":0,
			"byteLength":2208,
			"byteOffset":109260,
			"target":34962
		},
		{
			"buffer":0,
			"byteLength":2208,
			"byteOffset":111468,
			"target":34962
		},
		{
			"buffer":0,
			"byteLength":1472,
			"byteOffset":113676,
			"target":34962
		},
		{
			"buffer":0,
			"byteLength":1472,
			"byteOffset":115148,
			"target":34962
		},
		{
			"buffer":0,
			"byteLength":1472,
			"byteOffset":116620,
			"target":34962
		},
		{
			"buffer":0,
			"byteLength":666,
			"byteOffset":118092,
			"target":34963
		},
		{
			"buffer":0,
			"byteLength":312,
			"byteOffset":118760,
			"target":34962
		},
		{
			"buffer":0,
			"byteLength":312,
			"byteOffset":119072,
			"target":34962
		},
		{
			"buffer":0,
			"byteLength":208,
			"byteOffset":119384,
			"target":34962
		},
		{
			"buffer":0,
			"byteLength":208,
			"byteOffset":119592,
			"target":34962
		},
		{
			"buffer":0,
			"byteLength":208,
			"byteOffset":119800,
			"target":34962
		},
		{
			"buffer":0,
			"byteLength":84,
			"byteOffset":120008,
			"target":34963
		}
	],
	"samplers":[
		{
			"magFilter":9729,
			"minFilter":9987
		}
	],
	"buffers":[
		{
			"byteLength":120092,
			"uri":"scene.bin"
		}
	]
}
